%TF.GenerationSoftware,KiCad,Pcbnew,9.0.5*%
%TF.CreationDate,2025-11-19T18:58:22+01:00*%
%TF.ProjectId,aeris,61657269-732e-46b6-9963-61645f706362,rev?*%
%TF.SameCoordinates,Original*%
%TF.FileFunction,Copper,L2,Bot*%
%TF.FilePolarity,Positive*%
%FSLAX46Y46*%
G04 Gerber Fmt 4.6, Leading zero omitted, Abs format (unit mm)*
G04 Created by KiCad (PCBNEW 9.0.5) date 2025-11-19 18:58:22*
%MOMM*%
%LPD*%
G01*
G04 APERTURE LIST*
%TA.AperFunction,ComponentPad*%
%ADD10R,3.700000X1.700000*%
%TD*%
%TA.AperFunction,ComponentPad*%
%ADD11C,1.700000*%
%TD*%
%TA.AperFunction,ComponentPad*%
%ADD12R,1.700000X1.700000*%
%TD*%
%TA.AperFunction,ComponentPad*%
%ADD13C,0.900000*%
%TD*%
%TA.AperFunction,ViaPad*%
%ADD14C,0.600000*%
%TD*%
%TA.AperFunction,ViaPad*%
%ADD15C,0.800000*%
%TD*%
%TA.AperFunction,ViaPad*%
%ADD16C,0.700000*%
%TD*%
%TA.AperFunction,Conductor*%
%ADD17C,0.300000*%
%TD*%
%TA.AperFunction,Conductor*%
%ADD18C,0.800000*%
%TD*%
%TA.AperFunction,Conductor*%
%ADD19C,0.200000*%
%TD*%
%TA.AperFunction,Conductor*%
%ADD20C,1.500000*%
%TD*%
G04 APERTURE END LIST*
D10*
%TO.P,U1,1,IO8*%
%TO.N,unconnected-(U1-IO8-Pad1)*%
X91400000Y-58620000D03*
%TO.P,U1,2,IO9*%
%TO.N,GPIO9*%
X91400000Y-56080000D03*
%TO.P,U1,3,IO14*%
%TO.N,unconnected-(U1-IO14-Pad3)*%
X91400000Y-53540000D03*
%TO.P,U1,4,IO15*%
%TO.N,GPIO15*%
X91400000Y-51000000D03*
%TO.P,U1,5,IO18*%
%TO.N,GPIO18*%
X91400000Y-48460000D03*
%TO.P,U1,6,IO19*%
%TO.N,GPIO19*%
X91400000Y-45920000D03*
%TO.P,U1,7,IO20*%
%TO.N,GPIO20*%
X91400000Y-43380000D03*
%TO.P,U1,8,3V3*%
%TO.N,+3V3*%
X91400000Y-40840000D03*
%TO.P,U1,9,GND*%
%TO.N,GND*%
X91400000Y-38300000D03*
%TO.P,U1,10,5V*%
%TO.N,+5V*%
X91400000Y-35760000D03*
%TO.P,U1,11,IO7*%
%TO.N,SCL*%
X73950000Y-58620000D03*
%TO.P,U1,12,IO6*%
%TO.N,SDA*%
X73950000Y-56080000D03*
%TO.P,U1,13,IO5*%
%TO.N,RX*%
X73950000Y-53540000D03*
%TO.P,U1,14,IO4*%
%TO.N,TX*%
X73950000Y-51000000D03*
%TO.P,U1,15,IO3*%
%TO.N,GPIO3*%
X73950000Y-48460000D03*
%TO.P,U1,16,IO2*%
%TO.N,GPIO2*%
X73950000Y-45920000D03*
%TO.P,U1,17,IO1*%
%TO.N,GPIO1*%
X73950000Y-43380000D03*
%TO.P,U1,18,IO0*%
%TO.N,GPIO0*%
X73950000Y-40840000D03*
%TO.P,U1,19,RX*%
%TO.N,unconnected-(U1-RX-Pad19)*%
X73950000Y-38300000D03*
%TO.P,U1,20,TX*%
%TO.N,unconnected-(U1-TX-Pad20)*%
X73950000Y-35760000D03*
%TD*%
D11*
%TO.P,J4,1,Pin_1*%
%TO.N,GND*%
X95220000Y-84380000D03*
D12*
%TO.P,J4,2,Pin_2*%
%TO.N,+3V3*%
X97760000Y-84380000D03*
D11*
%TO.P,J4,3,Pin_3*%
%TO.N,SCL*%
X100300000Y-84380000D03*
%TO.P,J4,4,Pin_4*%
%TO.N,SDA*%
X102840000Y-84380000D03*
%TD*%
D12*
%TO.P,J7,1,Pin_1*%
%TO.N,GPIO0HV*%
X46990000Y-50800000D03*
D11*
%TO.P,J7,2,Pin_2*%
%TO.N,GPIO3HV*%
X44450000Y-50800000D03*
%TO.P,J7,3,Pin_3*%
%TO.N,GND*%
X41910000Y-50800000D03*
%TD*%
D12*
%TO.P,J6,1,Pin_1*%
%TO.N,Net-(J6-Pin_1)*%
X40000000Y-32000000D03*
D11*
%TO.P,J6,2,Pin_2*%
%TO.N,GND*%
X42540000Y-32000000D03*
%TD*%
%TO.P,J2,1,Pin_1*%
%TO.N,+3V3*%
X130810000Y-96520000D03*
D12*
%TO.P,J2,2,Pin_2*%
%TO.N,GND*%
X130810000Y-99060000D03*
D11*
%TO.P,J2,3,Pin_3*%
%TO.N,SCL*%
X130810000Y-101600000D03*
%TO.P,J2,4,Pin_4*%
%TO.N,SDA*%
X130810000Y-104140000D03*
%TD*%
%TO.P,J5,1,Pin_1*%
%TO.N,+3V3*%
X115460000Y-81730000D03*
D12*
%TO.P,J5,2,Pin_2*%
%TO.N,GND*%
X118000000Y-81730000D03*
D11*
%TO.P,J5,3,Pin_3*%
%TO.N,SCL*%
X120540000Y-81730000D03*
%TO.P,J5,4,Pin_4*%
%TO.N,SDA*%
X123080000Y-81730000D03*
%TD*%
%TO.P,J3,1,Pin_1*%
%TO.N,+3V3*%
X87860000Y-84420000D03*
%TO.P,J3,2,Pin_2*%
%TO.N,SDA*%
X85320000Y-84420000D03*
%TO.P,J3,3,Pin_3*%
%TO.N,SCL*%
X82780000Y-84420000D03*
D12*
%TO.P,J3,4,Pin_4*%
%TO.N,GND*%
X80240000Y-84420000D03*
%TD*%
D13*
%TO.P,J1,1,Pin_1*%
%TO.N,+5V*%
X40515000Y-102950000D03*
%TO.P,J1,2,Pin_2*%
X41765000Y-102950000D03*
%TO.P,J1,3,Pin_3*%
%TO.N,GND*%
X40515000Y-101700000D03*
%TO.P,J1,4,Pin_4*%
X41765000Y-101700000D03*
%TO.P,J1,5,Pin_5*%
%TO.N,GPIO2*%
X40515000Y-100450000D03*
%TO.P,J1,6,Pin_6*%
%TO.N,unconnected-(J1-Pin_6-Pad6)*%
X41765000Y-100450000D03*
%TO.P,J1,7,Pin_7*%
%TO.N,TX*%
X40515000Y-99200000D03*
%TO.P,J1,8,Pin_8*%
%TO.N,unconnected-(J1-Pin_8-Pad8)*%
X41765000Y-99200000D03*
%TO.P,J1,9,Pin_9*%
%TO.N,RX*%
X40515000Y-97950000D03*
%TO.P,J1,10,Pin_10*%
%TO.N,GPIO19*%
X41765000Y-97950000D03*
%TD*%
D14*
%TO.N,TX*%
X61200000Y-57800000D03*
%TO.N,RX*%
X61800000Y-58400000D03*
%TO.N,GPIO20*%
X95900000Y-45700000D03*
X101600000Y-53100000D03*
%TO.N,GND*%
X79400000Y-79700000D03*
X82000000Y-76900000D03*
X79600000Y-65000000D03*
X74000000Y-66900000D03*
X73900000Y-72000000D03*
X79000000Y-39000000D03*
X87000000Y-39000000D03*
X88300000Y-53500000D03*
X85100000Y-45500000D03*
X85200000Y-53500000D03*
D15*
%TO.N,+5V*%
X63912500Y-42000000D03*
X138500000Y-62000000D03*
X50800000Y-51600000D03*
X128500000Y-35500000D03*
X138500000Y-43000000D03*
X138500000Y-71500000D03*
X138500000Y-34000000D03*
X138500000Y-52500000D03*
D14*
%TO.N,GND*%
X45200000Y-35100000D03*
X69500000Y-52200000D03*
X64770000Y-60960000D03*
X54500000Y-35700000D03*
X100330000Y-46990000D03*
X39370000Y-101600000D03*
X67564000Y-38100000D03*
X43180000Y-101600000D03*
X44800000Y-41400000D03*
X79100000Y-53500000D03*
X53300000Y-56200000D03*
X51800000Y-42500000D03*
X95250000Y-52070000D03*
X44800000Y-43432000D03*
X79000000Y-45500000D03*
X51800000Y-35700000D03*
X96520000Y-49530000D03*
X64000000Y-47500000D03*
X51800000Y-40400000D03*
X124460000Y-48260000D03*
X95504000Y-38354000D03*
D16*
%TO.N,+3V3*%
X71120000Y-68580000D03*
X82550000Y-72390000D03*
X100330000Y-43180000D03*
X104140000Y-55880000D03*
D14*
%TO.N,GPIO19*%
X86700000Y-59900000D03*
X87900000Y-46000000D03*
X80010000Y-72390000D03*
X74930000Y-78740000D03*
%TO.N,GPIO2*%
X64770000Y-68580000D03*
X71000000Y-62000000D03*
X71000000Y-47000000D03*
X70912500Y-65000000D03*
%TO.N,GPIO15*%
X107000000Y-49500000D03*
X116500000Y-48000000D03*
%TD*%
D17*
%TO.N,TX*%
X39200000Y-99200000D02*
X40515000Y-99200000D01*
X61200000Y-57800000D02*
X38600000Y-80400000D01*
X38600000Y-80400000D02*
X38600000Y-98600000D01*
X38600000Y-98600000D02*
X39200000Y-99200000D01*
%TO.N,RX*%
X40265000Y-97700000D02*
X40515000Y-97950000D01*
X39400000Y-97700000D02*
X40265000Y-97700000D01*
X39400000Y-80800000D02*
X39400000Y-97700000D01*
X61800000Y-58400000D02*
X39400000Y-80800000D01*
%TO.N,GPIO20*%
X101600000Y-51400000D02*
X95900000Y-45700000D01*
X101600000Y-53100000D02*
X101600000Y-51400000D01*
D18*
%TO.N,+3V3*%
X126980000Y-96500000D02*
X130790000Y-96500000D01*
X130790000Y-96500000D02*
X130810000Y-96520000D01*
X115460000Y-84980000D02*
X126980000Y-96500000D01*
X115460000Y-81730000D02*
X115460000Y-84980000D01*
D19*
%TO.N,GPIO19*%
X87100000Y-52239892D02*
X87900000Y-51439892D01*
X87100000Y-59500000D02*
X87100000Y-52239892D01*
X86700000Y-59900000D02*
X87100000Y-59500000D01*
X87900000Y-51439892D02*
X87900000Y-46000000D01*
D20*
%TO.N,+5V*%
X138500000Y-34000000D02*
X138500000Y-43000000D01*
X138500000Y-62000000D02*
X138500000Y-71500000D01*
X63912500Y-42000000D02*
X60200000Y-42000000D01*
X50800000Y-51400000D02*
X50800000Y-51600000D01*
X138500000Y-52500000D02*
X138500000Y-62000000D01*
X137000000Y-35500000D02*
X138500000Y-34000000D01*
X138500000Y-43000000D02*
X138500000Y-52500000D01*
X128500000Y-35500000D02*
X137000000Y-35500000D01*
X60200000Y-42000000D02*
X50800000Y-51400000D01*
D18*
%TO.N,+3V3*%
X97760000Y-82580000D02*
X100330000Y-80010000D01*
X91070000Y-87630000D02*
X96520000Y-87630000D01*
X96520000Y-87630000D02*
X97790000Y-86360000D01*
X78740000Y-68580000D02*
X82550000Y-72390000D01*
X87860000Y-84420000D02*
X87860000Y-77700000D01*
X87860000Y-77700000D02*
X82550000Y-72390000D01*
X71120000Y-68580000D02*
X78740000Y-68580000D01*
X97760000Y-84380000D02*
X97760000Y-82580000D01*
X104140000Y-55880000D02*
X104140000Y-46990000D01*
X87860000Y-84420000D02*
X91070000Y-87630000D01*
X113740000Y-80010000D02*
X115460000Y-81730000D01*
X97790000Y-86360000D02*
X97760000Y-86330000D01*
X97760000Y-86330000D02*
X97760000Y-84380000D01*
X104140000Y-46990000D02*
X100330000Y-43180000D01*
X100330000Y-80010000D02*
X113740000Y-80010000D01*
D19*
%TO.N,GPIO19*%
X74930000Y-77470000D02*
X80010000Y-72390000D01*
X74930000Y-78740000D02*
X74930000Y-77470000D01*
%TO.N,GPIO2*%
X71000000Y-62000000D02*
X71000000Y-47000000D01*
X64770000Y-68580000D02*
X67332500Y-68580000D01*
X67332500Y-68580000D02*
X70912500Y-65000000D01*
D17*
%TO.N,GPIO15*%
X107000000Y-49500000D02*
X115000000Y-49500000D01*
X106680000Y-49500000D02*
X107000000Y-49500000D01*
X115000000Y-49500000D02*
X116500000Y-48000000D01*
%TD*%
%TA.AperFunction,Conductor*%
%TO.N,GND*%
G36*
X41052152Y-101334778D02*
G01*
X41087805Y-101394866D01*
X41085312Y-101464691D01*
X41055338Y-101513214D01*
X40868553Y-101699999D01*
X40868553Y-101700000D01*
X41055338Y-101886785D01*
X41088823Y-101948108D01*
X41083839Y-102017799D01*
X41041968Y-102073733D01*
X40976503Y-102098150D01*
X40920204Y-102089027D01*
X40792251Y-102036027D01*
X40792243Y-102036025D01*
X40608620Y-101999500D01*
X40608616Y-101999500D01*
X40602632Y-101999500D01*
X40642164Y-101959968D01*
X40665000Y-101904837D01*
X40665000Y-101495163D01*
X40642164Y-101440032D01*
X40602632Y-101400500D01*
X40608617Y-101400500D01*
X40608618Y-101400499D01*
X40792251Y-101363973D01*
X40920206Y-101310971D01*
X40989673Y-101303503D01*
X41052152Y-101334778D01*
G37*
%TD.AperFunction*%
%TA.AperFunction,Conductor*%
G36*
X41316291Y-101303923D02*
G01*
X41325598Y-101302244D01*
X41359796Y-101310973D01*
X41487749Y-101363973D01*
X41643060Y-101394866D01*
X41671379Y-101400499D01*
X41671383Y-101400500D01*
X41733956Y-101400500D01*
X41680032Y-101422836D01*
X41637836Y-101465032D01*
X41615000Y-101520163D01*
X41615000Y-101879837D01*
X41637836Y-101934968D01*
X41680032Y-101977164D01*
X41733956Y-101999500D01*
X41671379Y-101999500D01*
X41487756Y-102036025D01*
X41487744Y-102036028D01*
X41359794Y-102089027D01*
X41290325Y-102096496D01*
X41227846Y-102065221D01*
X41192194Y-102005132D01*
X41194688Y-101935306D01*
X41224661Y-101886785D01*
X41411446Y-101700000D01*
X41411446Y-101699999D01*
X41224662Y-101513215D01*
X41219261Y-101503325D01*
X41210487Y-101496254D01*
X41202816Y-101473208D01*
X41191177Y-101451892D01*
X41191980Y-101440652D01*
X41188422Y-101429960D01*
X41194428Y-101406426D01*
X41196161Y-101382200D01*
X41202914Y-101373178D01*
X41205701Y-101362261D01*
X41223477Y-101345709D01*
X41238033Y-101326267D01*
X41248589Y-101322329D01*
X41256838Y-101314650D01*
X41280742Y-101310337D01*
X41303497Y-101301850D01*
X41316291Y-101303923D01*
G37*
%TD.AperFunction*%
%TA.AperFunction,Conductor*%
G36*
X75943039Y-29229685D02*
G01*
X75988794Y-29282489D01*
X76000000Y-29334000D01*
X76000000Y-32000000D01*
X77985999Y-33585999D01*
X87354884Y-33545116D01*
X89000000Y-32000000D01*
X89000000Y-31893713D01*
X114149500Y-31893713D01*
X114149500Y-32106286D01*
X114182735Y-32316127D01*
X114182754Y-32316243D01*
X114222562Y-32438760D01*
X114248444Y-32518414D01*
X114344951Y-32707820D01*
X114469890Y-32879786D01*
X114620213Y-33030109D01*
X114792179Y-33155048D01*
X114792181Y-33155049D01*
X114792184Y-33155051D01*
X114981588Y-33251557D01*
X115183757Y-33317246D01*
X115393713Y-33350500D01*
X115393714Y-33350500D01*
X115606286Y-33350500D01*
X115606287Y-33350500D01*
X115816243Y-33317246D01*
X116018412Y-33251557D01*
X116207816Y-33155051D01*
X116294138Y-33092335D01*
X116379786Y-33030109D01*
X116379788Y-33030106D01*
X116379792Y-33030104D01*
X116530104Y-32879792D01*
X116530106Y-32879788D01*
X116530109Y-32879786D01*
X116655048Y-32707820D01*
X116655047Y-32707820D01*
X116655051Y-32707816D01*
X116751557Y-32518412D01*
X116817246Y-32316243D01*
X116850500Y-32106287D01*
X116850500Y-31893713D01*
X116817246Y-31683757D01*
X116751557Y-31481588D01*
X116655051Y-31292184D01*
X116655049Y-31292181D01*
X116655048Y-31292179D01*
X116530109Y-31120213D01*
X116379786Y-30969890D01*
X116207820Y-30844951D01*
X116018414Y-30748444D01*
X116018413Y-30748443D01*
X116018412Y-30748443D01*
X115816243Y-30682754D01*
X115816241Y-30682753D01*
X115816240Y-30682753D01*
X115654957Y-30657208D01*
X115606287Y-30649500D01*
X115393713Y-30649500D01*
X115345042Y-30657208D01*
X115183760Y-30682753D01*
X114981585Y-30748444D01*
X114792179Y-30844951D01*
X114620213Y-30969890D01*
X114469890Y-31120213D01*
X114344951Y-31292179D01*
X114248444Y-31481585D01*
X114182753Y-31683760D01*
X114149500Y-31893713D01*
X89000000Y-31893713D01*
X89000000Y-29334000D01*
X89019685Y-29266961D01*
X89072489Y-29221206D01*
X89124000Y-29210000D01*
X145326000Y-29210000D01*
X145393039Y-29229685D01*
X145438794Y-29282489D01*
X145450000Y-29334000D01*
X145450000Y-107826000D01*
X145430315Y-107893039D01*
X145377511Y-107938794D01*
X145326000Y-107950000D01*
X73060000Y-107950000D01*
X36354000Y-107950000D01*
X36286961Y-107930315D01*
X36241206Y-107877511D01*
X36230000Y-107826000D01*
X36230000Y-104893713D01*
X75149500Y-104893713D01*
X75149500Y-105106287D01*
X75182754Y-105316243D01*
X75207224Y-105391555D01*
X75248444Y-105518414D01*
X75344951Y-105707820D01*
X75469890Y-105879786D01*
X75620213Y-106030109D01*
X75792179Y-106155048D01*
X75792181Y-106155049D01*
X75792184Y-106155051D01*
X75981588Y-106251557D01*
X76183757Y-106317246D01*
X76393713Y-106350500D01*
X76393714Y-106350500D01*
X76606286Y-106350500D01*
X76606287Y-106350500D01*
X76816243Y-106317246D01*
X77018412Y-106251557D01*
X77207816Y-106155051D01*
X77229789Y-106139086D01*
X77379786Y-106030109D01*
X77379788Y-106030106D01*
X77379792Y-106030104D01*
X77530104Y-105879792D01*
X77530106Y-105879788D01*
X77530109Y-105879786D01*
X77655048Y-105707820D01*
X77655047Y-105707820D01*
X77655051Y-105707816D01*
X77751557Y-105518412D01*
X77817246Y-105316243D01*
X77850500Y-105106287D01*
X77850500Y-104893713D01*
X117649500Y-104893713D01*
X117649500Y-105106287D01*
X117682754Y-105316243D01*
X117707224Y-105391555D01*
X117748444Y-105518414D01*
X117844951Y-105707820D01*
X117969890Y-105879786D01*
X118120213Y-106030109D01*
X118292179Y-106155048D01*
X118292181Y-106155049D01*
X118292184Y-106155051D01*
X118481588Y-106251557D01*
X118683757Y-106317246D01*
X118893713Y-106350500D01*
X118893714Y-106350500D01*
X119106286Y-106350500D01*
X119106287Y-106350500D01*
X119316243Y-106317246D01*
X119518412Y-106251557D01*
X119707816Y-106155051D01*
X119729789Y-106139086D01*
X119879786Y-106030109D01*
X119879788Y-106030106D01*
X119879792Y-106030104D01*
X120030104Y-105879792D01*
X120030106Y-105879788D01*
X120030109Y-105879786D01*
X120155048Y-105707820D01*
X120155047Y-105707820D01*
X120155051Y-105707816D01*
X120251557Y-105518412D01*
X120317246Y-105316243D01*
X120350500Y-105106287D01*
X120350500Y-104893713D01*
X120317246Y-104683757D01*
X120251557Y-104481588D01*
X120155051Y-104292184D01*
X120155049Y-104292181D01*
X120155048Y-104292179D01*
X120030109Y-104120213D01*
X119879786Y-103969890D01*
X119707820Y-103844951D01*
X119518414Y-103748444D01*
X119518413Y-103748443D01*
X119518412Y-103748443D01*
X119316243Y-103682754D01*
X119316241Y-103682753D01*
X119316240Y-103682753D01*
X119154957Y-103657208D01*
X119106287Y-103649500D01*
X118893713Y-103649500D01*
X118845042Y-103657208D01*
X118683760Y-103682753D01*
X118481585Y-103748444D01*
X118292179Y-103844951D01*
X118120213Y-103969890D01*
X117969890Y-104120213D01*
X117844951Y-104292179D01*
X117748444Y-104481585D01*
X117682753Y-104683760D01*
X117656769Y-104847816D01*
X117649500Y-104893713D01*
X77850500Y-104893713D01*
X77817246Y-104683757D01*
X77751557Y-104481588D01*
X77655051Y-104292184D01*
X77655049Y-104292181D01*
X77655048Y-104292179D01*
X77530109Y-104120213D01*
X77379786Y-103969890D01*
X77207820Y-103844951D01*
X77018414Y-103748444D01*
X77018413Y-103748443D01*
X77018412Y-103748443D01*
X76816243Y-103682754D01*
X76816241Y-103682753D01*
X76816240Y-103682753D01*
X76654957Y-103657208D01*
X76606287Y-103649500D01*
X76393713Y-103649500D01*
X76345042Y-103657208D01*
X76183760Y-103682753D01*
X75981585Y-103748444D01*
X75792179Y-103844951D01*
X75620213Y-103969890D01*
X75469890Y-104120213D01*
X75344951Y-104292179D01*
X75248444Y-104481585D01*
X75182753Y-104683760D01*
X75156769Y-104847816D01*
X75149500Y-104893713D01*
X36230000Y-104893713D01*
X36230000Y-80335928D01*
X37949500Y-80335928D01*
X37949500Y-80335931D01*
X37949500Y-98664069D01*
X37966547Y-98749769D01*
X37966693Y-98750500D01*
X37966693Y-98750502D01*
X37974497Y-98789737D01*
X37974499Y-98789744D01*
X38023535Y-98908127D01*
X38033305Y-98922749D01*
X38094726Y-99014673D01*
X38094727Y-99014674D01*
X38694724Y-99614669D01*
X38785331Y-99705276D01*
X38785332Y-99705277D01*
X38891866Y-99776461D01*
X38891872Y-99776464D01*
X38891873Y-99776465D01*
X39010256Y-99825501D01*
X39010260Y-99825501D01*
X39010261Y-99825502D01*
X39135928Y-99850500D01*
X39135931Y-99850500D01*
X39499259Y-99850500D01*
X39504203Y-99851368D01*
X39506971Y-99850740D01*
X39541526Y-99857926D01*
X39584709Y-99873583D01*
X39641024Y-99914940D01*
X39666040Y-99980177D01*
X39657003Y-100037609D01*
X39601028Y-100172744D01*
X39601025Y-100172756D01*
X39564500Y-100356379D01*
X39564500Y-100543620D01*
X39601025Y-100727243D01*
X39601027Y-100727251D01*
X39672676Y-100900228D01*
X39672684Y-100900242D01*
X39743723Y-101006560D01*
X39764601Y-101073237D01*
X39746116Y-101140617D01*
X39743723Y-101144340D01*
X39673127Y-101249994D01*
X39673119Y-101250008D01*
X39601508Y-101422894D01*
X39601506Y-101422902D01*
X39565000Y-101606428D01*
X39565000Y-101793571D01*
X39601506Y-101977097D01*
X39601508Y-101977105D01*
X39673119Y-102149991D01*
X39673127Y-102150005D01*
X39743723Y-102255660D01*
X39764601Y-102322337D01*
X39746116Y-102389717D01*
X39743723Y-102393440D01*
X39672684Y-102499757D01*
X39672676Y-102499771D01*
X39601027Y-102672748D01*
X39601025Y-102672756D01*
X39564500Y-102856379D01*
X39564500Y-103043620D01*
X39601025Y-103227243D01*
X39601027Y-103227251D01*
X39672676Y-103400228D01*
X39672681Y-103400237D01*
X39776697Y-103555907D01*
X39776700Y-103555911D01*
X39909088Y-103688299D01*
X39909092Y-103688302D01*
X40064762Y-103792318D01*
X40064768Y-103792321D01*
X40064769Y-103792322D01*
X40237749Y-103863973D01*
X40421379Y-103900499D01*
X40421383Y-103900500D01*
X40421384Y-103900500D01*
X40608617Y-103900500D01*
X40608618Y-103900499D01*
X40792251Y-103863973D01*
X40965231Y-103792322D01*
X41030901Y-103748443D01*
X41071109Y-103721577D01*
X41137787Y-103700699D01*
X41205167Y-103719183D01*
X41208891Y-103721577D01*
X41314762Y-103792318D01*
X41314768Y-103792321D01*
X41314769Y-103792322D01*
X41487749Y-103863973D01*
X41671379Y-103900499D01*
X41671383Y-103900500D01*
X41671384Y-103900500D01*
X41858617Y-103900500D01*
X41858618Y-103900499D01*
X42042251Y-103863973D01*
X42215231Y-103792322D01*
X42370908Y-103688302D01*
X42503302Y-103555908D01*
X42607322Y-103400231D01*
X42678973Y-103227251D01*
X42715500Y-103043616D01*
X42715500Y-102856384D01*
X42678973Y-102672749D01*
X42607322Y-102499769D01*
X42536274Y-102393439D01*
X42515397Y-102326763D01*
X42533881Y-102259383D01*
X42536276Y-102255657D01*
X42606874Y-102150001D01*
X42606880Y-102149991D01*
X42678491Y-101977105D01*
X42678493Y-101977097D01*
X42714999Y-101793571D01*
X42715000Y-101793569D01*
X42715000Y-101606430D01*
X42714999Y-101606428D01*
X42696422Y-101513032D01*
X42678493Y-101422902D01*
X42678491Y-101422894D01*
X42606880Y-101250008D01*
X42606875Y-101250000D01*
X42536275Y-101144340D01*
X42515397Y-101077663D01*
X42533881Y-101010283D01*
X42536243Y-101006606D01*
X42607322Y-100900231D01*
X42678973Y-100727251D01*
X42715500Y-100543616D01*
X42715500Y-100356384D01*
X42678973Y-100172749D01*
X42614616Y-100017379D01*
X42607323Y-99999771D01*
X42607318Y-99999762D01*
X42536577Y-99893891D01*
X42515699Y-99827213D01*
X42534183Y-99759833D01*
X42536577Y-99756109D01*
X42607318Y-99650237D01*
X42607318Y-99650236D01*
X42607322Y-99650231D01*
X42678973Y-99477251D01*
X42715500Y-99293616D01*
X42715500Y-99106384D01*
X42678973Y-98922749D01*
X42623554Y-98788956D01*
X42607323Y-98749771D01*
X42607318Y-98749762D01*
X42536577Y-98643891D01*
X42515699Y-98577213D01*
X42534183Y-98509833D01*
X42536577Y-98506109D01*
X42607318Y-98400237D01*
X42607318Y-98400236D01*
X42607322Y-98400231D01*
X42678973Y-98227251D01*
X42715500Y-98043616D01*
X42715500Y-97856384D01*
X42678973Y-97672749D01*
X42607322Y-97499769D01*
X42607321Y-97499768D01*
X42607318Y-97499762D01*
X42503302Y-97344092D01*
X42503299Y-97344088D01*
X42370911Y-97211700D01*
X42370907Y-97211697D01*
X42215237Y-97107681D01*
X42215228Y-97107676D01*
X42042251Y-97036027D01*
X42042243Y-97036025D01*
X41858620Y-96999500D01*
X41858616Y-96999500D01*
X41671384Y-96999500D01*
X41671379Y-96999500D01*
X41487756Y-97036025D01*
X41487748Y-97036027D01*
X41314771Y-97107676D01*
X41314764Y-97107680D01*
X41208890Y-97178423D01*
X41142213Y-97199300D01*
X41074833Y-97180815D01*
X41071110Y-97178423D01*
X40965235Y-97107680D01*
X40965228Y-97107676D01*
X40792251Y-97036027D01*
X40792243Y-97036025D01*
X40608620Y-96999500D01*
X40608616Y-96999500D01*
X40421384Y-96999500D01*
X40421382Y-96999500D01*
X40407667Y-97002228D01*
X40390432Y-97004415D01*
X40181452Y-97016150D01*
X40113414Y-97000255D01*
X40064771Y-96950099D01*
X40050500Y-96892345D01*
X40050500Y-81120807D01*
X40070185Y-81053768D01*
X40086814Y-81033131D01*
X52618791Y-68501153D01*
X63969500Y-68501153D01*
X63969500Y-68658846D01*
X64000261Y-68813489D01*
X64000264Y-68813501D01*
X64060602Y-68959172D01*
X64060609Y-68959185D01*
X64148210Y-69090288D01*
X64148213Y-69090292D01*
X64259707Y-69201786D01*
X64259711Y-69201789D01*
X64390814Y-69289390D01*
X64390827Y-69289397D01*
X64536498Y-69349735D01*
X64536503Y-69349737D01*
X64678635Y-69378009D01*
X64691153Y-69380499D01*
X64691156Y-69380500D01*
X64691158Y-69380500D01*
X64848844Y-69380500D01*
X64848845Y-69380499D01*
X65003497Y-69349737D01*
X65149179Y-69289394D01*
X65164045Y-69279461D01*
X65280875Y-69201398D01*
X65347553Y-69180520D01*
X65349766Y-69180500D01*
X67245831Y-69180500D01*
X67245847Y-69180501D01*
X67253443Y-69180501D01*
X67411554Y-69180501D01*
X67411557Y-69180501D01*
X67564285Y-69139577D01*
X67614404Y-69110639D01*
X67701216Y-69060520D01*
X67813020Y-68948716D01*
X67813020Y-68948714D01*
X67823228Y-68938507D01*
X67823229Y-68938504D01*
X68270429Y-68491304D01*
X70219500Y-68491304D01*
X70219500Y-68668695D01*
X70254103Y-68842658D01*
X70254106Y-68842667D01*
X70321983Y-69006540D01*
X70321990Y-69006553D01*
X70420535Y-69154034D01*
X70420538Y-69154038D01*
X70545961Y-69279461D01*
X70545965Y-69279464D01*
X70693446Y-69378009D01*
X70693459Y-69378016D01*
X70816363Y-69428923D01*
X70857334Y-69445894D01*
X70857336Y-69445894D01*
X70857341Y-69445896D01*
X71031304Y-69480499D01*
X71031307Y-69480500D01*
X71031309Y-69480500D01*
X78315638Y-69480500D01*
X78382677Y-69500185D01*
X78403319Y-69516819D01*
X80283087Y-71396586D01*
X80316572Y-71457909D01*
X80311588Y-71527601D01*
X80269716Y-71583534D01*
X80204252Y-71607951D01*
X80171215Y-71605884D01*
X80088846Y-71589500D01*
X80088842Y-71589500D01*
X79931158Y-71589500D01*
X79931155Y-71589500D01*
X79776510Y-71620261D01*
X79776498Y-71620264D01*
X79630827Y-71680602D01*
X79630814Y-71680609D01*
X79499711Y-71768210D01*
X79499707Y-71768213D01*
X79388213Y-71879707D01*
X79388210Y-71879711D01*
X79300609Y-72010814D01*
X79300602Y-72010827D01*
X79240264Y-72156498D01*
X79240261Y-72156508D01*
X79209361Y-72311850D01*
X79176976Y-72373761D01*
X79175425Y-72375339D01*
X74563621Y-76987142D01*
X74563612Y-76987151D01*
X74561286Y-76989478D01*
X74561284Y-76989480D01*
X74449480Y-77101284D01*
X74435231Y-77125965D01*
X74370423Y-77238215D01*
X74329499Y-77390943D01*
X74329499Y-77390945D01*
X74329499Y-77559046D01*
X74329500Y-77559059D01*
X74329500Y-78160234D01*
X74309815Y-78227273D01*
X74308602Y-78229125D01*
X74220609Y-78360814D01*
X74220602Y-78360827D01*
X74160264Y-78506498D01*
X74160261Y-78506510D01*
X74129500Y-78661153D01*
X74129500Y-78818846D01*
X74160261Y-78973489D01*
X74160264Y-78973501D01*
X74220602Y-79119172D01*
X74220609Y-79119185D01*
X74308210Y-79250288D01*
X74308213Y-79250292D01*
X74419707Y-79361786D01*
X74419711Y-79361789D01*
X74550814Y-79449390D01*
X74550827Y-79449397D01*
X74696498Y-79509735D01*
X74696503Y-79509737D01*
X74851153Y-79540499D01*
X74851156Y-79540500D01*
X74851158Y-79540500D01*
X75008844Y-79540500D01*
X75008845Y-79540499D01*
X75163497Y-79509737D01*
X75309179Y-79449394D01*
X75440289Y-79361789D01*
X75551789Y-79250289D01*
X75639394Y-79119179D01*
X75699737Y-78973497D01*
X75730500Y-78818842D01*
X75730500Y-78661158D01*
X75730500Y-78661155D01*
X75730499Y-78661153D01*
X75699738Y-78506510D01*
X75699737Y-78506503D01*
X75699735Y-78506498D01*
X75639397Y-78360827D01*
X75639390Y-78360814D01*
X75551398Y-78229125D01*
X75530520Y-78162447D01*
X75530500Y-78160234D01*
X75530500Y-77770097D01*
X75550185Y-77703058D01*
X75566819Y-77682416D01*
X76262093Y-76987142D01*
X80024662Y-73224572D01*
X80085983Y-73191089D01*
X80088150Y-73190638D01*
X80146085Y-73179113D01*
X80243497Y-73159737D01*
X80389179Y-73099394D01*
X80520289Y-73011789D01*
X80631789Y-72900289D01*
X80719394Y-72769179D01*
X80779737Y-72623497D01*
X80810500Y-72468842D01*
X80810500Y-72311158D01*
X80810500Y-72311155D01*
X80794115Y-72228785D01*
X80800342Y-72159193D01*
X80843205Y-72104016D01*
X80909094Y-72080771D01*
X80977091Y-72096839D01*
X81003413Y-72116912D01*
X81846195Y-72959694D01*
X81846216Y-72959717D01*
X86923181Y-78036681D01*
X86956666Y-78098004D01*
X86959500Y-78124362D01*
X86959500Y-83359242D01*
X86939815Y-83426281D01*
X86923181Y-83446923D01*
X86829894Y-83540209D01*
X86829890Y-83540213D01*
X86704949Y-83712182D01*
X86700484Y-83720946D01*
X86652509Y-83771742D01*
X86584688Y-83788536D01*
X86518553Y-83765998D01*
X86479516Y-83720946D01*
X86475050Y-83712182D01*
X86350109Y-83540213D01*
X86199786Y-83389890D01*
X86027820Y-83264951D01*
X85838414Y-83168444D01*
X85838413Y-83168443D01*
X85838412Y-83168443D01*
X85636243Y-83102754D01*
X85636241Y-83102753D01*
X85636240Y-83102753D01*
X85474957Y-83077208D01*
X85426287Y-83069500D01*
X85213713Y-83069500D01*
X85165042Y-83077208D01*
X85003760Y-83102753D01*
X84801585Y-83168444D01*
X84612179Y-83264951D01*
X84440213Y-83389890D01*
X84289890Y-83540213D01*
X84164949Y-83712182D01*
X84160484Y-83720946D01*
X84112509Y-83771742D01*
X84044688Y-83788536D01*
X83978553Y-83765998D01*
X83939516Y-83720946D01*
X83935050Y-83712182D01*
X83810109Y-83540213D01*
X83659786Y-83389890D01*
X83487820Y-83264951D01*
X83298414Y-83168444D01*
X83298413Y-83168443D01*
X83298412Y-83168443D01*
X83096243Y-83102754D01*
X83096241Y-83102753D01*
X83096240Y-83102753D01*
X82934957Y-83077208D01*
X82886287Y-83069500D01*
X82673713Y-83069500D01*
X82625042Y-83077208D01*
X82463760Y-83102753D01*
X82261585Y-83168444D01*
X82072179Y-83264951D01*
X81900215Y-83389889D01*
X81786285Y-83503819D01*
X81724962Y-83537303D01*
X81655270Y-83532319D01*
X81599337Y-83490447D01*
X81582422Y-83459470D01*
X81533354Y-83327913D01*
X81533350Y-83327906D01*
X81447190Y-83212812D01*
X81447187Y-83212809D01*
X81332093Y-83126649D01*
X81332086Y-83126645D01*
X81197379Y-83076403D01*
X81197372Y-83076401D01*
X81137844Y-83070000D01*
X80490000Y-83070000D01*
X80490000Y-83986988D01*
X80432993Y-83954075D01*
X80305826Y-83920000D01*
X80174174Y-83920000D01*
X80047007Y-83954075D01*
X79990000Y-83986988D01*
X79990000Y-83070000D01*
X79342155Y-83070000D01*
X79282627Y-83076401D01*
X79282620Y-83076403D01*
X79147913Y-83126645D01*
X79147906Y-83126649D01*
X79032812Y-83212809D01*
X79032809Y-83212812D01*
X78946649Y-83327906D01*
X78946645Y-83327913D01*
X78896403Y-83462620D01*
X78896401Y-83462627D01*
X78890000Y-83522155D01*
X78890000Y-84170000D01*
X79806988Y-84170000D01*
X79774075Y-84227007D01*
X79740000Y-84354174D01*
X79740000Y-84485826D01*
X79774075Y-84612993D01*
X79806988Y-84670000D01*
X78890000Y-84670000D01*
X78890000Y-85317844D01*
X78896401Y-85377372D01*
X78896403Y-85377379D01*
X78946645Y-85512086D01*
X78946649Y-85512093D01*
X79032809Y-85627187D01*
X79032812Y-85627190D01*
X79147906Y-85713350D01*
X79147913Y-85713354D01*
X79282620Y-85763596D01*
X79282627Y-85763598D01*
X79342155Y-85769999D01*
X79342172Y-85770000D01*
X79990000Y-85770000D01*
X79990000Y-84853012D01*
X80047007Y-84885925D01*
X80174174Y-84920000D01*
X80305826Y-84920000D01*
X80432993Y-84885925D01*
X80490000Y-84853012D01*
X80490000Y-85770000D01*
X81137828Y-85770000D01*
X81137844Y-85769999D01*
X81197372Y-85763598D01*
X81197379Y-85763596D01*
X81332086Y-85713354D01*
X81332093Y-85713350D01*
X81447187Y-85627190D01*
X81447190Y-85627187D01*
X81533350Y-85512093D01*
X81533354Y-85512086D01*
X81582422Y-85380529D01*
X81624293Y-85324595D01*
X81689757Y-85300178D01*
X81758030Y-85315030D01*
X81786285Y-85336181D01*
X81900213Y-85450109D01*
X82072179Y-85575048D01*
X82072181Y-85575049D01*
X82072184Y-85575051D01*
X82261588Y-85671557D01*
X82463757Y-85737246D01*
X82673713Y-85770500D01*
X82673714Y-85770500D01*
X82886286Y-85770500D01*
X82886287Y-85770500D01*
X83096243Y-85737246D01*
X83298412Y-85671557D01*
X83487816Y-85575051D01*
X83516741Y-85554036D01*
X83659786Y-85450109D01*
X83659788Y-85450106D01*
X83659792Y-85450104D01*
X83810104Y-85299792D01*
X83810106Y-85299788D01*
X83810109Y-85299786D01*
X83935048Y-85127820D01*
X83935047Y-85127820D01*
X83935051Y-85127816D01*
X83939514Y-85119054D01*
X83987488Y-85068259D01*
X84055308Y-85051463D01*
X84121444Y-85073999D01*
X84160486Y-85119056D01*
X84164951Y-85127820D01*
X84289890Y-85299786D01*
X84440213Y-85450109D01*
X84612179Y-85575048D01*
X84612181Y-85575049D01*
X84612184Y-85575051D01*
X84801588Y-85671557D01*
X85003757Y-85737246D01*
X85213713Y-85770500D01*
X85213714Y-85770500D01*
X85426286Y-85770500D01*
X85426287Y-85770500D01*
X85636243Y-85737246D01*
X85838412Y-85671557D01*
X86027816Y-85575051D01*
X86056741Y-85554036D01*
X86199786Y-85450109D01*
X86199788Y-85450106D01*
X86199792Y-85450104D01*
X86350104Y-85299792D01*
X86350106Y-85299788D01*
X86350109Y-85299786D01*
X86475048Y-85127820D01*
X86475047Y-85127820D01*
X86475051Y-85127816D01*
X86479514Y-85119054D01*
X86527488Y-85068259D01*
X86595308Y-85051463D01*
X86661444Y-85073999D01*
X86700486Y-85119056D01*
X86704951Y-85127820D01*
X86829890Y-85299786D01*
X86980213Y-85450109D01*
X87152179Y-85575048D01*
X87152181Y-85575049D01*
X87152184Y-85575051D01*
X87341588Y-85671557D01*
X87543757Y-85737246D01*
X87753713Y-85770500D01*
X87885638Y-85770500D01*
X87952677Y-85790185D01*
X87973319Y-85806819D01*
X90370536Y-88204035D01*
X90495965Y-88329464D01*
X90643453Y-88428013D01*
X90691452Y-88447895D01*
X90807334Y-88495895D01*
X90981304Y-88530499D01*
X90981308Y-88530500D01*
X90981309Y-88530500D01*
X96608693Y-88530500D01*
X96608694Y-88530499D01*
X96782666Y-88495895D01*
X96864606Y-88461953D01*
X96946547Y-88428013D01*
X97034959Y-88368936D01*
X97094036Y-88329464D01*
X98489464Y-86934036D01*
X98588012Y-86786547D01*
X98655895Y-86622666D01*
X98690500Y-86448692D01*
X98690500Y-86271308D01*
X98662883Y-86132465D01*
X98660500Y-86108274D01*
X98660500Y-85831439D01*
X98680185Y-85764400D01*
X98732989Y-85718645D01*
X98741168Y-85715257D01*
X98852326Y-85673798D01*
X98852326Y-85673797D01*
X98852331Y-85673796D01*
X98967546Y-85587546D01*
X99053796Y-85472331D01*
X99102810Y-85340916D01*
X99144681Y-85284984D01*
X99210145Y-85260566D01*
X99278418Y-85275417D01*
X99306673Y-85296569D01*
X99420213Y-85410109D01*
X99592179Y-85535048D01*
X99592181Y-85535049D01*
X99592184Y-85535051D01*
X99781588Y-85631557D01*
X99983757Y-85697246D01*
X100193713Y-85730500D01*
X100193714Y-85730500D01*
X100406286Y-85730500D01*
X100406287Y-85730500D01*
X100616243Y-85697246D01*
X100818412Y-85631557D01*
X101007816Y-85535051D01*
X101062572Y-85495269D01*
X101179786Y-85410109D01*
X101179788Y-85410106D01*
X101179792Y-85410104D01*
X101330104Y-85259792D01*
X101330106Y-85259788D01*
X101330109Y-85259786D01*
X101455048Y-85087820D01*
X101455047Y-85087820D01*
X101455051Y-85087816D01*
X101459514Y-85079054D01*
X101507488Y-85028259D01*
X101575308Y-85011463D01*
X101641444Y-85033999D01*
X101680486Y-85079056D01*
X101684951Y-85087820D01*
X101809890Y-85259786D01*
X101960213Y-85410109D01*
X102132179Y-85535048D01*
X102132181Y-85535049D01*
X102132184Y-85535051D01*
X102321588Y-85631557D01*
X102523757Y-85697246D01*
X102733713Y-85730500D01*
X102733714Y-85730500D01*
X102946286Y-85730500D01*
X102946287Y-85730500D01*
X103156243Y-85697246D01*
X103358412Y-85631557D01*
X103547816Y-85535051D01*
X103602572Y-85495269D01*
X103719786Y-85410109D01*
X103719788Y-85410106D01*
X103719792Y-85410104D01*
X103870104Y-85259792D01*
X103870106Y-85259788D01*
X103870109Y-85259786D01*
X103995048Y-85087820D01*
X103995047Y-85087820D01*
X103995051Y-85087816D01*
X104091557Y-84898412D01*
X104157246Y-84696243D01*
X104190500Y-84486287D01*
X104190500Y-84273713D01*
X104157246Y-84063757D01*
X104091557Y-83861588D01*
X103995051Y-83672184D01*
X103995049Y-83672181D01*
X103995048Y-83672179D01*
X103870109Y-83500213D01*
X103719786Y-83349890D01*
X103547820Y-83224951D01*
X103358414Y-83128444D01*
X103358413Y-83128443D01*
X103358412Y-83128443D01*
X103156243Y-83062754D01*
X103156241Y-83062753D01*
X103156240Y-83062753D01*
X102994957Y-83037208D01*
X102946287Y-83029500D01*
X102733713Y-83029500D01*
X102685042Y-83037208D01*
X102523760Y-83062753D01*
X102321585Y-83128444D01*
X102132179Y-83224951D01*
X101960213Y-83349890D01*
X101809890Y-83500213D01*
X101684949Y-83672182D01*
X101680484Y-83680946D01*
X101632509Y-83731742D01*
X101564688Y-83748536D01*
X101498553Y-83725998D01*
X101459516Y-83680946D01*
X101455050Y-83672182D01*
X101330109Y-83500213D01*
X101179786Y-83349890D01*
X101007820Y-83224951D01*
X100818414Y-83128444D01*
X100818413Y-83128443D01*
X100818412Y-83128443D01*
X100616243Y-83062754D01*
X100616241Y-83062753D01*
X100616240Y-83062753D01*
X100454957Y-83037208D01*
X100406287Y-83029500D01*
X100193713Y-83029500D01*
X100145042Y-83037208D01*
X99983760Y-83062753D01*
X99781585Y-83128444D01*
X99592179Y-83224951D01*
X99420215Y-83349889D01*
X99306673Y-83463431D01*
X99245350Y-83496915D01*
X99175658Y-83491931D01*
X99119725Y-83450059D01*
X99102810Y-83419082D01*
X99053797Y-83287671D01*
X99053793Y-83287664D01*
X98967547Y-83172455D01*
X98967544Y-83172452D01*
X98852335Y-83086206D01*
X98852328Y-83086202D01*
X98796376Y-83065334D01*
X98740443Y-83023463D01*
X98716025Y-82957999D01*
X98730876Y-82889726D01*
X98752025Y-82861474D01*
X100666681Y-80946819D01*
X100728004Y-80913334D01*
X100754362Y-80910500D01*
X113315638Y-80910500D01*
X113382677Y-80930185D01*
X113403319Y-80946819D01*
X114073181Y-81616680D01*
X114106666Y-81678003D01*
X114109500Y-81704361D01*
X114109500Y-81836286D01*
X114142753Y-82046239D01*
X114208444Y-82248414D01*
X114304951Y-82437820D01*
X114429890Y-82609786D01*
X114523181Y-82703077D01*
X114556666Y-82764400D01*
X114559500Y-82790758D01*
X114559500Y-85068696D01*
X114594103Y-85242659D01*
X114594106Y-85242669D01*
X114601199Y-85259792D01*
X114626346Y-85320500D01*
X114661987Y-85406547D01*
X114705943Y-85472331D01*
X114709565Y-85477753D01*
X114709569Y-85477759D01*
X114760537Y-85554038D01*
X114760540Y-85554041D01*
X126280536Y-97074035D01*
X126384924Y-97178423D01*
X126405966Y-97199465D01*
X126424274Y-97211698D01*
X126553453Y-97298013D01*
X126635393Y-97331953D01*
X126717334Y-97365895D01*
X126887708Y-97399784D01*
X126891303Y-97400499D01*
X126891307Y-97400500D01*
X126891308Y-97400500D01*
X126891309Y-97400500D01*
X129729242Y-97400500D01*
X129758682Y-97409144D01*
X129788669Y-97415668D01*
X129793684Y-97419422D01*
X129796281Y-97420185D01*
X129816923Y-97436819D01*
X129893818Y-97513714D01*
X129927303Y-97575037D01*
X129922319Y-97644729D01*
X129880447Y-97700662D01*
X129849471Y-97717577D01*
X129717912Y-97766646D01*
X129717906Y-97766649D01*
X129602812Y-97852809D01*
X129602809Y-97852812D01*
X129516649Y-97967906D01*
X129516645Y-97967913D01*
X129466403Y-98102620D01*
X129466401Y-98102627D01*
X129460000Y-98162155D01*
X129460000Y-98810000D01*
X130376988Y-98810000D01*
X130344075Y-98867007D01*
X130310000Y-98994174D01*
X130310000Y-99125826D01*
X130344075Y-99252993D01*
X130376988Y-99310000D01*
X129460000Y-99310000D01*
X129460000Y-99957844D01*
X129466401Y-100017372D01*
X129466403Y-100017379D01*
X129516645Y-100152086D01*
X129516649Y-100152093D01*
X129602809Y-100267187D01*
X129602812Y-100267190D01*
X129717906Y-100353350D01*
X129717913Y-100353354D01*
X129849470Y-100402422D01*
X129905404Y-100444293D01*
X129929821Y-100509758D01*
X129914969Y-100578031D01*
X129893819Y-100606285D01*
X129779889Y-100720215D01*
X129654951Y-100892179D01*
X129558444Y-101081585D01*
X129492753Y-101283760D01*
X129459500Y-101493713D01*
X129459500Y-101706286D01*
X129473439Y-101794297D01*
X129492754Y-101916243D01*
X129554955Y-102107678D01*
X129558444Y-102118414D01*
X129654951Y-102307820D01*
X129779890Y-102479786D01*
X129930213Y-102630109D01*
X130102182Y-102755050D01*
X130110946Y-102759516D01*
X130161742Y-102807491D01*
X130178536Y-102875312D01*
X130155998Y-102941447D01*
X130110946Y-102980484D01*
X130102182Y-102984949D01*
X129930213Y-103109890D01*
X129779890Y-103260213D01*
X129654951Y-103432179D01*
X129558444Y-103621585D01*
X129492753Y-103823760D01*
X129459500Y-104033713D01*
X129459500Y-104246286D01*
X129492753Y-104456239D01*
X129558444Y-104658414D01*
X129654951Y-104847820D01*
X129779890Y-105019786D01*
X129930213Y-105170109D01*
X130102179Y-105295048D01*
X130102181Y-105295049D01*
X130102184Y-105295051D01*
X130291588Y-105391557D01*
X130493757Y-105457246D01*
X130703713Y-105490500D01*
X130703714Y-105490500D01*
X130916286Y-105490500D01*
X130916287Y-105490500D01*
X131126243Y-105457246D01*
X131328412Y-105391557D01*
X131517816Y-105295051D01*
X131539789Y-105279086D01*
X131689786Y-105170109D01*
X131689788Y-105170106D01*
X131689792Y-105170104D01*
X131840104Y-105019792D01*
X131840106Y-105019788D01*
X131840109Y-105019786D01*
X131965048Y-104847820D01*
X131965047Y-104847820D01*
X131965051Y-104847816D01*
X132061557Y-104658412D01*
X132127246Y-104456243D01*
X132160500Y-104246287D01*
X132160500Y-104033713D01*
X132127246Y-103823757D01*
X132061557Y-103621588D01*
X131965051Y-103432184D01*
X131965049Y-103432181D01*
X131965048Y-103432179D01*
X131840109Y-103260213D01*
X131689786Y-103109890D01*
X131517820Y-102984951D01*
X131517115Y-102984591D01*
X131509054Y-102980485D01*
X131458259Y-102932512D01*
X131441463Y-102864692D01*
X131463999Y-102798556D01*
X131509054Y-102759515D01*
X131517816Y-102755051D01*
X131539789Y-102739086D01*
X131689786Y-102630109D01*
X131689788Y-102630106D01*
X131689792Y-102630104D01*
X131840104Y-102479792D01*
X131840106Y-102479788D01*
X131840109Y-102479786D01*
X131965048Y-102307820D01*
X131965047Y-102307820D01*
X131965051Y-102307816D01*
X132061557Y-102118412D01*
X132127246Y-101916243D01*
X132160500Y-101706287D01*
X132160500Y-101493713D01*
X132127246Y-101283757D01*
X132061557Y-101081588D01*
X131965051Y-100892184D01*
X131965049Y-100892181D01*
X131965048Y-100892179D01*
X131840109Y-100720213D01*
X131726181Y-100606285D01*
X131692696Y-100544962D01*
X131697680Y-100475270D01*
X131739552Y-100419337D01*
X131770529Y-100402422D01*
X131902086Y-100353354D01*
X131902093Y-100353350D01*
X132017187Y-100267190D01*
X132017190Y-100267187D01*
X132103350Y-100152093D01*
X132103354Y-100152086D01*
X132153596Y-100017379D01*
X132153598Y-100017372D01*
X132159999Y-99957844D01*
X132160000Y-99957827D01*
X132160000Y-99310000D01*
X131243012Y-99310000D01*
X131275925Y-99252993D01*
X131310000Y-99125826D01*
X131310000Y-98994174D01*
X131275925Y-98867007D01*
X131243012Y-98810000D01*
X132160000Y-98810000D01*
X132160000Y-98162172D01*
X132159999Y-98162155D01*
X132153598Y-98102627D01*
X132153596Y-98102620D01*
X132103354Y-97967913D01*
X132103350Y-97967906D01*
X132017190Y-97852812D01*
X132017187Y-97852809D01*
X131902093Y-97766649D01*
X131902088Y-97766646D01*
X131770528Y-97717577D01*
X131714595Y-97675705D01*
X131690178Y-97610241D01*
X131705030Y-97541968D01*
X131726175Y-97513720D01*
X131840104Y-97399792D01*
X131864732Y-97365895D01*
X131965048Y-97227820D01*
X131965047Y-97227820D01*
X131965051Y-97227816D01*
X132061557Y-97038412D01*
X132127246Y-96836243D01*
X132160500Y-96626287D01*
X132160500Y-96413713D01*
X132127246Y-96203757D01*
X132061557Y-96001588D01*
X131965051Y-95812184D01*
X131965049Y-95812181D01*
X131965048Y-95812179D01*
X131840109Y-95640213D01*
X131689786Y-95489890D01*
X131517820Y-95364951D01*
X131328414Y-95268444D01*
X131328413Y-95268443D01*
X131328412Y-95268443D01*
X131126243Y-95202754D01*
X131126241Y-95202753D01*
X131126240Y-95202753D01*
X130964957Y-95177208D01*
X130916287Y-95169500D01*
X130703713Y-95169500D01*
X130655042Y-95177208D01*
X130493760Y-95202753D01*
X130291585Y-95268444D01*
X130102179Y-95364951D01*
X129930213Y-95489890D01*
X129930209Y-95489894D01*
X129856923Y-95563181D01*
X129795600Y-95596666D01*
X129769242Y-95599500D01*
X127404361Y-95599500D01*
X127337322Y-95579815D01*
X127316680Y-95563181D01*
X117360022Y-85606522D01*
X117277213Y-85523713D01*
X140649500Y-85523713D01*
X140649500Y-85736287D01*
X140682754Y-85946243D01*
X140743261Y-86132465D01*
X140748444Y-86148414D01*
X140844951Y-86337820D01*
X140969890Y-86509786D01*
X141120213Y-86660109D01*
X141292179Y-86785048D01*
X141292181Y-86785049D01*
X141292184Y-86785051D01*
X141481588Y-86881557D01*
X141683757Y-86947246D01*
X141893713Y-86980500D01*
X141893714Y-86980500D01*
X142106286Y-86980500D01*
X142106287Y-86980500D01*
X142316243Y-86947246D01*
X142518412Y-86881557D01*
X142707816Y-86785051D01*
X142788177Y-86726666D01*
X142879786Y-86660109D01*
X142879788Y-86660106D01*
X142879792Y-86660104D01*
X143030104Y-86509792D01*
X143030106Y-86509788D01*
X143030109Y-86509786D01*
X143155048Y-86337820D01*
X143155047Y-86337820D01*
X143155051Y-86337816D01*
X143251557Y-86148412D01*
X143317246Y-85946243D01*
X143350500Y-85736287D01*
X143350500Y-85523713D01*
X143317246Y-85313757D01*
X143251557Y-85111588D01*
X143155051Y-84922184D01*
X143155049Y-84922181D01*
X143155048Y-84922179D01*
X143030109Y-84750213D01*
X142879786Y-84599890D01*
X142707820Y-84474951D01*
X142518414Y-84378444D01*
X142518413Y-84378443D01*
X142518412Y-84378443D01*
X142316243Y-84312754D01*
X142316241Y-84312753D01*
X142316240Y-84312753D01*
X142154957Y-84287208D01*
X142106287Y-84279500D01*
X141893713Y-84279500D01*
X141845042Y-84287208D01*
X141683760Y-84312753D01*
X141481585Y-84378444D01*
X141292179Y-84474951D01*
X141120213Y-84599890D01*
X140969890Y-84750213D01*
X140844951Y-84922179D01*
X140748444Y-85111585D01*
X140748443Y-85111587D01*
X140748443Y-85111588D01*
X140743170Y-85127816D01*
X140682753Y-85313760D01*
X140656778Y-85477759D01*
X140649500Y-85523713D01*
X117277213Y-85523713D01*
X116396819Y-84643319D01*
X116363334Y-84581996D01*
X116360500Y-84555638D01*
X116360500Y-82790758D01*
X116369143Y-82761321D01*
X116375667Y-82731332D01*
X116379422Y-82726315D01*
X116380185Y-82723719D01*
X116396818Y-82703078D01*
X116409368Y-82690528D01*
X116453715Y-82646180D01*
X116515036Y-82612696D01*
X116584728Y-82617680D01*
X116640661Y-82659551D01*
X116657577Y-82690528D01*
X116706646Y-82822088D01*
X116706649Y-82822093D01*
X116792809Y-82937187D01*
X116792812Y-82937190D01*
X116907906Y-83023350D01*
X116907913Y-83023354D01*
X117042620Y-83073596D01*
X117042627Y-83073598D01*
X117102155Y-83079999D01*
X117102172Y-83080000D01*
X117750000Y-83080000D01*
X117750000Y-82163012D01*
X117807007Y-82195925D01*
X117934174Y-82230000D01*
X118065826Y-82230000D01*
X118192993Y-82195925D01*
X118250000Y-82163012D01*
X118250000Y-83080000D01*
X118897828Y-83080000D01*
X118897844Y-83079999D01*
X118957372Y-83073598D01*
X118957379Y-83073596D01*
X119092086Y-83023354D01*
X119092093Y-83023350D01*
X119207187Y-82937190D01*
X119207190Y-82937187D01*
X119293350Y-82822093D01*
X119293354Y-82822086D01*
X119342422Y-82690529D01*
X119384293Y-82634595D01*
X119449757Y-82610178D01*
X119518030Y-82625030D01*
X119546285Y-82646181D01*
X119660213Y-82760109D01*
X119832179Y-82885048D01*
X119832181Y-82885049D01*
X119832184Y-82885051D01*
X120021588Y-82981557D01*
X120223757Y-83047246D01*
X120433713Y-83080500D01*
X120433714Y-83080500D01*
X120646286Y-83080500D01*
X120646287Y-83080500D01*
X120856243Y-83047246D01*
X121058412Y-82981557D01*
X121247816Y-82885051D01*
X121334478Y-82822088D01*
X121419786Y-82760109D01*
X121419788Y-82760106D01*
X121419792Y-82760104D01*
X121570104Y-82609792D01*
X121570106Y-82609788D01*
X121570109Y-82609786D01*
X121695048Y-82437820D01*
X121695047Y-82437820D01*
X121695051Y-82437816D01*
X121699514Y-82429054D01*
X121747488Y-82378259D01*
X121815308Y-82361463D01*
X121881444Y-82383999D01*
X121920484Y-82429054D01*
X121924591Y-82437115D01*
X121924951Y-82437820D01*
X122049890Y-82609786D01*
X122200213Y-82760109D01*
X122372179Y-82885048D01*
X122372181Y-82885049D01*
X122372184Y-82885051D01*
X122561588Y-82981557D01*
X122763757Y-83047246D01*
X122973713Y-83080500D01*
X122973714Y-83080500D01*
X123186286Y-83080500D01*
X123186287Y-83080500D01*
X123396243Y-83047246D01*
X123598412Y-82981557D01*
X123787816Y-82885051D01*
X123874478Y-82822088D01*
X123959786Y-82760109D01*
X123959788Y-82760106D01*
X123959792Y-82760104D01*
X124110104Y-82609792D01*
X124110106Y-82609788D01*
X124110109Y-82609786D01*
X124235048Y-82437820D01*
X124235047Y-82437820D01*
X124235051Y-82437816D01*
X124331557Y-82248412D01*
X124397246Y-82046243D01*
X124430500Y-81836287D01*
X124430500Y-81623713D01*
X124397246Y-81413757D01*
X124331557Y-81211588D01*
X124235051Y-81022184D01*
X124235049Y-81022181D01*
X124235048Y-81022179D01*
X124110109Y-80850213D01*
X123959786Y-80699890D01*
X123787820Y-80574951D01*
X123598414Y-80478444D01*
X123598413Y-80478443D01*
X123598412Y-80478443D01*
X123396243Y-80412754D01*
X123396241Y-80412753D01*
X123396240Y-80412753D01*
X123234957Y-80387208D01*
X123186287Y-80379500D01*
X122973713Y-80379500D01*
X122925042Y-80387208D01*
X122763760Y-80412753D01*
X122561585Y-80478444D01*
X122372179Y-80574951D01*
X122200213Y-80699890D01*
X122049890Y-80850213D01*
X121924949Y-81022182D01*
X121920484Y-81030946D01*
X121872509Y-81081742D01*
X121804688Y-81098536D01*
X121738553Y-81075998D01*
X121699516Y-81030946D01*
X121695050Y-81022182D01*
X121570109Y-80850213D01*
X121419786Y-80699890D01*
X121247820Y-80574951D01*
X121058414Y-80478444D01*
X121058413Y-80478443D01*
X121058412Y-80478443D01*
X120856243Y-80412754D01*
X120856241Y-80412753D01*
X120856240Y-80412753D01*
X120694957Y-80387208D01*
X120646287Y-80379500D01*
X120433713Y-80379500D01*
X120385042Y-80387208D01*
X120223760Y-80412753D01*
X120021585Y-80478444D01*
X119832179Y-80574951D01*
X119660215Y-80699889D01*
X119546285Y-80813819D01*
X119484962Y-80847303D01*
X119415270Y-80842319D01*
X119359337Y-80800447D01*
X119342422Y-80769470D01*
X119293354Y-80637913D01*
X119293350Y-80637906D01*
X119207190Y-80522812D01*
X119207187Y-80522809D01*
X119092093Y-80436649D01*
X119092086Y-80436645D01*
X118957379Y-80386403D01*
X118957372Y-80386401D01*
X118897844Y-80380000D01*
X118250000Y-80380000D01*
X118250000Y-81296988D01*
X118192993Y-81264075D01*
X118065826Y-81230000D01*
X117934174Y-81230000D01*
X117807007Y-81264075D01*
X117750000Y-81296988D01*
X117750000Y-80380000D01*
X117102155Y-80380000D01*
X117042627Y-80386401D01*
X117042620Y-80386403D01*
X116907913Y-80436645D01*
X116907906Y-80436649D01*
X116792812Y-80522809D01*
X116792809Y-80522812D01*
X116706649Y-80637906D01*
X116706646Y-80637912D01*
X116657577Y-80769471D01*
X116615705Y-80825404D01*
X116550241Y-80849821D01*
X116481968Y-80834969D01*
X116453714Y-80813818D01*
X116339786Y-80699890D01*
X116167820Y-80574951D01*
X115978414Y-80478444D01*
X115978413Y-80478443D01*
X115978412Y-80478443D01*
X115776243Y-80412754D01*
X115776241Y-80412753D01*
X115776240Y-80412753D01*
X115614957Y-80387208D01*
X115566287Y-80379500D01*
X115566286Y-80379500D01*
X115434361Y-80379500D01*
X115367322Y-80359815D01*
X115346680Y-80343181D01*
X114314041Y-79310540D01*
X114314040Y-79310539D01*
X114314036Y-79310536D01*
X114254959Y-79271063D01*
X114166547Y-79211987D01*
X114084606Y-79178046D01*
X114002666Y-79144105D01*
X114002658Y-79144103D01*
X113828696Y-79109500D01*
X113828692Y-79109500D01*
X113828691Y-79109500D01*
X100418692Y-79109500D01*
X100241308Y-79109500D01*
X100241303Y-79109500D01*
X100067341Y-79144103D01*
X100067333Y-79144105D01*
X99903455Y-79211985D01*
X99903446Y-79211990D01*
X99755964Y-79310535D01*
X99755960Y-79310538D01*
X97060540Y-82005958D01*
X97060534Y-82005965D01*
X97035796Y-82042989D01*
X97035787Y-82043002D01*
X97033623Y-82046243D01*
X96961987Y-82153453D01*
X96941086Y-82203914D01*
X96937921Y-82211554D01*
X96937918Y-82211560D01*
X96894106Y-82317331D01*
X96894103Y-82317341D01*
X96871801Y-82429464D01*
X96859500Y-82491304D01*
X96859500Y-82928560D01*
X96839815Y-82995599D01*
X96787011Y-83041354D01*
X96778833Y-83044742D01*
X96667671Y-83086202D01*
X96667664Y-83086206D01*
X96552455Y-83172452D01*
X96552452Y-83172455D01*
X96466206Y-83287664D01*
X96466202Y-83287671D01*
X96415908Y-83422517D01*
X96409501Y-83482116D01*
X96409500Y-83482135D01*
X96409500Y-83492690D01*
X96389815Y-83559729D01*
X96373181Y-83580371D01*
X95702962Y-84250590D01*
X95685925Y-84187007D01*
X95620099Y-84072993D01*
X95527007Y-83979901D01*
X95412993Y-83914075D01*
X95349409Y-83897037D01*
X95981716Y-83264728D01*
X95927550Y-83225375D01*
X95738217Y-83128904D01*
X95536129Y-83063242D01*
X95326246Y-83030000D01*
X95113754Y-83030000D01*
X94903872Y-83063242D01*
X94903869Y-83063242D01*
X94701782Y-83128904D01*
X94512439Y-83225380D01*
X94458282Y-83264727D01*
X94458282Y-83264728D01*
X95090591Y-83897037D01*
X95027007Y-83914075D01*
X94912993Y-83979901D01*
X94819901Y-84072993D01*
X94754075Y-84187007D01*
X94737037Y-84250591D01*
X94104728Y-83618282D01*
X94104727Y-83618282D01*
X94065380Y-83672439D01*
X93968904Y-83861782D01*
X93903242Y-84063869D01*
X93903242Y-84063872D01*
X93870000Y-84273753D01*
X93870000Y-84486246D01*
X93903242Y-84696127D01*
X93903242Y-84696130D01*
X93968904Y-84898217D01*
X94065375Y-85087550D01*
X94104728Y-85141716D01*
X94737037Y-84509408D01*
X94754075Y-84572993D01*
X94819901Y-84687007D01*
X94912993Y-84780099D01*
X95027007Y-84845925D01*
X95090590Y-84862962D01*
X94458282Y-85495269D01*
X94458282Y-85495270D01*
X94512449Y-85534624D01*
X94701782Y-85631095D01*
X94903870Y-85696757D01*
X95113754Y-85730000D01*
X95326246Y-85730000D01*
X95536127Y-85696757D01*
X95536130Y-85696757D01*
X95738217Y-85631095D01*
X95927554Y-85534622D01*
X95981716Y-85495270D01*
X95981717Y-85495270D01*
X95349408Y-84862962D01*
X95412993Y-84845925D01*
X95527007Y-84780099D01*
X95620099Y-84687007D01*
X95685925Y-84572993D01*
X95702962Y-84509409D01*
X96373181Y-85179628D01*
X96406666Y-85240951D01*
X96409500Y-85267300D01*
X96409500Y-85277865D01*
X96409501Y-85277876D01*
X96415908Y-85337483D01*
X96466202Y-85472328D01*
X96466206Y-85472335D01*
X96552452Y-85587544D01*
X96552455Y-85587547D01*
X96667664Y-85673793D01*
X96667673Y-85673798D01*
X96778832Y-85715257D01*
X96796558Y-85728526D01*
X96816703Y-85737726D01*
X96823984Y-85749056D01*
X96834766Y-85757127D01*
X96842504Y-85777874D01*
X96854477Y-85796504D01*
X96857628Y-85818421D01*
X96859184Y-85822592D01*
X96859500Y-85831439D01*
X96859500Y-85965638D01*
X96839815Y-86032677D01*
X96823181Y-86053319D01*
X96183319Y-86693181D01*
X96121996Y-86726666D01*
X96095638Y-86729500D01*
X91494361Y-86729500D01*
X91427322Y-86709815D01*
X91406680Y-86693181D01*
X90249192Y-85535692D01*
X89246819Y-84533319D01*
X89233011Y-84508032D01*
X89216679Y-84484293D01*
X89215284Y-84475567D01*
X89213334Y-84471996D01*
X89210561Y-84449533D01*
X89210500Y-84447592D01*
X89210500Y-84313713D01*
X89177246Y-84103757D01*
X89111557Y-83901588D01*
X89015051Y-83712184D01*
X89015049Y-83712181D01*
X89015048Y-83712179D01*
X88890109Y-83540213D01*
X88796819Y-83446923D01*
X88782115Y-83419995D01*
X88765523Y-83394177D01*
X88764631Y-83387976D01*
X88763334Y-83385600D01*
X88760500Y-83359242D01*
X88760500Y-77611307D01*
X88760499Y-77611303D01*
X88750107Y-77559059D01*
X88725895Y-77437334D01*
X88706679Y-77390943D01*
X88694477Y-77361485D01*
X88694474Y-77361480D01*
X88691953Y-77355393D01*
X88658013Y-77273453D01*
X88598936Y-77185040D01*
X88559464Y-77125964D01*
X88420642Y-76987142D01*
X83119717Y-71686216D01*
X83119694Y-71686195D01*
X79314039Y-67880538D01*
X79314038Y-67880537D01*
X79295099Y-67867883D01*
X79232861Y-67826297D01*
X79166547Y-67781987D01*
X79084606Y-67748046D01*
X79079241Y-67745824D01*
X79079236Y-67745821D01*
X79002666Y-67714105D01*
X79002658Y-67714103D01*
X78828696Y-67679500D01*
X78828692Y-67679500D01*
X78828691Y-67679500D01*
X71031309Y-67679500D01*
X71031306Y-67679500D01*
X70857341Y-67714103D01*
X70857332Y-67714106D01*
X70693459Y-67781983D01*
X70693446Y-67781990D01*
X70545965Y-67880535D01*
X70545961Y-67880538D01*
X70420538Y-68005961D01*
X70420535Y-68005965D01*
X70321990Y-68153446D01*
X70321983Y-68153459D01*
X70254106Y-68317332D01*
X70254103Y-68317341D01*
X70219500Y-68491304D01*
X68270429Y-68491304D01*
X70927164Y-65834571D01*
X70988485Y-65801088D01*
X70990652Y-65800637D01*
X70991341Y-65800500D01*
X70991342Y-65800500D01*
X71145997Y-65769737D01*
X71291679Y-65709394D01*
X71422789Y-65621789D01*
X71534289Y-65510289D01*
X71621894Y-65379179D01*
X71682237Y-65233497D01*
X71713000Y-65078842D01*
X71713000Y-64921158D01*
X71713000Y-64921155D01*
X71712999Y-64921153D01*
X71682238Y-64766510D01*
X71682238Y-64766508D01*
X71682237Y-64766503D01*
X71682235Y-64766498D01*
X71621897Y-64620827D01*
X71621890Y-64620814D01*
X71534289Y-64489711D01*
X71534286Y-64489707D01*
X71422792Y-64378213D01*
X71422788Y-64378210D01*
X71291685Y-64290609D01*
X71291672Y-64290602D01*
X71146001Y-64230264D01*
X71145989Y-64230261D01*
X70991345Y-64199500D01*
X70991342Y-64199500D01*
X70833658Y-64199500D01*
X70833655Y-64199500D01*
X70679010Y-64230261D01*
X70678998Y-64230264D01*
X70533327Y-64290602D01*
X70533314Y-64290609D01*
X70402211Y-64378210D01*
X70402207Y-64378213D01*
X70290713Y-64489707D01*
X70290710Y-64489711D01*
X70203109Y-64620814D01*
X70203102Y-64620827D01*
X70142764Y-64766498D01*
X70142761Y-64766508D01*
X70111862Y-64921848D01*
X70079477Y-64983759D01*
X70077926Y-64985337D01*
X67120084Y-67943181D01*
X67058761Y-67976666D01*
X67032403Y-67979500D01*
X65349766Y-67979500D01*
X65282727Y-67959815D01*
X65280875Y-67958602D01*
X65149185Y-67870609D01*
X65149172Y-67870602D01*
X65003501Y-67810264D01*
X65003489Y-67810261D01*
X64848845Y-67779500D01*
X64848842Y-67779500D01*
X64691158Y-67779500D01*
X64691155Y-67779500D01*
X64536510Y-67810261D01*
X64536498Y-67810264D01*
X64390827Y-67870602D01*
X64390814Y-67870609D01*
X64259711Y-67958210D01*
X64259707Y-67958213D01*
X64148213Y-68069707D01*
X64148210Y-68069711D01*
X64060609Y-68200814D01*
X64060602Y-68200827D01*
X64000264Y-68346498D01*
X64000261Y-68346510D01*
X63969500Y-68501153D01*
X52618791Y-68501153D01*
X61902931Y-59217013D01*
X61964252Y-59183530D01*
X61966317Y-59183099D01*
X62033497Y-59169737D01*
X62179179Y-59109394D01*
X62310289Y-59021789D01*
X62421789Y-58910289D01*
X62509394Y-58779179D01*
X62569737Y-58633497D01*
X62600500Y-58478842D01*
X62600500Y-58321158D01*
X62600500Y-58321155D01*
X62600499Y-58321153D01*
X62569738Y-58166510D01*
X62569737Y-58166503D01*
X62569735Y-58166498D01*
X62509397Y-58020827D01*
X62509390Y-58020814D01*
X62421789Y-57889711D01*
X62421786Y-57889707D01*
X62310292Y-57778213D01*
X62310288Y-57778210D01*
X62179185Y-57690609D01*
X62179172Y-57690602D01*
X62035864Y-57631243D01*
X61981460Y-57587402D01*
X61968761Y-57564147D01*
X61909394Y-57420821D01*
X61909392Y-57420818D01*
X61909390Y-57420814D01*
X61821789Y-57289711D01*
X61821786Y-57289707D01*
X61710292Y-57178213D01*
X61710288Y-57178210D01*
X61579185Y-57090609D01*
X61579172Y-57090602D01*
X61433501Y-57030264D01*
X61433489Y-57030261D01*
X61278845Y-56999500D01*
X61278842Y-56999500D01*
X61121158Y-56999500D01*
X61121155Y-56999500D01*
X60966510Y-57030261D01*
X60966498Y-57030264D01*
X60820827Y-57090602D01*
X60820814Y-57090609D01*
X60689711Y-57178210D01*
X60689707Y-57178213D01*
X60578213Y-57289707D01*
X60578210Y-57289711D01*
X60490609Y-57420814D01*
X60490602Y-57420827D01*
X60430264Y-57566498D01*
X60430261Y-57566508D01*
X60416920Y-57633579D01*
X60384535Y-57695490D01*
X60382984Y-57697068D01*
X38094726Y-79985326D01*
X38023534Y-80091874D01*
X37974499Y-80210255D01*
X37974497Y-80210261D01*
X37949500Y-80335928D01*
X36230000Y-80335928D01*
X36230000Y-50693753D01*
X40560000Y-50693753D01*
X40560000Y-50906246D01*
X40593242Y-51116127D01*
X40593242Y-51116130D01*
X40658904Y-51318217D01*
X40755375Y-51507550D01*
X40794728Y-51561716D01*
X41427037Y-50929408D01*
X41444075Y-50992993D01*
X41509901Y-51107007D01*
X41602993Y-51200099D01*
X41717007Y-51265925D01*
X41780590Y-51282962D01*
X41148282Y-51915269D01*
X41148282Y-51915270D01*
X41202449Y-51954624D01*
X41391782Y-52051095D01*
X41593870Y-52116757D01*
X41803754Y-52150000D01*
X42016246Y-52150000D01*
X42226127Y-52116757D01*
X42226130Y-52116757D01*
X42428217Y-52051095D01*
X42617554Y-51954622D01*
X42671716Y-51915270D01*
X42671717Y-51915270D01*
X42039408Y-51282962D01*
X42102993Y-51265925D01*
X42217007Y-51200099D01*
X42310099Y-51107007D01*
X42375925Y-50992993D01*
X42392962Y-50929408D01*
X43025270Y-51561717D01*
X43025270Y-51561716D01*
X43064622Y-51507555D01*
X43069232Y-51498507D01*
X43117205Y-51447709D01*
X43185025Y-51430912D01*
X43251161Y-51453447D01*
X43290204Y-51498504D01*
X43294949Y-51507817D01*
X43419890Y-51679786D01*
X43570213Y-51830109D01*
X43742179Y-51955048D01*
X43742181Y-51955049D01*
X43742184Y-51955051D01*
X43931588Y-52051557D01*
X44133757Y-52117246D01*
X44343713Y-52150500D01*
X44343714Y-52150500D01*
X44556286Y-52150500D01*
X44556287Y-52150500D01*
X44766243Y-52117246D01*
X44968412Y-52051557D01*
X45157816Y-51955051D01*
X45329792Y-51830104D01*
X45443329Y-51716566D01*
X45504648Y-51683084D01*
X45574340Y-51688068D01*
X45630274Y-51729939D01*
X45647189Y-51760917D01*
X45696202Y-51892328D01*
X45696206Y-51892335D01*
X45782452Y-52007544D01*
X45782455Y-52007547D01*
X45897664Y-52093793D01*
X45897671Y-52093797D01*
X46032517Y-52144091D01*
X46032516Y-52144091D01*
X46039444Y-52144835D01*
X46092127Y-52150500D01*
X47887872Y-52150499D01*
X47947483Y-52144091D01*
X48082331Y-52093796D01*
X48197546Y-52007546D01*
X48283796Y-51892331D01*
X48334091Y-51757483D01*
X48340500Y-51697873D01*
X48340500Y-51301577D01*
X49549500Y-51301577D01*
X49549500Y-51698420D01*
X49580290Y-51892826D01*
X49641117Y-52080029D01*
X49707634Y-52210575D01*
X49730476Y-52255405D01*
X49846172Y-52414646D01*
X49985354Y-52553828D01*
X50144595Y-52669524D01*
X50227455Y-52711743D01*
X50319970Y-52758882D01*
X50319972Y-52758882D01*
X50319975Y-52758884D01*
X50420317Y-52791487D01*
X50507173Y-52819709D01*
X50701578Y-52850500D01*
X50701583Y-52850500D01*
X50898422Y-52850500D01*
X51092826Y-52819709D01*
X51280025Y-52758884D01*
X51455405Y-52669524D01*
X51614646Y-52553828D01*
X51753828Y-52414646D01*
X51869524Y-52255405D01*
X51958884Y-52080025D01*
X51968284Y-52051095D01*
X51983586Y-52004000D01*
X52013834Y-51954638D01*
X57047320Y-46921153D01*
X70199500Y-46921153D01*
X70199500Y-47078846D01*
X70230261Y-47233489D01*
X70230264Y-47233501D01*
X70290602Y-47379172D01*
X70290609Y-47379185D01*
X70378602Y-47510874D01*
X70399480Y-47577551D01*
X70399500Y-47579765D01*
X70399500Y-61420234D01*
X70379815Y-61487273D01*
X70378602Y-61489125D01*
X70290609Y-61620814D01*
X70290602Y-61620827D01*
X70230264Y-61766498D01*
X70230261Y-61766510D01*
X70199500Y-61921153D01*
X70199500Y-62078846D01*
X70230261Y-62233489D01*
X70230264Y-62233501D01*
X70290602Y-62379172D01*
X70290609Y-62379185D01*
X70378210Y-62510288D01*
X70378213Y-62510292D01*
X70489707Y-62621786D01*
X70489711Y-62621789D01*
X70620814Y-62709390D01*
X70620827Y-62709397D01*
X70766498Y-62769735D01*
X70766503Y-62769737D01*
X70921153Y-62800499D01*
X70921156Y-62800500D01*
X70921158Y-62800500D01*
X71078844Y-62800500D01*
X71078845Y-62800499D01*
X71233497Y-62769737D01*
X71379179Y-62709394D01*
X71510289Y-62621789D01*
X71621789Y-62510289D01*
X71709394Y-62379179D01*
X71769737Y-62233497D01*
X71800500Y-62078842D01*
X71800500Y-61921158D01*
X71800500Y-61921155D01*
X71800499Y-61921153D01*
X71769738Y-61766510D01*
X71769737Y-61766503D01*
X71769735Y-61766498D01*
X71709397Y-61620827D01*
X71709390Y-61620814D01*
X71621398Y-61489125D01*
X71600520Y-61422447D01*
X71600500Y-61420234D01*
X71600500Y-59969001D01*
X71620185Y-59901962D01*
X71672989Y-59856207D01*
X71742147Y-59846263D01*
X71798810Y-59869734D01*
X71841861Y-59901962D01*
X71857668Y-59913795D01*
X71857671Y-59913797D01*
X71992517Y-59964091D01*
X71992516Y-59964091D01*
X71999444Y-59964835D01*
X72052127Y-59970500D01*
X75476000Y-59970499D01*
X75543039Y-59990184D01*
X75588794Y-60042988D01*
X75600000Y-60094499D01*
X75600000Y-60960000D01*
X89570000Y-60960000D01*
X89570000Y-60094499D01*
X89589685Y-60027460D01*
X89642489Y-59981705D01*
X89693995Y-59970499D01*
X93297872Y-59970499D01*
X93357483Y-59964091D01*
X93492331Y-59913796D01*
X93607546Y-59827546D01*
X93693796Y-59712331D01*
X93744091Y-59577483D01*
X93750500Y-59517873D01*
X93750499Y-57722128D01*
X93744091Y-57662517D01*
X93728115Y-57619684D01*
X93693797Y-57527671D01*
X93693795Y-57527668D01*
X93616421Y-57424309D01*
X93592004Y-57358848D01*
X93606855Y-57290575D01*
X93616416Y-57275696D01*
X93693796Y-57172331D01*
X93744091Y-57037483D01*
X93750500Y-56977873D01*
X93750499Y-55182128D01*
X93744091Y-55122517D01*
X93693796Y-54987669D01*
X93616421Y-54884309D01*
X93592004Y-54818848D01*
X93606855Y-54750575D01*
X93616416Y-54735696D01*
X93693796Y-54632331D01*
X93744091Y-54497483D01*
X93750500Y-54437873D01*
X93750499Y-52642128D01*
X93744091Y-52582517D01*
X93709072Y-52488627D01*
X93693797Y-52447671D01*
X93693795Y-52447668D01*
X93669076Y-52414648D01*
X93616421Y-52344309D01*
X93592004Y-52278848D01*
X93606855Y-52210575D01*
X93616416Y-52195696D01*
X93693796Y-52092331D01*
X93744091Y-51957483D01*
X93750500Y-51897873D01*
X93750499Y-50102128D01*
X93744091Y-50042517D01*
X93742511Y-50038282D01*
X93693797Y-49907671D01*
X93693795Y-49907668D01*
X93691484Y-49904581D01*
X93616421Y-49804309D01*
X93592004Y-49738848D01*
X93606855Y-49670575D01*
X93616416Y-49655696D01*
X93693796Y-49552331D01*
X93744091Y-49417483D01*
X93750500Y-49357873D01*
X93750499Y-47562128D01*
X93744091Y-47502517D01*
X93739313Y-47489707D01*
X93693797Y-47367671D01*
X93693795Y-47367668D01*
X93690300Y-47362999D01*
X93616421Y-47264309D01*
X93592004Y-47198848D01*
X93606855Y-47130575D01*
X93616416Y-47115696D01*
X93693796Y-47012331D01*
X93744091Y-46877483D01*
X93750500Y-46817873D01*
X93750499Y-45621153D01*
X95099500Y-45621153D01*
X95099500Y-45778846D01*
X95130261Y-45933489D01*
X95130264Y-45933501D01*
X95190602Y-46079172D01*
X95190609Y-46079185D01*
X95278210Y-46210288D01*
X95278213Y-46210292D01*
X95389707Y-46321786D01*
X95389711Y-46321789D01*
X95520814Y-46409390D01*
X95520827Y-46409397D01*
X95608230Y-46445599D01*
X95666503Y-46469737D01*
X95733580Y-46483079D01*
X95795490Y-46515463D01*
X95797069Y-46517015D01*
X100913181Y-51633127D01*
X100946666Y-51694450D01*
X100949500Y-51720808D01*
X100949500Y-52595064D01*
X100929815Y-52662103D01*
X100928603Y-52663954D01*
X100890608Y-52720817D01*
X100890602Y-52720828D01*
X100830264Y-52866498D01*
X100830261Y-52866510D01*
X100799500Y-53021153D01*
X100799500Y-53178846D01*
X100830261Y-53333489D01*
X100830264Y-53333501D01*
X100890602Y-53479172D01*
X100890609Y-53479185D01*
X100978210Y-53610288D01*
X100978213Y-53610292D01*
X101089707Y-53721786D01*
X101089711Y-53721789D01*
X101220814Y-53809390D01*
X101220827Y-53809397D01*
X101366498Y-53869735D01*
X101366503Y-53869737D01*
X101521153Y-53900499D01*
X101521156Y-53900500D01*
X101521158Y-53900500D01*
X101678844Y-53900500D01*
X101678845Y-53900499D01*
X101833497Y-53869737D01*
X101979179Y-53809394D01*
X102110289Y-53721789D01*
X102221789Y-53610289D01*
X102309394Y-53479179D01*
X102369737Y-53333497D01*
X102400500Y-53178842D01*
X102400500Y-53021158D01*
X102400500Y-53021155D01*
X102400499Y-53021153D01*
X102369738Y-52866510D01*
X102369737Y-52866503D01*
X102363108Y-52850500D01*
X102309397Y-52720828D01*
X102309396Y-52720827D01*
X102309394Y-52720821D01*
X102271396Y-52663953D01*
X102250520Y-52597276D01*
X102250500Y-52595064D01*
X102250500Y-51335928D01*
X102225502Y-51210261D01*
X102225501Y-51210260D01*
X102225501Y-51210256D01*
X102176465Y-51091873D01*
X102176437Y-51091831D01*
X102162636Y-51071175D01*
X102162636Y-51071174D01*
X102105279Y-50985334D01*
X102105273Y-50985326D01*
X96717015Y-45597068D01*
X96683530Y-45535745D01*
X96683079Y-45533578D01*
X96669738Y-45466510D01*
X96669737Y-45466503D01*
X96645599Y-45408230D01*
X96609397Y-45320827D01*
X96609390Y-45320814D01*
X96521789Y-45189711D01*
X96521786Y-45189707D01*
X96410292Y-45078213D01*
X96410288Y-45078210D01*
X96279185Y-44990609D01*
X96279172Y-44990602D01*
X96133501Y-44930264D01*
X96133489Y-44930261D01*
X95978845Y-44899500D01*
X95978842Y-44899500D01*
X95821158Y-44899500D01*
X95821155Y-44899500D01*
X95666510Y-44930261D01*
X95666498Y-44930264D01*
X95520827Y-44990602D01*
X95520814Y-44990609D01*
X95389711Y-45078210D01*
X95389707Y-45078213D01*
X95278213Y-45189707D01*
X95278210Y-45189711D01*
X95190609Y-45320814D01*
X95190602Y-45320827D01*
X95130264Y-45466498D01*
X95130261Y-45466510D01*
X95099500Y-45621153D01*
X93750499Y-45621153D01*
X93750499Y-45022128D01*
X93744091Y-44962517D01*
X93732061Y-44930264D01*
X93693797Y-44827671D01*
X93693795Y-44827668D01*
X93616421Y-44724309D01*
X93592004Y-44658848D01*
X93606855Y-44590575D01*
X93616416Y-44575696D01*
X93693796Y-44472331D01*
X93744091Y-44337483D01*
X93750500Y-44277873D01*
X93750499Y-43091303D01*
X99429500Y-43091303D01*
X99429500Y-43268696D01*
X99464103Y-43442658D01*
X99464105Y-43442666D01*
X99531988Y-43606548D01*
X99630534Y-43754034D01*
X99630540Y-43754041D01*
X103203181Y-47326680D01*
X103236666Y-47388003D01*
X103239500Y-47414361D01*
X103239500Y-55968695D01*
X103274103Y-56142658D01*
X103274106Y-56142667D01*
X103341983Y-56306540D01*
X103341990Y-56306553D01*
X103440535Y-56454034D01*
X103440538Y-56454038D01*
X103565961Y-56579461D01*
X103565965Y-56579464D01*
X103713446Y-56678009D01*
X103713459Y-56678016D01*
X103836363Y-56728923D01*
X103877334Y-56745894D01*
X103877336Y-56745894D01*
X103877341Y-56745896D01*
X104051304Y-56780499D01*
X104051307Y-56780500D01*
X104051309Y-56780500D01*
X104228693Y-56780500D01*
X104228694Y-56780499D01*
X104286682Y-56768964D01*
X104402658Y-56745896D01*
X104402661Y-56745894D01*
X104402666Y-56745894D01*
X104566547Y-56678013D01*
X104714035Y-56579464D01*
X104839464Y-56454035D01*
X104938013Y-56306547D01*
X105005894Y-56142666D01*
X105040500Y-55968691D01*
X105040500Y-49564071D01*
X106029499Y-49564071D01*
X106054497Y-49689738D01*
X106054499Y-49689744D01*
X106103533Y-49808124D01*
X106103538Y-49808133D01*
X106174723Y-49914668D01*
X106174726Y-49914672D01*
X106265327Y-50005273D01*
X106265331Y-50005276D01*
X106371866Y-50076461D01*
X106371875Y-50076466D01*
X106492154Y-50126287D01*
X106513592Y-50137746D01*
X106620814Y-50209390D01*
X106620827Y-50209397D01*
X106766498Y-50269735D01*
X106766503Y-50269737D01*
X106918644Y-50300000D01*
X106921153Y-50300499D01*
X106921156Y-50300500D01*
X106921158Y-50300500D01*
X107078844Y-50300500D01*
X107078845Y-50300499D01*
X107233497Y-50269737D01*
X107379179Y-50209394D01*
X107436044Y-50171397D01*
X107502721Y-50150520D01*
X107504935Y-50150500D01*
X115064071Y-50150500D01*
X115182610Y-50126920D01*
X115189744Y-50125501D01*
X115308127Y-50076465D01*
X115414669Y-50005277D01*
X116602931Y-48817013D01*
X116664252Y-48783530D01*
X116666317Y-48783099D01*
X116733497Y-48769737D01*
X116879179Y-48709394D01*
X117010289Y-48621789D01*
X117121789Y-48510289D01*
X117209394Y-48379179D01*
X117269737Y-48233497D01*
X117300500Y-48078842D01*
X117300500Y-47921158D01*
X117300500Y-47921155D01*
X117300499Y-47921153D01*
X117269738Y-47766510D01*
X117269738Y-47766508D01*
X117269737Y-47766503D01*
X117269735Y-47766498D01*
X117209397Y-47620827D01*
X117209390Y-47620814D01*
X117121789Y-47489711D01*
X117121786Y-47489707D01*
X117010292Y-47378213D01*
X117010288Y-47378210D01*
X116879185Y-47290609D01*
X116879172Y-47290602D01*
X116733501Y-47230264D01*
X116733489Y-47230261D01*
X116578845Y-47199500D01*
X116578842Y-47199500D01*
X116421158Y-47199500D01*
X116421155Y-47199500D01*
X116266510Y-47230261D01*
X116266498Y-47230264D01*
X116120827Y-47290602D01*
X116120814Y-47290609D01*
X115989711Y-47378210D01*
X115989707Y-47378213D01*
X115878213Y-47489707D01*
X115878210Y-47489711D01*
X115790609Y-47620814D01*
X115790602Y-47620827D01*
X115730264Y-47766498D01*
X115730261Y-47766508D01*
X115716920Y-47833579D01*
X115684535Y-47895490D01*
X115682984Y-47897068D01*
X114766873Y-48813181D01*
X114705550Y-48846666D01*
X114679192Y-48849500D01*
X107504935Y-48849500D01*
X107437896Y-48829815D01*
X107436090Y-48828633D01*
X107379179Y-48790606D01*
X107379172Y-48790602D01*
X107233501Y-48730264D01*
X107233489Y-48730261D01*
X107078845Y-48699500D01*
X107078842Y-48699500D01*
X106921158Y-48699500D01*
X106921155Y-48699500D01*
X106766510Y-48730261D01*
X106766498Y-48730264D01*
X106620828Y-48790602D01*
X106620812Y-48790611D01*
X106513588Y-48862254D01*
X106492153Y-48873712D01*
X106371873Y-48923535D01*
X106371866Y-48923538D01*
X106265331Y-48994723D01*
X106265327Y-48994726D01*
X106174726Y-49085327D01*
X106174723Y-49085331D01*
X106103538Y-49191866D01*
X106103533Y-49191875D01*
X106054499Y-49310255D01*
X106054497Y-49310261D01*
X106029500Y-49435928D01*
X106029500Y-49435931D01*
X106029500Y-49564069D01*
X106029500Y-49564071D01*
X106029499Y-49564071D01*
X105040500Y-49564071D01*
X105040500Y-46901309D01*
X105035761Y-46877483D01*
X105035761Y-46877481D01*
X105035761Y-46877480D01*
X105005896Y-46727341D01*
X105005895Y-46727334D01*
X104947075Y-46585331D01*
X104938013Y-46563453D01*
X104938012Y-46563451D01*
X104938011Y-46563449D01*
X104839465Y-46415966D01*
X104801709Y-46378210D01*
X104714035Y-46290536D01*
X103801709Y-45378210D01*
X100904041Y-42480540D01*
X100904034Y-42480534D01*
X100756548Y-42381988D01*
X100592666Y-42314105D01*
X100592658Y-42314103D01*
X100418696Y-42279500D01*
X100418692Y-42279500D01*
X100241308Y-42279500D01*
X100241303Y-42279500D01*
X100067341Y-42314103D01*
X100067333Y-42314105D01*
X99903451Y-42381988D01*
X99755965Y-42480534D01*
X99755958Y-42480540D01*
X99630540Y-42605958D01*
X99630534Y-42605965D01*
X99531988Y-42753451D01*
X99464105Y-42917333D01*
X99464103Y-42917341D01*
X99429500Y-43091303D01*
X93750499Y-43091303D01*
X93750499Y-42482128D01*
X93744091Y-42422517D01*
X93703655Y-42314103D01*
X93693797Y-42287671D01*
X93693795Y-42287668D01*
X93616421Y-42184309D01*
X93592004Y-42118848D01*
X93606855Y-42050575D01*
X93616416Y-42035696D01*
X93693796Y-41932331D01*
X93744091Y-41797483D01*
X93750500Y-41737873D01*
X93750499Y-39942128D01*
X93744091Y-39882517D01*
X93693796Y-39747669D01*
X93616109Y-39643893D01*
X93591692Y-39578430D01*
X93606543Y-39510157D01*
X93616110Y-39495271D01*
X93693352Y-39392089D01*
X93693354Y-39392086D01*
X93743596Y-39257379D01*
X93743598Y-39257372D01*
X93749999Y-39197844D01*
X93750000Y-39197827D01*
X93750000Y-38550000D01*
X90733012Y-38550000D01*
X90765925Y-38492993D01*
X90800000Y-38365826D01*
X90800000Y-38234174D01*
X90765925Y-38107007D01*
X90733012Y-38050000D01*
X93750000Y-38050000D01*
X93750000Y-37402172D01*
X93749999Y-37402155D01*
X93743598Y-37342627D01*
X93743596Y-37342620D01*
X93693354Y-37207913D01*
X93693352Y-37207910D01*
X93616110Y-37104729D01*
X93591692Y-37039265D01*
X93606543Y-36970992D01*
X93616105Y-36956111D01*
X93693796Y-36852331D01*
X93744091Y-36717483D01*
X93750500Y-36657873D01*
X93750499Y-35401577D01*
X127249500Y-35401577D01*
X127249500Y-35598422D01*
X127280290Y-35792826D01*
X127341117Y-35980029D01*
X127430476Y-36155405D01*
X127546172Y-36314646D01*
X127685354Y-36453828D01*
X127844595Y-36569524D01*
X127927455Y-36611743D01*
X128019970Y-36658882D01*
X128019972Y-36658882D01*
X128019975Y-36658884D01*
X128120317Y-36691487D01*
X128207173Y-36719709D01*
X128401578Y-36750500D01*
X128401583Y-36750500D01*
X137098421Y-36750500D01*
X137106096Y-36749284D01*
X137175390Y-36758235D01*
X137228844Y-36803228D01*
X137249487Y-36869979D01*
X137249500Y-36871756D01*
X137249500Y-71598422D01*
X137280290Y-71792826D01*
X137341117Y-71980029D01*
X137392448Y-72080771D01*
X137430476Y-72155405D01*
X137546172Y-72314646D01*
X137685354Y-72453828D01*
X137844595Y-72569524D01*
X137927455Y-72611743D01*
X138019970Y-72658882D01*
X138019972Y-72658882D01*
X138019975Y-72658884D01*
X138120317Y-72691487D01*
X138207173Y-72719709D01*
X138401578Y-72750500D01*
X138401583Y-72750500D01*
X138598422Y-72750500D01*
X138792826Y-72719709D01*
X138980025Y-72658884D01*
X139155405Y-72569524D01*
X139314646Y-72453828D01*
X139453828Y-72314646D01*
X139569524Y-72155405D01*
X139658884Y-71980025D01*
X139719709Y-71792826D01*
X139735910Y-71690536D01*
X139750500Y-71598422D01*
X139750500Y-33901577D01*
X139719709Y-33707173D01*
X139691487Y-33620317D01*
X139658884Y-33519975D01*
X139658882Y-33519972D01*
X139658882Y-33519970D01*
X139592812Y-33390301D01*
X139569524Y-33344595D01*
X139453828Y-33185354D01*
X139314646Y-33046172D01*
X139155405Y-32930476D01*
X138980029Y-32841117D01*
X138792826Y-32780290D01*
X138598422Y-32749500D01*
X138598417Y-32749500D01*
X138598416Y-32749500D01*
X138401583Y-32749500D01*
X138401578Y-32749500D01*
X138207172Y-32780291D01*
X138146348Y-32800053D01*
X138146348Y-32800054D01*
X138103103Y-32814105D01*
X138019970Y-32841117D01*
X137844594Y-32930476D01*
X137807423Y-32957483D01*
X137685354Y-33046172D01*
X137685352Y-33046174D01*
X137685351Y-33046174D01*
X136518345Y-34213181D01*
X136457022Y-34246666D01*
X136430664Y-34249500D01*
X128401578Y-34249500D01*
X128207173Y-34280290D01*
X128019970Y-34341117D01*
X127844594Y-34430476D01*
X127795417Y-34466206D01*
X127685354Y-34546172D01*
X127685352Y-34546174D01*
X127685351Y-34546174D01*
X127546174Y-34685351D01*
X127546174Y-34685352D01*
X127546172Y-34685354D01*
X127496485Y-34753741D01*
X127430476Y-34844594D01*
X127341117Y-35019970D01*
X127280290Y-35207173D01*
X127249500Y-35401577D01*
X93750499Y-35401577D01*
X93750499Y-34862128D01*
X93744091Y-34802517D01*
X93700391Y-34685352D01*
X93693797Y-34667671D01*
X93693793Y-34667664D01*
X93607547Y-34552455D01*
X93607544Y-34552452D01*
X93492335Y-34466206D01*
X93492328Y-34466202D01*
X93357482Y-34415908D01*
X93357483Y-34415908D01*
X93297883Y-34409501D01*
X93297881Y-34409500D01*
X93297873Y-34409500D01*
X93297864Y-34409500D01*
X89502129Y-34409500D01*
X89502123Y-34409501D01*
X89442516Y-34415908D01*
X89307671Y-34466202D01*
X89307664Y-34466206D01*
X89192455Y-34552452D01*
X89192452Y-34552455D01*
X89106206Y-34667664D01*
X89106202Y-34667671D01*
X89055908Y-34802517D01*
X89051385Y-34844594D01*
X89049501Y-34862123D01*
X89049500Y-34862135D01*
X89049500Y-36657870D01*
X89049501Y-36657876D01*
X89055908Y-36717483D01*
X89106202Y-36852328D01*
X89106206Y-36852335D01*
X89183889Y-36956105D01*
X89208307Y-37021569D01*
X89193456Y-37089842D01*
X89183890Y-37104727D01*
X89106647Y-37207910D01*
X89106645Y-37207913D01*
X89056403Y-37342620D01*
X89056401Y-37342627D01*
X89050000Y-37402155D01*
X89050000Y-38050000D01*
X89866988Y-38050000D01*
X89834075Y-38107007D01*
X89800000Y-38234174D01*
X89800000Y-38365826D01*
X89834075Y-38492993D01*
X89866988Y-38550000D01*
X89050000Y-38550000D01*
X89050000Y-39197844D01*
X89056401Y-39257372D01*
X89056403Y-39257379D01*
X89106645Y-39392086D01*
X89106646Y-39392088D01*
X89183890Y-39495272D01*
X89208307Y-39560736D01*
X89193456Y-39629009D01*
X89183890Y-39643894D01*
X89106204Y-39747669D01*
X89106202Y-39747671D01*
X89055908Y-39882517D01*
X89049501Y-39942116D01*
X89049501Y-39942123D01*
X89049500Y-39942135D01*
X89049500Y-41737870D01*
X89049501Y-41737876D01*
X89055908Y-41797483D01*
X89106202Y-41932328D01*
X89106203Y-41932330D01*
X89183578Y-42035689D01*
X89207995Y-42101153D01*
X89193144Y-42169426D01*
X89183578Y-42184311D01*
X89106203Y-42287669D01*
X89106202Y-42287671D01*
X89055908Y-42422517D01*
X89049558Y-42481585D01*
X89049501Y-42482123D01*
X89049500Y-42482135D01*
X89049500Y-44277870D01*
X89049501Y-44277876D01*
X89055908Y-44337483D01*
X89106202Y-44472328D01*
X89106203Y-44472330D01*
X89183578Y-44575689D01*
X89207995Y-44641153D01*
X89193144Y-44709426D01*
X89183578Y-44724311D01*
X89106203Y-44827669D01*
X89106202Y-44827671D01*
X89055908Y-44962517D01*
X89049501Y-45022116D01*
X89049501Y-45022123D01*
X89049500Y-45022135D01*
X89049500Y-46817870D01*
X89049501Y-46817876D01*
X89055908Y-46877483D01*
X89106202Y-47012328D01*
X89106203Y-47012330D01*
X89183578Y-47115689D01*
X89207995Y-47181153D01*
X89193144Y-47249426D01*
X89183578Y-47264311D01*
X89106203Y-47367669D01*
X89106202Y-47367671D01*
X89055908Y-47502517D01*
X89052784Y-47531578D01*
X89049501Y-47562123D01*
X89049500Y-47562135D01*
X89049500Y-49357870D01*
X89049501Y-49357876D01*
X89055908Y-49417483D01*
X89106202Y-49552328D01*
X89106203Y-49552330D01*
X89183578Y-49655689D01*
X89207995Y-49721153D01*
X89193144Y-49789426D01*
X89183578Y-49804309D01*
X89180721Y-49808127D01*
X89106203Y-49907669D01*
X89106202Y-49907671D01*
X89055908Y-50042517D01*
X89049501Y-50102116D01*
X89049501Y-50102123D01*
X89049500Y-50102135D01*
X89049500Y-51897870D01*
X89049501Y-51897872D01*
X89055908Y-51957483D01*
X89106202Y-52092328D01*
X89106203Y-52092330D01*
X89183578Y-52195689D01*
X89207995Y-52261153D01*
X89193144Y-52329426D01*
X89183578Y-52344311D01*
X89106203Y-52447669D01*
X89106202Y-52447671D01*
X89055908Y-52582517D01*
X89050500Y-52632826D01*
X89049501Y-52642123D01*
X89049500Y-52642135D01*
X89049500Y-54437870D01*
X89049501Y-54437874D01*
X89053250Y-54472746D01*
X89040843Y-54541506D01*
X88993233Y-54592642D01*
X88929960Y-54610000D01*
X87824500Y-54610000D01*
X87757461Y-54590315D01*
X87711706Y-54537511D01*
X87700500Y-54486000D01*
X87700500Y-52539988D01*
X87720185Y-52472949D01*
X87736815Y-52452311D01*
X88258506Y-51930619D01*
X88258511Y-51930616D01*
X88268714Y-51920412D01*
X88268716Y-51920412D01*
X88380520Y-51808608D01*
X88444138Y-51698417D01*
X88459577Y-51671677D01*
X88500501Y-51518949D01*
X88500501Y-51360835D01*
X88500501Y-51353240D01*
X88500500Y-51353222D01*
X88500500Y-46579765D01*
X88520185Y-46512726D01*
X88521398Y-46510874D01*
X88609390Y-46379185D01*
X88609390Y-46379184D01*
X88609394Y-46379179D01*
X88669737Y-46233497D01*
X88700500Y-46078842D01*
X88700500Y-45921158D01*
X88700500Y-45921155D01*
X88700499Y-45921153D01*
X88669738Y-45766510D01*
X88669737Y-45766503D01*
X88609532Y-45621153D01*
X88609397Y-45620827D01*
X88609390Y-45620814D01*
X88521789Y-45489711D01*
X88521786Y-45489707D01*
X88410292Y-45378213D01*
X88410288Y-45378210D01*
X88279185Y-45290609D01*
X88279172Y-45290602D01*
X88133501Y-45230264D01*
X88133489Y-45230261D01*
X87978845Y-45199500D01*
X87978842Y-45199500D01*
X87821158Y-45199500D01*
X87821155Y-45199500D01*
X87666510Y-45230261D01*
X87666498Y-45230264D01*
X87520827Y-45290602D01*
X87520814Y-45290609D01*
X87389711Y-45378210D01*
X87389707Y-45378213D01*
X87278213Y-45489707D01*
X87278210Y-45489711D01*
X87190609Y-45620814D01*
X87190602Y-45620827D01*
X87130264Y-45766498D01*
X87130261Y-45766510D01*
X87099500Y-45921153D01*
X87099500Y-46078846D01*
X87130261Y-46233489D01*
X87130264Y-46233501D01*
X87190602Y-46379172D01*
X87190609Y-46379185D01*
X87278602Y-46510874D01*
X87299480Y-46577551D01*
X87299500Y-46579765D01*
X87299500Y-51139794D01*
X87279815Y-51206833D01*
X87263181Y-51227475D01*
X86619482Y-51871173D01*
X86619480Y-51871175D01*
X86610582Y-51886588D01*
X86604067Y-51897873D01*
X86540423Y-52008107D01*
X86499499Y-52160835D01*
X86499499Y-52160837D01*
X86499499Y-52328938D01*
X86499500Y-52328951D01*
X86499500Y-54486000D01*
X86479815Y-54553039D01*
X86427011Y-54598794D01*
X86375500Y-54610000D01*
X76420040Y-54610000D01*
X76353001Y-54590315D01*
X76307246Y-54537511D01*
X76296750Y-54472747D01*
X76300500Y-54437873D01*
X76300499Y-52642128D01*
X76294091Y-52582517D01*
X76259072Y-52488627D01*
X76243797Y-52447671D01*
X76243795Y-52447668D01*
X76219076Y-52414648D01*
X76166421Y-52344309D01*
X76142004Y-52278848D01*
X76156855Y-52210575D01*
X76166416Y-52195696D01*
X76243796Y-52092331D01*
X76294091Y-51957483D01*
X76300500Y-51897873D01*
X76300499Y-50102128D01*
X76294091Y-50042517D01*
X76292511Y-50038282D01*
X76243797Y-49907671D01*
X76243795Y-49907668D01*
X76241484Y-49904581D01*
X76166421Y-49804309D01*
X76142004Y-49738848D01*
X76156855Y-49670575D01*
X76166416Y-49655696D01*
X76243796Y-49552331D01*
X76294091Y-49417483D01*
X76300500Y-49357873D01*
X76300499Y-47562128D01*
X76294091Y-47502517D01*
X76289313Y-47489707D01*
X76243797Y-47367671D01*
X76243795Y-47367668D01*
X76240300Y-47362999D01*
X76166421Y-47264309D01*
X76142004Y-47198848D01*
X76156855Y-47130575D01*
X76166416Y-47115696D01*
X76243796Y-47012331D01*
X76294091Y-46877483D01*
X76300500Y-46817873D01*
X76300499Y-45022128D01*
X76294091Y-44962517D01*
X76282061Y-44930264D01*
X76243797Y-44827671D01*
X76243795Y-44827668D01*
X76166421Y-44724309D01*
X76142004Y-44658848D01*
X76156855Y-44590575D01*
X76166416Y-44575696D01*
X76243796Y-44472331D01*
X76294091Y-44337483D01*
X76300500Y-44277873D01*
X76300499Y-42482128D01*
X76294091Y-42422517D01*
X76253655Y-42314103D01*
X76243797Y-42287671D01*
X76243795Y-42287668D01*
X76166421Y-42184309D01*
X76142004Y-42118848D01*
X76156855Y-42050575D01*
X76166416Y-42035696D01*
X76243796Y-41932331D01*
X76294091Y-41797483D01*
X76300500Y-41737873D01*
X76300499Y-39942128D01*
X76294091Y-39882517D01*
X76243796Y-39747669D01*
X76166421Y-39644309D01*
X76142004Y-39578848D01*
X76156855Y-39510575D01*
X76166416Y-39495696D01*
X76243796Y-39392331D01*
X76294091Y-39257483D01*
X76300500Y-39197873D01*
X76300499Y-37402128D01*
X76294091Y-37342517D01*
X76243796Y-37207669D01*
X76166421Y-37104309D01*
X76142004Y-37038848D01*
X76156855Y-36970575D01*
X76166416Y-36955696D01*
X76243796Y-36852331D01*
X76294091Y-36717483D01*
X76300500Y-36657873D01*
X76300499Y-34862128D01*
X76294091Y-34802517D01*
X76250391Y-34685352D01*
X76243797Y-34667671D01*
X76243793Y-34667664D01*
X76157547Y-34552455D01*
X76157544Y-34552452D01*
X76042335Y-34466206D01*
X76042328Y-34466202D01*
X75907482Y-34415908D01*
X75907483Y-34415908D01*
X75847883Y-34409501D01*
X75847881Y-34409500D01*
X75847873Y-34409500D01*
X75847864Y-34409500D01*
X72052129Y-34409500D01*
X72052123Y-34409501D01*
X71992516Y-34415908D01*
X71857671Y-34466202D01*
X71857664Y-34466206D01*
X71742455Y-34552452D01*
X71742452Y-34552455D01*
X71656206Y-34667664D01*
X71656202Y-34667671D01*
X71605908Y-34802517D01*
X71601385Y-34844594D01*
X71599501Y-34862123D01*
X71599500Y-34862135D01*
X71599500Y-36657870D01*
X71599501Y-36657876D01*
X71605908Y-36717483D01*
X71656202Y-36852328D01*
X71656203Y-36852330D01*
X71733578Y-36955689D01*
X71757995Y-37021153D01*
X71743144Y-37089426D01*
X71733578Y-37104309D01*
X71733265Y-37104729D01*
X71656203Y-37207669D01*
X71656202Y-37207671D01*
X71605908Y-37342517D01*
X71599501Y-37402116D01*
X71599501Y-37402123D01*
X71599500Y-37402135D01*
X71599500Y-39197870D01*
X71599501Y-39197876D01*
X71605908Y-39257483D01*
X71656202Y-39392328D01*
X71656203Y-39392330D01*
X71733578Y-39495689D01*
X71757995Y-39561153D01*
X71743144Y-39629426D01*
X71733578Y-39644311D01*
X71656203Y-39747669D01*
X71656202Y-39747671D01*
X71605908Y-39882517D01*
X71599501Y-39942116D01*
X71599501Y-39942123D01*
X71599500Y-39942135D01*
X71599500Y-41737870D01*
X71599501Y-41737876D01*
X71605908Y-41797483D01*
X71656202Y-41932328D01*
X71656203Y-41932330D01*
X71733578Y-42035689D01*
X71757995Y-42101153D01*
X71743144Y-42169426D01*
X71733578Y-42184311D01*
X71656203Y-42287669D01*
X71656202Y-42287671D01*
X71605908Y-42422517D01*
X71599558Y-42481585D01*
X71599501Y-42482123D01*
X71599500Y-42482135D01*
X71599500Y-44277870D01*
X71599501Y-44277876D01*
X71605908Y-44337483D01*
X71656202Y-44472328D01*
X71656203Y-44472330D01*
X71733578Y-44575689D01*
X71757995Y-44641153D01*
X71743144Y-44709426D01*
X71733578Y-44724311D01*
X71656203Y-44827669D01*
X71656202Y-44827671D01*
X71605908Y-44962517D01*
X71599501Y-45022116D01*
X71599501Y-45022123D01*
X71599500Y-45022135D01*
X71599500Y-46205831D01*
X71579815Y-46272870D01*
X71527011Y-46318625D01*
X71457853Y-46328569D01*
X71406610Y-46308934D01*
X71379183Y-46290608D01*
X71379172Y-46290602D01*
X71233501Y-46230264D01*
X71233489Y-46230261D01*
X71078845Y-46199500D01*
X71078842Y-46199500D01*
X70921158Y-46199500D01*
X70921155Y-46199500D01*
X70766510Y-46230261D01*
X70766498Y-46230264D01*
X70620827Y-46290602D01*
X70620814Y-46290609D01*
X70489711Y-46378210D01*
X70489707Y-46378213D01*
X70378213Y-46489707D01*
X70378210Y-46489711D01*
X70290609Y-46620814D01*
X70290602Y-46620827D01*
X70230264Y-46766498D01*
X70230261Y-46766510D01*
X70199500Y-46921153D01*
X57047320Y-46921153D01*
X60681655Y-43286819D01*
X60742978Y-43253334D01*
X60769336Y-43250500D01*
X64010922Y-43250500D01*
X64205326Y-43219709D01*
X64392525Y-43158884D01*
X64567905Y-43069524D01*
X64727146Y-42953828D01*
X64866328Y-42814646D01*
X64982024Y-42655405D01*
X65070312Y-42482129D01*
X65071382Y-42480029D01*
X65071382Y-42480028D01*
X65071384Y-42480025D01*
X65132209Y-42292826D01*
X65151274Y-42172454D01*
X65163000Y-42098422D01*
X65163000Y-41901577D01*
X65132209Y-41707173D01*
X65071382Y-41519970D01*
X64982023Y-41344594D01*
X64866328Y-41185354D01*
X64727146Y-41046172D01*
X64567905Y-40930476D01*
X64392529Y-40841117D01*
X64205326Y-40780290D01*
X64010922Y-40749500D01*
X64010917Y-40749500D01*
X60298416Y-40749500D01*
X60101583Y-40749500D01*
X60101578Y-40749500D01*
X59907172Y-40780291D01*
X59846348Y-40800053D01*
X59846348Y-40800054D01*
X59803103Y-40814105D01*
X59719970Y-40841117D01*
X59586799Y-40908972D01*
X59544595Y-40930476D01*
X59544594Y-40930477D01*
X59536696Y-40936215D01*
X59536691Y-40936217D01*
X59385352Y-41046173D01*
X49846174Y-50585351D01*
X49846174Y-50585352D01*
X49846172Y-50585354D01*
X49830440Y-50607007D01*
X49730476Y-50744594D01*
X49641117Y-50919971D01*
X49585275Y-51091830D01*
X49585276Y-51091831D01*
X49580290Y-51107175D01*
X49580290Y-51107177D01*
X49549500Y-51301577D01*
X48340500Y-51301577D01*
X48340499Y-50800000D01*
X48340499Y-49902129D01*
X48340498Y-49902123D01*
X48334091Y-49842516D01*
X48283797Y-49707671D01*
X48283793Y-49707664D01*
X48197547Y-49592455D01*
X48197544Y-49592452D01*
X48082335Y-49506206D01*
X48082328Y-49506202D01*
X47947482Y-49455908D01*
X47947483Y-49455908D01*
X47887883Y-49449501D01*
X47887881Y-49449500D01*
X47887873Y-49449500D01*
X47887864Y-49449500D01*
X46092129Y-49449500D01*
X46092123Y-49449501D01*
X46032516Y-49455908D01*
X45897671Y-49506202D01*
X45897664Y-49506206D01*
X45782455Y-49592452D01*
X45782452Y-49592455D01*
X45696206Y-49707664D01*
X45696203Y-49707669D01*
X45647189Y-49839083D01*
X45605317Y-49895016D01*
X45539853Y-49919433D01*
X45471580Y-49904581D01*
X45443326Y-49883430D01*
X45329786Y-49769890D01*
X45157820Y-49644951D01*
X44968414Y-49548444D01*
X44968413Y-49548443D01*
X44968412Y-49548443D01*
X44766243Y-49482754D01*
X44766241Y-49482753D01*
X44766240Y-49482753D01*
X44604957Y-49457208D01*
X44556287Y-49449500D01*
X44343713Y-49449500D01*
X44295042Y-49457208D01*
X44133760Y-49482753D01*
X43931585Y-49548444D01*
X43742179Y-49644951D01*
X43570213Y-49769890D01*
X43419890Y-49920213D01*
X43294949Y-50092182D01*
X43290202Y-50101499D01*
X43242227Y-50152293D01*
X43174405Y-50169087D01*
X43108271Y-50146548D01*
X43069234Y-50101495D01*
X43064626Y-50092452D01*
X43025270Y-50038282D01*
X43025269Y-50038282D01*
X42392962Y-50670590D01*
X42375925Y-50607007D01*
X42310099Y-50492993D01*
X42217007Y-50399901D01*
X42102993Y-50334075D01*
X42039409Y-50317037D01*
X42671716Y-49684728D01*
X42617550Y-49645375D01*
X42428217Y-49548904D01*
X42226129Y-49483242D01*
X42016246Y-49450000D01*
X41803754Y-49450000D01*
X41593872Y-49483242D01*
X41593869Y-49483242D01*
X41391782Y-49548904D01*
X41202439Y-49645380D01*
X41148282Y-49684727D01*
X41148282Y-49684728D01*
X41780591Y-50317037D01*
X41717007Y-50334075D01*
X41602993Y-50399901D01*
X41509901Y-50492993D01*
X41444075Y-50607007D01*
X41427037Y-50670591D01*
X40794728Y-50038282D01*
X40794727Y-50038282D01*
X40755380Y-50092439D01*
X40658904Y-50281782D01*
X40593242Y-50483869D01*
X40593242Y-50483872D01*
X40560000Y-50693753D01*
X36230000Y-50693753D01*
X36230000Y-42893713D01*
X38149500Y-42893713D01*
X38149500Y-43106286D01*
X38182753Y-43316239D01*
X38248444Y-43518414D01*
X38344951Y-43707820D01*
X38469890Y-43879786D01*
X38620213Y-44030109D01*
X38792179Y-44155048D01*
X38792181Y-44155049D01*
X38792184Y-44155051D01*
X38981588Y-44251557D01*
X39183757Y-44317246D01*
X39393713Y-44350500D01*
X39393714Y-44350500D01*
X39606286Y-44350500D01*
X39606287Y-44350500D01*
X39816243Y-44317246D01*
X40018412Y-44251557D01*
X40207816Y-44155051D01*
X40229789Y-44139086D01*
X40379786Y-44030109D01*
X40379788Y-44030106D01*
X40379792Y-44030104D01*
X40530104Y-43879792D01*
X40530106Y-43879788D01*
X40530109Y-43879786D01*
X40655048Y-43707820D01*
X40655047Y-43707820D01*
X40655051Y-43707816D01*
X40751557Y-43518412D01*
X40817246Y-43316243D01*
X40850500Y-43106287D01*
X40850500Y-42893713D01*
X40817246Y-42683757D01*
X40751557Y-42481588D01*
X40655051Y-42292184D01*
X40655049Y-42292181D01*
X40655048Y-42292179D01*
X40530109Y-42120213D01*
X40379786Y-41969890D01*
X40207820Y-41844951D01*
X40018414Y-41748444D01*
X40018413Y-41748443D01*
X40018412Y-41748443D01*
X39816243Y-41682754D01*
X39816241Y-41682753D01*
X39816240Y-41682753D01*
X39654957Y-41657208D01*
X39606287Y-41649500D01*
X39393713Y-41649500D01*
X39345042Y-41657208D01*
X39183760Y-41682753D01*
X38981585Y-41748444D01*
X38792179Y-41844951D01*
X38620213Y-41969890D01*
X38469890Y-42120213D01*
X38344951Y-42292179D01*
X38248444Y-42481585D01*
X38182753Y-42683760D01*
X38149500Y-42893713D01*
X36230000Y-42893713D01*
X36230000Y-31102135D01*
X38649500Y-31102135D01*
X38649500Y-32897870D01*
X38649501Y-32897876D01*
X38655908Y-32957483D01*
X38706202Y-33092328D01*
X38706206Y-33092335D01*
X38792452Y-33207544D01*
X38792455Y-33207547D01*
X38907664Y-33293793D01*
X38907671Y-33293797D01*
X39042517Y-33344091D01*
X39042516Y-33344091D01*
X39049444Y-33344835D01*
X39102127Y-33350500D01*
X40897872Y-33350499D01*
X40957483Y-33344091D01*
X41092331Y-33293796D01*
X41207546Y-33207546D01*
X41293796Y-33092331D01*
X41344091Y-32957483D01*
X41350500Y-32897873D01*
X41350499Y-32873979D01*
X41353330Y-32860963D01*
X41363940Y-32841525D01*
X41370179Y-32820275D01*
X41386803Y-32799643D01*
X41386808Y-32799636D01*
X41386811Y-32799634D01*
X41386818Y-32799626D01*
X42057037Y-32129408D01*
X42074075Y-32192993D01*
X42139901Y-32307007D01*
X42232993Y-32400099D01*
X42347007Y-32465925D01*
X42410590Y-32482962D01*
X41778282Y-33115269D01*
X41778282Y-33115270D01*
X41832449Y-33154624D01*
X42021782Y-33251095D01*
X42223870Y-33316757D01*
X42433754Y-33350000D01*
X42646246Y-33350000D01*
X42856127Y-33316757D01*
X42856130Y-33316757D01*
X43058217Y-33251095D01*
X43247554Y-33154622D01*
X43301716Y-33115270D01*
X43301717Y-33115270D01*
X42669408Y-32482962D01*
X42732993Y-32465925D01*
X42847007Y-32400099D01*
X42940099Y-32307007D01*
X43005925Y-32192993D01*
X43022962Y-32129408D01*
X43655270Y-32761717D01*
X43655270Y-32761716D01*
X43694622Y-32707554D01*
X43791095Y-32518217D01*
X43856757Y-32316130D01*
X43856757Y-32316127D01*
X43890000Y-32106246D01*
X43890000Y-31893753D01*
X43856757Y-31683872D01*
X43856757Y-31683869D01*
X43791095Y-31481782D01*
X43694624Y-31292449D01*
X43655270Y-31238282D01*
X43655269Y-31238282D01*
X43022962Y-31870590D01*
X43005925Y-31807007D01*
X42940099Y-31692993D01*
X42847007Y-31599901D01*
X42732993Y-31534075D01*
X42669409Y-31517037D01*
X43301716Y-30884728D01*
X43247550Y-30845375D01*
X43058217Y-30748904D01*
X42856129Y-30683242D01*
X42646246Y-30650000D01*
X42433754Y-30650000D01*
X42223872Y-30683242D01*
X42223869Y-30683242D01*
X42021782Y-30748904D01*
X41832439Y-30845380D01*
X41778282Y-30884727D01*
X41778282Y-30884728D01*
X42410591Y-31517037D01*
X42347007Y-31534075D01*
X42232993Y-31599901D01*
X42139901Y-31692993D01*
X42074075Y-31807007D01*
X42057037Y-31870591D01*
X41386818Y-31200372D01*
X41353333Y-31139049D01*
X41353330Y-31139036D01*
X41350499Y-31126015D01*
X41350499Y-31102128D01*
X41344091Y-31042517D01*
X41303657Y-30934108D01*
X41293798Y-30907673D01*
X41293793Y-30907664D01*
X41207547Y-30792455D01*
X41207544Y-30792452D01*
X41092335Y-30706206D01*
X41092328Y-30706202D01*
X40957482Y-30655908D01*
X40957483Y-30655908D01*
X40897883Y-30649501D01*
X40897881Y-30649500D01*
X40897873Y-30649500D01*
X40897864Y-30649500D01*
X39102129Y-30649500D01*
X39102123Y-30649501D01*
X39042516Y-30655908D01*
X38907671Y-30706202D01*
X38907664Y-30706206D01*
X38792455Y-30792452D01*
X38792452Y-30792455D01*
X38706206Y-30907664D01*
X38706202Y-30907671D01*
X38655908Y-31042517D01*
X38649501Y-31102116D01*
X38649500Y-31102135D01*
X36230000Y-31102135D01*
X36230000Y-29334000D01*
X36249685Y-29266961D01*
X36302489Y-29221206D01*
X36354000Y-29210000D01*
X75876000Y-29210000D01*
X75943039Y-29229685D01*
G37*
%TD.AperFunction*%
%TD*%
%TA.AperFunction,Conductor*%
%TO.N,TX*%
G36*
X40423377Y-98763680D02*
G01*
X40429418Y-98770290D01*
X40429889Y-98771970D01*
X40515535Y-99197692D01*
X40515535Y-99202308D01*
X40429889Y-99628029D01*
X40424898Y-99635463D01*
X40416111Y-99637191D01*
X40414431Y-99636720D01*
X39631359Y-99352796D01*
X39624749Y-99346755D01*
X39623647Y-99341797D01*
X39623647Y-99058202D01*
X39627074Y-99049929D01*
X39631356Y-99047204D01*
X40414433Y-98763279D01*
X40423377Y-98763680D01*
G37*
%TD.AperFunction*%
%TD*%
%TA.AperFunction,Conductor*%
%TO.N,RX*%
G36*
X40425535Y-97512173D02*
G01*
X40429209Y-97518589D01*
X40515038Y-97945221D01*
X40513310Y-97954008D01*
X40513284Y-97954047D01*
X40272193Y-98313427D01*
X40264738Y-98318388D01*
X40255959Y-98316625D01*
X40255027Y-98315930D01*
X39695086Y-97853509D01*
X39690889Y-97845599D01*
X39690836Y-97844488D01*
X39690836Y-97561061D01*
X39694263Y-97552788D01*
X39701877Y-97549379D01*
X40417084Y-97509215D01*
X40425535Y-97512173D01*
G37*
%TD.AperFunction*%
%TD*%
M02*
