M48
; DRILL file {KiCad 9.0.5} date 2025-11-19T18:58:30+0100
; FORMAT={-:-/ absolute / metric / decimal}
; #@! TF.CreationDate,2025-11-19T18:58:30+01:00
; #@! TF.GenerationSoftware,Kicad,Pcbnew,9.0.5
; #@! TF.FileFunction,Plated,1,2,PTH
FMAT,2
METRIC
; #@! TA.AperFunction,Plated,PTH,ViaDrill
T1C0.300
; #@! TA.AperFunction,Plated,PTH,ComponentDrill
T2C0.300
; #@! TA.AperFunction,Plated,PTH,ViaDrill
T3C0.400
; #@! TA.AperFunction,Plated,PTH,ComponentDrill
T4C1.000
%
G90
G05
T1
X39.37Y-101.6
X43.18Y-101.6
X44.8Y-41.4
X44.8Y-43.432
X45.2Y-35.1
X51.8Y-35.7
X51.8Y-40.4
X51.8Y-42.5
X53.3Y-56.2
X54.5Y-35.7
X61.2Y-57.8
X61.8Y-58.4
X64.0Y-47.5
X64.77Y-60.96
X64.77Y-68.58
X67.564Y-38.1
X69.5Y-52.2
X70.912Y-65.0
X71.0Y-47.0
X71.0Y-62.0
X71.12Y-68.58
X73.9Y-72.0
X74.0Y-66.9
X74.93Y-78.74
X79.0Y-39.0
X79.0Y-45.5
X79.1Y-53.5
X79.4Y-79.7
X79.6Y-65.0
X80.01Y-72.39
X82.0Y-76.9
X82.55Y-72.39
X85.1Y-45.5
X85.2Y-53.5
X86.7Y-59.9
X87.0Y-39.0
X87.9Y-46.0
X88.3Y-53.5
X95.25Y-52.07
X95.504Y-38.354
X95.9Y-45.7
X96.52Y-49.53
X100.33Y-43.18
X100.33Y-46.99
X101.6Y-53.1
X104.14Y-55.88
X107.0Y-49.5
X116.5Y-48.0
X124.46Y-48.26
T3
X50.8Y-51.6
X63.912Y-42.0
X128.5Y-35.5
X138.5Y-34.0
X138.5Y-43.0
X138.5Y-52.5
X138.5Y-62.0
X138.5Y-71.5
T4
X40.0Y-32.0
X41.91Y-50.8
X42.54Y-32.0
X44.45Y-50.8
X46.99Y-50.8
X75.05Y-35.76
X75.05Y-38.3
X75.05Y-40.84
X75.05Y-43.38
X75.05Y-45.92
X75.05Y-48.46
X75.05Y-51.0
X75.05Y-53.54
X75.05Y-56.08
X75.05Y-58.62
X80.24Y-84.42
X82.78Y-84.42
X85.32Y-84.42
X87.86Y-84.42
X90.3Y-35.76
X90.3Y-38.3
X90.3Y-40.84
X90.3Y-43.38
X90.3Y-45.92
X90.3Y-48.46
X90.3Y-51.0
X90.3Y-53.54
X90.3Y-56.08
X90.3Y-58.62
X95.22Y-84.38
X97.76Y-84.38
X100.3Y-84.38
X102.84Y-84.38
X115.46Y-81.73
X118.0Y-81.73
X120.54Y-81.73
X123.08Y-81.73
X130.81Y-96.52
X130.81Y-99.06
X130.81Y-101.6
X130.81Y-104.14
T2
X40.515Y-97.775G85X40.515Y-98.125
G05
X40.515Y-99.025G85X40.515Y-99.375
G05
X40.515Y-100.275G85X40.515Y-100.625
G05
X40.515Y-101.525G85X40.515Y-101.875
G05
X40.515Y-102.775G85X40.515Y-103.125
G05
X41.765Y-97.775G85X41.765Y-98.125
G05
X41.765Y-99.025G85X41.765Y-99.375
G05
X41.765Y-100.275G85X41.765Y-100.625
G05
X41.765Y-101.55G85X41.765Y-101.85
G05
X41.765Y-102.775G85X41.765Y-103.125
G05
M30
