%TF.GenerationSoftware,KiCad,Pcbnew,9.0.5*%
%TF.CreationDate,2025-11-19T18:58:22+01:00*%
%TF.ProjectId,aeris,61657269-732e-46b6-9963-61645f706362,rev?*%
%TF.SameCoordinates,Original*%
%TF.FileFunction,Soldermask,Top*%
%TF.FilePolarity,Negative*%
%FSLAX46Y46*%
G04 Gerber Fmt 4.6, Leading zero omitted, Abs format (unit mm)*
G04 Created by KiCad (PCBNEW 9.0.5) date 2025-11-19 18:58:22*
%MOMM*%
%LPD*%
G01*
G04 APERTURE LIST*
G04 Aperture macros list*
%AMRoundRect*
0 Rectangle with rounded corners*
0 $1 Rounding radius*
0 $2 $3 $4 $5 $6 $7 $8 $9 X,Y pos of 4 corners*
0 Add a 4 corners polygon primitive as box body*
4,1,4,$2,$3,$4,$5,$6,$7,$8,$9,$2,$3,0*
0 Add four circle primitives for the rounded corners*
1,1,$1+$1,$2,$3*
1,1,$1+$1,$4,$5*
1,1,$1+$1,$6,$7*
1,1,$1+$1,$8,$9*
0 Add four rect primitives between the rounded corners*
20,1,$1+$1,$2,$3,$4,$5,0*
20,1,$1+$1,$4,$5,$6,$7,0*
20,1,$1+$1,$6,$7,$8,$9,0*
20,1,$1+$1,$8,$9,$2,$3,0*%
G04 Aperture macros list end*
%ADD10R,3.700000X1.700000*%
%ADD11R,1.600000X0.850000*%
%ADD12RoundRect,0.250000X-0.262500X-0.450000X0.262500X-0.450000X0.262500X0.450000X-0.262500X0.450000X0*%
%ADD13C,1.700000*%
%ADD14R,1.700000X1.700000*%
%ADD15C,2.200000*%
%ADD16RoundRect,0.250000X-0.375000X-0.625000X0.375000X-0.625000X0.375000X0.625000X-0.375000X0.625000X0*%
%ADD17RoundRect,0.150000X0.150000X-0.587500X0.150000X0.587500X-0.150000X0.587500X-0.150000X-0.587500X0*%
%ADD18RoundRect,0.250000X-0.250000X-0.475000X0.250000X-0.475000X0.250000X0.475000X-0.250000X0.475000X0*%
%ADD19RoundRect,0.250000X0.450000X-0.262500X0.450000X0.262500X-0.450000X0.262500X-0.450000X-0.262500X0*%
%ADD20RoundRect,0.250000X-0.550000X1.500000X-0.550000X-1.500000X0.550000X-1.500000X0.550000X1.500000X0*%
%ADD21RoundRect,0.250000X0.475000X-0.250000X0.475000X0.250000X-0.475000X0.250000X-0.475000X-0.250000X0*%
%ADD22RoundRect,0.250000X0.275000X0.700000X-0.275000X0.700000X-0.275000X-0.700000X0.275000X-0.700000X0*%
%ADD23RoundRect,0.250000X-0.475000X0.250000X-0.475000X-0.250000X0.475000X-0.250000X0.475000X0.250000X0*%
%ADD24RoundRect,0.250000X-0.325000X-0.650000X0.325000X-0.650000X0.325000X0.650000X-0.325000X0.650000X0*%
%ADD25RoundRect,0.250000X0.262500X0.450000X-0.262500X0.450000X-0.262500X-0.450000X0.262500X-0.450000X0*%
%ADD26RoundRect,0.250000X0.900000X-1.000000X0.900000X1.000000X-0.900000X1.000000X-0.900000X-1.000000X0*%
%ADD27RoundRect,0.150000X-0.875000X-0.150000X0.875000X-0.150000X0.875000X0.150000X-0.875000X0.150000X0*%
%ADD28RoundRect,0.250000X-0.450000X0.262500X-0.450000X-0.262500X0.450000X-0.262500X0.450000X0.262500X0*%
%ADD29C,0.900000*%
G04 APERTURE END LIST*
D10*
%TO.C,U1*%
X91400000Y-58620000D03*
X91400000Y-56080000D03*
X91400000Y-53540000D03*
X91400000Y-51000000D03*
X91400000Y-48460000D03*
X91400000Y-45920000D03*
X91400000Y-43380000D03*
X91400000Y-40840000D03*
X91400000Y-38300000D03*
X91400000Y-35760000D03*
X73950000Y-58620000D03*
X73950000Y-56080000D03*
X73950000Y-53540000D03*
X73950000Y-51000000D03*
X73950000Y-48460000D03*
X73950000Y-45920000D03*
X73950000Y-43380000D03*
X73950000Y-40840000D03*
X73950000Y-38300000D03*
X73950000Y-35760000D03*
%TD*%
D11*
%TO.C,D3*%
X142500000Y-50750000D03*
X142500000Y-49000000D03*
X139000000Y-49000000D03*
X139000000Y-50750000D03*
%TD*%
%TO.C,D2*%
X142500000Y-41250000D03*
X142500000Y-39500000D03*
X139000000Y-39500000D03*
X139000000Y-41250000D03*
%TD*%
%TO.C,D5*%
X142500000Y-69750000D03*
X142500000Y-68000000D03*
X139000000Y-68000000D03*
X139000000Y-69750000D03*
%TD*%
D12*
%TO.C,R6*%
X56587500Y-59500000D03*
X58412500Y-59500000D03*
%TD*%
D13*
%TO.C,J4*%
X95220000Y-84380000D03*
D14*
X97760000Y-84380000D03*
D13*
X100300000Y-84380000D03*
X102840000Y-84380000D03*
%TD*%
D15*
%TO.C,H3*%
X39500000Y-43000000D03*
%TD*%
D14*
%TO.C,J7*%
X46990000Y-50800000D03*
D13*
X44450000Y-50800000D03*
X41910000Y-50800000D03*
%TD*%
D12*
%TO.C,R4*%
X83820000Y-63500000D03*
X85645000Y-63500000D03*
%TD*%
D15*
%TO.C,H1*%
X119000000Y-105000000D03*
%TD*%
D16*
%TO.C,F1*%
X40000000Y-38000000D03*
X42800000Y-38000000D03*
%TD*%
D14*
%TO.C,J6*%
X40000000Y-32000000D03*
D13*
X42540000Y-32000000D03*
%TD*%
D17*
%TO.C,Q2*%
X56550000Y-55437500D03*
X58450000Y-55437500D03*
X57500000Y-53562500D03*
%TD*%
D18*
%TO.C,C6*%
X138450000Y-63900000D03*
X140350000Y-63900000D03*
%TD*%
D11*
%TO.C,D4*%
X142500000Y-60250000D03*
X142500000Y-58500000D03*
X139000000Y-58500000D03*
X139000000Y-60250000D03*
%TD*%
D15*
%TO.C,H5*%
X76500000Y-105000000D03*
%TD*%
D19*
%TO.C,R11*%
X134750000Y-50787500D03*
X134750000Y-48962500D03*
%TD*%
D20*
%TO.C,C3*%
X59500000Y-32200000D03*
X59500000Y-37800000D03*
%TD*%
D19*
%TO.C,R9*%
X134750000Y-32287500D03*
X134750000Y-30462500D03*
%TD*%
D13*
%TO.C,J2*%
X130810000Y-96520000D03*
D14*
X130810000Y-99060000D03*
D13*
X130810000Y-101600000D03*
X130810000Y-104140000D03*
%TD*%
D21*
%TO.C,C4*%
X67400000Y-34100000D03*
X67400000Y-32200000D03*
%TD*%
D13*
%TO.C,J5*%
X115460000Y-81730000D03*
D14*
X118000000Y-81730000D03*
D13*
X120540000Y-81730000D03*
X123080000Y-81730000D03*
%TD*%
D22*
%TO.C,FB1*%
X51500000Y-32200000D03*
X48350000Y-32200000D03*
%TD*%
D15*
%TO.C,H2*%
X142000000Y-85630000D03*
%TD*%
D23*
%TO.C,C10*%
X125500000Y-43600000D03*
X125500000Y-45500000D03*
%TD*%
D15*
%TO.C,H4*%
X115500000Y-32000000D03*
%TD*%
D24*
%TO.C,C1*%
X98025000Y-36000000D03*
X100975000Y-36000000D03*
%TD*%
D18*
%TO.C,C2*%
X98050000Y-31900000D03*
X99950000Y-31900000D03*
%TD*%
D25*
%TO.C,R3*%
X70912500Y-65000000D03*
X69087500Y-65000000D03*
%TD*%
D19*
%TO.C,R10*%
X134750000Y-41287500D03*
X134750000Y-39462500D03*
%TD*%
D26*
%TO.C,D0*%
X48300000Y-42350000D03*
X48300000Y-38050000D03*
%TD*%
D12*
%TO.C,R8*%
X50775000Y-53600000D03*
X52600000Y-53600000D03*
%TD*%
D27*
%TO.C,U2*%
X110850000Y-44285000D03*
X110850000Y-45555000D03*
X110850000Y-46825000D03*
X110850000Y-48095000D03*
X110850000Y-49365000D03*
X110850000Y-50635000D03*
X110850000Y-51905000D03*
X110850000Y-53175000D03*
X110850000Y-54445000D03*
X110850000Y-55715000D03*
X120150000Y-55715000D03*
X120150000Y-54445000D03*
X120150000Y-53175000D03*
X120150000Y-51905000D03*
X120150000Y-50635000D03*
X120150000Y-49365000D03*
X120150000Y-48095000D03*
X120150000Y-46825000D03*
X120150000Y-45555000D03*
X120150000Y-44285000D03*
%TD*%
D17*
%TO.C,Q1*%
X56550000Y-45437500D03*
X58450000Y-45437500D03*
X57500000Y-43562500D03*
%TD*%
D19*
%TO.C,R1*%
X66900000Y-56525000D03*
X66900000Y-54700000D03*
%TD*%
%TO.C,R13*%
X134750000Y-69787500D03*
X134750000Y-67962500D03*
%TD*%
D18*
%TO.C,C7*%
X138450000Y-73700000D03*
X140350000Y-73700000D03*
%TD*%
D19*
%TO.C,R12*%
X134750000Y-60287500D03*
X134750000Y-58462500D03*
%TD*%
D11*
%TO.C,D1*%
X142500000Y-32250000D03*
X142500000Y-30500000D03*
X139000000Y-30500000D03*
X139000000Y-32250000D03*
%TD*%
D12*
%TO.C,R5*%
X56587500Y-49500000D03*
X58412500Y-49500000D03*
%TD*%
D18*
%TO.C,C5*%
X138550000Y-54400000D03*
X140450000Y-54400000D03*
%TD*%
D13*
%TO.C,J3*%
X87860000Y-84420000D03*
X85320000Y-84420000D03*
X82780000Y-84420000D03*
D14*
X80240000Y-84420000D03*
%TD*%
D25*
%TO.C,R7*%
X63912500Y-42000000D03*
X62087500Y-42000000D03*
%TD*%
D18*
%TO.C,C9*%
X138550000Y-44900000D03*
X140450000Y-44900000D03*
%TD*%
D28*
%TO.C,R2*%
X67000000Y-60500000D03*
X67000000Y-62325000D03*
%TD*%
D18*
%TO.C,C8*%
X138550000Y-35900000D03*
X140450000Y-35900000D03*
%TD*%
D29*
%TO.C,J1*%
X40515000Y-102950000D03*
X41765000Y-102950000D03*
X40515000Y-101700000D03*
X41765000Y-101700000D03*
X40515000Y-100450000D03*
X41765000Y-100450000D03*
X40515000Y-99200000D03*
X41765000Y-99200000D03*
X40515000Y-97950000D03*
X41765000Y-97950000D03*
%TD*%
M02*
