%TF.GenerationSoftware,KiCad,Pcbnew,9.0.5*%
%TF.CreationDate,2025-11-19T18:58:22+01:00*%
%TF.ProjectId,aeris,61657269-732e-46b6-9963-61645f706362,rev?*%
%TF.SameCoordinates,Original*%
%TF.FileFunction,Legend,Top*%
%TF.FilePolarity,Positive*%
%FSLAX46Y46*%
G04 Gerber Fmt 4.6, Leading zero omitted, Abs format (unit mm)*
G04 Created by KiCad (PCBNEW 9.0.5) date 2025-11-19 18:58:22*
%MOMM*%
%LPD*%
G01*
G04 APERTURE LIST*
%ADD10C,0.150000*%
%ADD11C,0.100000*%
%ADD12C,0.300000*%
%ADD13C,0.200000*%
%ADD14C,0.120000*%
G04 APERTURE END LIST*
D10*
X56460588Y-51669819D02*
X55889160Y-51669819D01*
X56174874Y-51669819D02*
X56174874Y-50669819D01*
X56174874Y-50669819D02*
X56079636Y-50812676D01*
X56079636Y-50812676D02*
X55984398Y-50907914D01*
X55984398Y-50907914D02*
X55889160Y-50955533D01*
X57079636Y-50669819D02*
X57174874Y-50669819D01*
X57174874Y-50669819D02*
X57270112Y-50717438D01*
X57270112Y-50717438D02*
X57317731Y-50765057D01*
X57317731Y-50765057D02*
X57365350Y-50860295D01*
X57365350Y-50860295D02*
X57412969Y-51050771D01*
X57412969Y-51050771D02*
X57412969Y-51288866D01*
X57412969Y-51288866D02*
X57365350Y-51479342D01*
X57365350Y-51479342D02*
X57317731Y-51574580D01*
X57317731Y-51574580D02*
X57270112Y-51622200D01*
X57270112Y-51622200D02*
X57174874Y-51669819D01*
X57174874Y-51669819D02*
X57079636Y-51669819D01*
X57079636Y-51669819D02*
X56984398Y-51622200D01*
X56984398Y-51622200D02*
X56936779Y-51574580D01*
X56936779Y-51574580D02*
X56889160Y-51479342D01*
X56889160Y-51479342D02*
X56841541Y-51288866D01*
X56841541Y-51288866D02*
X56841541Y-51050771D01*
X56841541Y-51050771D02*
X56889160Y-50860295D01*
X56889160Y-50860295D02*
X56936779Y-50765057D01*
X56936779Y-50765057D02*
X56984398Y-50717438D01*
X56984398Y-50717438D02*
X57079636Y-50669819D01*
X57841541Y-51669819D02*
X57841541Y-50669819D01*
X58412969Y-51669819D02*
X57984398Y-51098390D01*
X58412969Y-50669819D02*
X57841541Y-51241247D01*
X58793922Y-51669819D02*
X59032017Y-51669819D01*
X59032017Y-51669819D02*
X59032017Y-51479342D01*
X59032017Y-51479342D02*
X58936779Y-51431723D01*
X58936779Y-51431723D02*
X58841541Y-51336485D01*
X58841541Y-51336485D02*
X58793922Y-51193628D01*
X58793922Y-51193628D02*
X58793922Y-50955533D01*
X58793922Y-50955533D02*
X58841541Y-50812676D01*
X58841541Y-50812676D02*
X58936779Y-50717438D01*
X58936779Y-50717438D02*
X59079636Y-50669819D01*
X59079636Y-50669819D02*
X59270112Y-50669819D01*
X59270112Y-50669819D02*
X59412969Y-50717438D01*
X59412969Y-50717438D02*
X59508207Y-50812676D01*
X59508207Y-50812676D02*
X59555826Y-50955533D01*
X59555826Y-50955533D02*
X59555826Y-51193628D01*
X59555826Y-51193628D02*
X59508207Y-51336485D01*
X59508207Y-51336485D02*
X59412969Y-51431723D01*
X59412969Y-51431723D02*
X59317731Y-51479342D01*
X59317731Y-51479342D02*
X59317731Y-51669819D01*
X59317731Y-51669819D02*
X59555826Y-51669819D01*
X52460588Y-55769819D02*
X51889160Y-55769819D01*
X52174874Y-55769819D02*
X52174874Y-54769819D01*
X52174874Y-54769819D02*
X52079636Y-54912676D01*
X52079636Y-54912676D02*
X51984398Y-55007914D01*
X51984398Y-55007914D02*
X51889160Y-55055533D01*
X53079636Y-54769819D02*
X53174874Y-54769819D01*
X53174874Y-54769819D02*
X53270112Y-54817438D01*
X53270112Y-54817438D02*
X53317731Y-54865057D01*
X53317731Y-54865057D02*
X53365350Y-54960295D01*
X53365350Y-54960295D02*
X53412969Y-55150771D01*
X53412969Y-55150771D02*
X53412969Y-55388866D01*
X53412969Y-55388866D02*
X53365350Y-55579342D01*
X53365350Y-55579342D02*
X53317731Y-55674580D01*
X53317731Y-55674580D02*
X53270112Y-55722200D01*
X53270112Y-55722200D02*
X53174874Y-55769819D01*
X53174874Y-55769819D02*
X53079636Y-55769819D01*
X53079636Y-55769819D02*
X52984398Y-55722200D01*
X52984398Y-55722200D02*
X52936779Y-55674580D01*
X52936779Y-55674580D02*
X52889160Y-55579342D01*
X52889160Y-55579342D02*
X52841541Y-55388866D01*
X52841541Y-55388866D02*
X52841541Y-55150771D01*
X52841541Y-55150771D02*
X52889160Y-54960295D01*
X52889160Y-54960295D02*
X52936779Y-54865057D01*
X52936779Y-54865057D02*
X52984398Y-54817438D01*
X52984398Y-54817438D02*
X53079636Y-54769819D01*
X53841541Y-55769819D02*
X53841541Y-54769819D01*
X54412969Y-55769819D02*
X53984398Y-55198390D01*
X54412969Y-54769819D02*
X53841541Y-55341247D01*
X54793922Y-55769819D02*
X55032017Y-55769819D01*
X55032017Y-55769819D02*
X55032017Y-55579342D01*
X55032017Y-55579342D02*
X54936779Y-55531723D01*
X54936779Y-55531723D02*
X54841541Y-55436485D01*
X54841541Y-55436485D02*
X54793922Y-55293628D01*
X54793922Y-55293628D02*
X54793922Y-55055533D01*
X54793922Y-55055533D02*
X54841541Y-54912676D01*
X54841541Y-54912676D02*
X54936779Y-54817438D01*
X54936779Y-54817438D02*
X55079636Y-54769819D01*
X55079636Y-54769819D02*
X55270112Y-54769819D01*
X55270112Y-54769819D02*
X55412969Y-54817438D01*
X55412969Y-54817438D02*
X55508207Y-54912676D01*
X55508207Y-54912676D02*
X55555826Y-55055533D01*
X55555826Y-55055533D02*
X55555826Y-55293628D01*
X55555826Y-55293628D02*
X55508207Y-55436485D01*
X55508207Y-55436485D02*
X55412969Y-55531723D01*
X55412969Y-55531723D02*
X55317731Y-55579342D01*
X55317731Y-55579342D02*
X55317731Y-55769819D01*
X55317731Y-55769819D02*
X55555826Y-55769819D01*
X62060588Y-44169819D02*
X61489160Y-44169819D01*
X61774874Y-44169819D02*
X61774874Y-43169819D01*
X61774874Y-43169819D02*
X61679636Y-43312676D01*
X61679636Y-43312676D02*
X61584398Y-43407914D01*
X61584398Y-43407914D02*
X61489160Y-43455533D01*
X62679636Y-43169819D02*
X62774874Y-43169819D01*
X62774874Y-43169819D02*
X62870112Y-43217438D01*
X62870112Y-43217438D02*
X62917731Y-43265057D01*
X62917731Y-43265057D02*
X62965350Y-43360295D01*
X62965350Y-43360295D02*
X63012969Y-43550771D01*
X63012969Y-43550771D02*
X63012969Y-43788866D01*
X63012969Y-43788866D02*
X62965350Y-43979342D01*
X62965350Y-43979342D02*
X62917731Y-44074580D01*
X62917731Y-44074580D02*
X62870112Y-44122200D01*
X62870112Y-44122200D02*
X62774874Y-44169819D01*
X62774874Y-44169819D02*
X62679636Y-44169819D01*
X62679636Y-44169819D02*
X62584398Y-44122200D01*
X62584398Y-44122200D02*
X62536779Y-44074580D01*
X62536779Y-44074580D02*
X62489160Y-43979342D01*
X62489160Y-43979342D02*
X62441541Y-43788866D01*
X62441541Y-43788866D02*
X62441541Y-43550771D01*
X62441541Y-43550771D02*
X62489160Y-43360295D01*
X62489160Y-43360295D02*
X62536779Y-43265057D01*
X62536779Y-43265057D02*
X62584398Y-43217438D01*
X62584398Y-43217438D02*
X62679636Y-43169819D01*
X63441541Y-44169819D02*
X63441541Y-43169819D01*
X64012969Y-44169819D02*
X63584398Y-43598390D01*
X64012969Y-43169819D02*
X63441541Y-43741247D01*
X64393922Y-44169819D02*
X64632017Y-44169819D01*
X64632017Y-44169819D02*
X64632017Y-43979342D01*
X64632017Y-43979342D02*
X64536779Y-43931723D01*
X64536779Y-43931723D02*
X64441541Y-43836485D01*
X64441541Y-43836485D02*
X64393922Y-43693628D01*
X64393922Y-43693628D02*
X64393922Y-43455533D01*
X64393922Y-43455533D02*
X64441541Y-43312676D01*
X64441541Y-43312676D02*
X64536779Y-43217438D01*
X64536779Y-43217438D02*
X64679636Y-43169819D01*
X64679636Y-43169819D02*
X64870112Y-43169819D01*
X64870112Y-43169819D02*
X65012969Y-43217438D01*
X65012969Y-43217438D02*
X65108207Y-43312676D01*
X65108207Y-43312676D02*
X65155826Y-43455533D01*
X65155826Y-43455533D02*
X65155826Y-43693628D01*
X65155826Y-43693628D02*
X65108207Y-43836485D01*
X65108207Y-43836485D02*
X65012969Y-43931723D01*
X65012969Y-43931723D02*
X64917731Y-43979342D01*
X64917731Y-43979342D02*
X64917731Y-44169819D01*
X64917731Y-44169819D02*
X65155826Y-44169819D01*
X54060588Y-61669819D02*
X53489160Y-61669819D01*
X53774874Y-61669819D02*
X53774874Y-60669819D01*
X53774874Y-60669819D02*
X53679636Y-60812676D01*
X53679636Y-60812676D02*
X53584398Y-60907914D01*
X53584398Y-60907914D02*
X53489160Y-60955533D01*
X54679636Y-60669819D02*
X54774874Y-60669819D01*
X54774874Y-60669819D02*
X54870112Y-60717438D01*
X54870112Y-60717438D02*
X54917731Y-60765057D01*
X54917731Y-60765057D02*
X54965350Y-60860295D01*
X54965350Y-60860295D02*
X55012969Y-61050771D01*
X55012969Y-61050771D02*
X55012969Y-61288866D01*
X55012969Y-61288866D02*
X54965350Y-61479342D01*
X54965350Y-61479342D02*
X54917731Y-61574580D01*
X54917731Y-61574580D02*
X54870112Y-61622200D01*
X54870112Y-61622200D02*
X54774874Y-61669819D01*
X54774874Y-61669819D02*
X54679636Y-61669819D01*
X54679636Y-61669819D02*
X54584398Y-61622200D01*
X54584398Y-61622200D02*
X54536779Y-61574580D01*
X54536779Y-61574580D02*
X54489160Y-61479342D01*
X54489160Y-61479342D02*
X54441541Y-61288866D01*
X54441541Y-61288866D02*
X54441541Y-61050771D01*
X54441541Y-61050771D02*
X54489160Y-60860295D01*
X54489160Y-60860295D02*
X54536779Y-60765057D01*
X54536779Y-60765057D02*
X54584398Y-60717438D01*
X54584398Y-60717438D02*
X54679636Y-60669819D01*
X55441541Y-61669819D02*
X55441541Y-60669819D01*
X56012969Y-61669819D02*
X55584398Y-61098390D01*
X56012969Y-60669819D02*
X55441541Y-61241247D01*
X56393922Y-61669819D02*
X56632017Y-61669819D01*
X56632017Y-61669819D02*
X56632017Y-61479342D01*
X56632017Y-61479342D02*
X56536779Y-61431723D01*
X56536779Y-61431723D02*
X56441541Y-61336485D01*
X56441541Y-61336485D02*
X56393922Y-61193628D01*
X56393922Y-61193628D02*
X56393922Y-60955533D01*
X56393922Y-60955533D02*
X56441541Y-60812676D01*
X56441541Y-60812676D02*
X56536779Y-60717438D01*
X56536779Y-60717438D02*
X56679636Y-60669819D01*
X56679636Y-60669819D02*
X56870112Y-60669819D01*
X56870112Y-60669819D02*
X57012969Y-60717438D01*
X57012969Y-60717438D02*
X57108207Y-60812676D01*
X57108207Y-60812676D02*
X57155826Y-60955533D01*
X57155826Y-60955533D02*
X57155826Y-61193628D01*
X57155826Y-61193628D02*
X57108207Y-61336485D01*
X57108207Y-61336485D02*
X57012969Y-61431723D01*
X57012969Y-61431723D02*
X56917731Y-61479342D01*
X56917731Y-61479342D02*
X56917731Y-61669819D01*
X56917731Y-61669819D02*
X57155826Y-61669819D01*
X65765350Y-52803152D02*
X65765350Y-53469819D01*
X65527255Y-52422200D02*
X65289160Y-53136485D01*
X65289160Y-53136485D02*
X65908207Y-53136485D01*
X66289160Y-53374580D02*
X66336779Y-53422200D01*
X66336779Y-53422200D02*
X66289160Y-53469819D01*
X66289160Y-53469819D02*
X66241541Y-53422200D01*
X66241541Y-53422200D02*
X66289160Y-53374580D01*
X66289160Y-53374580D02*
X66289160Y-53469819D01*
X66670112Y-52469819D02*
X67336778Y-52469819D01*
X67336778Y-52469819D02*
X66908207Y-53469819D01*
X67717731Y-53469819D02*
X67717731Y-52469819D01*
X68289159Y-53469819D02*
X67860588Y-52898390D01*
X68289159Y-52469819D02*
X67717731Y-53041247D01*
X68670112Y-53469819D02*
X68908207Y-53469819D01*
X68908207Y-53469819D02*
X68908207Y-53279342D01*
X68908207Y-53279342D02*
X68812969Y-53231723D01*
X68812969Y-53231723D02*
X68717731Y-53136485D01*
X68717731Y-53136485D02*
X68670112Y-52993628D01*
X68670112Y-52993628D02*
X68670112Y-52755533D01*
X68670112Y-52755533D02*
X68717731Y-52612676D01*
X68717731Y-52612676D02*
X68812969Y-52517438D01*
X68812969Y-52517438D02*
X68955826Y-52469819D01*
X68955826Y-52469819D02*
X69146302Y-52469819D01*
X69146302Y-52469819D02*
X69289159Y-52517438D01*
X69289159Y-52517438D02*
X69384397Y-52612676D01*
X69384397Y-52612676D02*
X69432016Y-52755533D01*
X69432016Y-52755533D02*
X69432016Y-52993628D01*
X69432016Y-52993628D02*
X69384397Y-53136485D01*
X69384397Y-53136485D02*
X69289159Y-53231723D01*
X69289159Y-53231723D02*
X69193921Y-53279342D01*
X69193921Y-53279342D02*
X69193921Y-53469819D01*
X69193921Y-53469819D02*
X69432016Y-53469819D01*
X65665350Y-58503152D02*
X65665350Y-59169819D01*
X65427255Y-58122200D02*
X65189160Y-58836485D01*
X65189160Y-58836485D02*
X65808207Y-58836485D01*
X66189160Y-59074580D02*
X66236779Y-59122200D01*
X66236779Y-59122200D02*
X66189160Y-59169819D01*
X66189160Y-59169819D02*
X66141541Y-59122200D01*
X66141541Y-59122200D02*
X66189160Y-59074580D01*
X66189160Y-59074580D02*
X66189160Y-59169819D01*
X66570112Y-58169819D02*
X67236778Y-58169819D01*
X67236778Y-58169819D02*
X66808207Y-59169819D01*
X67617731Y-59169819D02*
X67617731Y-58169819D01*
X68189159Y-59169819D02*
X67760588Y-58598390D01*
X68189159Y-58169819D02*
X67617731Y-58741247D01*
X68570112Y-59169819D02*
X68808207Y-59169819D01*
X68808207Y-59169819D02*
X68808207Y-58979342D01*
X68808207Y-58979342D02*
X68712969Y-58931723D01*
X68712969Y-58931723D02*
X68617731Y-58836485D01*
X68617731Y-58836485D02*
X68570112Y-58693628D01*
X68570112Y-58693628D02*
X68570112Y-58455533D01*
X68570112Y-58455533D02*
X68617731Y-58312676D01*
X68617731Y-58312676D02*
X68712969Y-58217438D01*
X68712969Y-58217438D02*
X68855826Y-58169819D01*
X68855826Y-58169819D02*
X69046302Y-58169819D01*
X69046302Y-58169819D02*
X69189159Y-58217438D01*
X69189159Y-58217438D02*
X69284397Y-58312676D01*
X69284397Y-58312676D02*
X69332016Y-58455533D01*
X69332016Y-58455533D02*
X69332016Y-58693628D01*
X69332016Y-58693628D02*
X69284397Y-58836485D01*
X69284397Y-58836485D02*
X69189159Y-58931723D01*
X69189159Y-58931723D02*
X69093921Y-58979342D01*
X69093921Y-58979342D02*
X69093921Y-59169819D01*
X69093921Y-59169819D02*
X69332016Y-59169819D01*
X68960588Y-63769819D02*
X68389160Y-63769819D01*
X68674874Y-63769819D02*
X68674874Y-62769819D01*
X68674874Y-62769819D02*
X68579636Y-62912676D01*
X68579636Y-62912676D02*
X68484398Y-63007914D01*
X68484398Y-63007914D02*
X68389160Y-63055533D01*
X69579636Y-62769819D02*
X69674874Y-62769819D01*
X69674874Y-62769819D02*
X69770112Y-62817438D01*
X69770112Y-62817438D02*
X69817731Y-62865057D01*
X69817731Y-62865057D02*
X69865350Y-62960295D01*
X69865350Y-62960295D02*
X69912969Y-63150771D01*
X69912969Y-63150771D02*
X69912969Y-63388866D01*
X69912969Y-63388866D02*
X69865350Y-63579342D01*
X69865350Y-63579342D02*
X69817731Y-63674580D01*
X69817731Y-63674580D02*
X69770112Y-63722200D01*
X69770112Y-63722200D02*
X69674874Y-63769819D01*
X69674874Y-63769819D02*
X69579636Y-63769819D01*
X69579636Y-63769819D02*
X69484398Y-63722200D01*
X69484398Y-63722200D02*
X69436779Y-63674580D01*
X69436779Y-63674580D02*
X69389160Y-63579342D01*
X69389160Y-63579342D02*
X69341541Y-63388866D01*
X69341541Y-63388866D02*
X69341541Y-63150771D01*
X69341541Y-63150771D02*
X69389160Y-62960295D01*
X69389160Y-62960295D02*
X69436779Y-62865057D01*
X69436779Y-62865057D02*
X69484398Y-62817438D01*
X69484398Y-62817438D02*
X69579636Y-62769819D01*
X70341541Y-63769819D02*
X70341541Y-62769819D01*
X70912969Y-63769819D02*
X70484398Y-63198390D01*
X70912969Y-62769819D02*
X70341541Y-63341247D01*
X71293922Y-63769819D02*
X71532017Y-63769819D01*
X71532017Y-63769819D02*
X71532017Y-63579342D01*
X71532017Y-63579342D02*
X71436779Y-63531723D01*
X71436779Y-63531723D02*
X71341541Y-63436485D01*
X71341541Y-63436485D02*
X71293922Y-63293628D01*
X71293922Y-63293628D02*
X71293922Y-63055533D01*
X71293922Y-63055533D02*
X71341541Y-62912676D01*
X71341541Y-62912676D02*
X71436779Y-62817438D01*
X71436779Y-62817438D02*
X71579636Y-62769819D01*
X71579636Y-62769819D02*
X71770112Y-62769819D01*
X71770112Y-62769819D02*
X71912969Y-62817438D01*
X71912969Y-62817438D02*
X72008207Y-62912676D01*
X72008207Y-62912676D02*
X72055826Y-63055533D01*
X72055826Y-63055533D02*
X72055826Y-63293628D01*
X72055826Y-63293628D02*
X72008207Y-63436485D01*
X72008207Y-63436485D02*
X71912969Y-63531723D01*
X71912969Y-63531723D02*
X71817731Y-63579342D01*
X71817731Y-63579342D02*
X71817731Y-63769819D01*
X71817731Y-63769819D02*
X72055826Y-63769819D01*
X83660588Y-62269819D02*
X83089160Y-62269819D01*
X83374874Y-62269819D02*
X83374874Y-61269819D01*
X83374874Y-61269819D02*
X83279636Y-61412676D01*
X83279636Y-61412676D02*
X83184398Y-61507914D01*
X83184398Y-61507914D02*
X83089160Y-61555533D01*
X84279636Y-61269819D02*
X84374874Y-61269819D01*
X84374874Y-61269819D02*
X84470112Y-61317438D01*
X84470112Y-61317438D02*
X84517731Y-61365057D01*
X84517731Y-61365057D02*
X84565350Y-61460295D01*
X84565350Y-61460295D02*
X84612969Y-61650771D01*
X84612969Y-61650771D02*
X84612969Y-61888866D01*
X84612969Y-61888866D02*
X84565350Y-62079342D01*
X84565350Y-62079342D02*
X84517731Y-62174580D01*
X84517731Y-62174580D02*
X84470112Y-62222200D01*
X84470112Y-62222200D02*
X84374874Y-62269819D01*
X84374874Y-62269819D02*
X84279636Y-62269819D01*
X84279636Y-62269819D02*
X84184398Y-62222200D01*
X84184398Y-62222200D02*
X84136779Y-62174580D01*
X84136779Y-62174580D02*
X84089160Y-62079342D01*
X84089160Y-62079342D02*
X84041541Y-61888866D01*
X84041541Y-61888866D02*
X84041541Y-61650771D01*
X84041541Y-61650771D02*
X84089160Y-61460295D01*
X84089160Y-61460295D02*
X84136779Y-61365057D01*
X84136779Y-61365057D02*
X84184398Y-61317438D01*
X84184398Y-61317438D02*
X84279636Y-61269819D01*
X85041541Y-62269819D02*
X85041541Y-61269819D01*
X85612969Y-62269819D02*
X85184398Y-61698390D01*
X85612969Y-61269819D02*
X85041541Y-61841247D01*
X85993922Y-62269819D02*
X86232017Y-62269819D01*
X86232017Y-62269819D02*
X86232017Y-62079342D01*
X86232017Y-62079342D02*
X86136779Y-62031723D01*
X86136779Y-62031723D02*
X86041541Y-61936485D01*
X86041541Y-61936485D02*
X85993922Y-61793628D01*
X85993922Y-61793628D02*
X85993922Y-61555533D01*
X85993922Y-61555533D02*
X86041541Y-61412676D01*
X86041541Y-61412676D02*
X86136779Y-61317438D01*
X86136779Y-61317438D02*
X86279636Y-61269819D01*
X86279636Y-61269819D02*
X86470112Y-61269819D01*
X86470112Y-61269819D02*
X86612969Y-61317438D01*
X86612969Y-61317438D02*
X86708207Y-61412676D01*
X86708207Y-61412676D02*
X86755826Y-61555533D01*
X86755826Y-61555533D02*
X86755826Y-61793628D01*
X86755826Y-61793628D02*
X86708207Y-61936485D01*
X86708207Y-61936485D02*
X86612969Y-62031723D01*
X86612969Y-62031723D02*
X86517731Y-62079342D01*
X86517731Y-62079342D02*
X86517731Y-62269819D01*
X86517731Y-62269819D02*
X86755826Y-62269819D01*
X145644009Y-32406077D02*
X145720200Y-32482268D01*
X145720200Y-32482268D02*
X145796390Y-32710839D01*
X145796390Y-32710839D02*
X145796390Y-32863220D01*
X145796390Y-32863220D02*
X145720200Y-33091792D01*
X145720200Y-33091792D02*
X145567819Y-33244173D01*
X145567819Y-33244173D02*
X145415438Y-33320363D01*
X145415438Y-33320363D02*
X145110676Y-33396554D01*
X145110676Y-33396554D02*
X144882104Y-33396554D01*
X144882104Y-33396554D02*
X144577342Y-33320363D01*
X144577342Y-33320363D02*
X144424961Y-33244173D01*
X144424961Y-33244173D02*
X144272580Y-33091792D01*
X144272580Y-33091792D02*
X144196390Y-32863220D01*
X144196390Y-32863220D02*
X144196390Y-32710839D01*
X144196390Y-32710839D02*
X144272580Y-32482268D01*
X144272580Y-32482268D02*
X144348771Y-32406077D01*
X144196390Y-31415601D02*
X144196390Y-31110839D01*
X144196390Y-31110839D02*
X144272580Y-30958458D01*
X144272580Y-30958458D02*
X144424961Y-30806077D01*
X144424961Y-30806077D02*
X144729723Y-30729887D01*
X144729723Y-30729887D02*
X145263057Y-30729887D01*
X145263057Y-30729887D02*
X145567819Y-30806077D01*
X145567819Y-30806077D02*
X145720200Y-30958458D01*
X145720200Y-30958458D02*
X145796390Y-31110839D01*
X145796390Y-31110839D02*
X145796390Y-31415601D01*
X145796390Y-31415601D02*
X145720200Y-31567982D01*
X145720200Y-31567982D02*
X145567819Y-31720363D01*
X145567819Y-31720363D02*
X145263057Y-31796554D01*
X145263057Y-31796554D02*
X144729723Y-31796554D01*
X144729723Y-31796554D02*
X144424961Y-31720363D01*
X144424961Y-31720363D02*
X144272580Y-31567982D01*
X144272580Y-31567982D02*
X144196390Y-31415601D01*
X144348771Y-30120364D02*
X144272580Y-30044173D01*
X144272580Y-30044173D02*
X144196390Y-29891792D01*
X144196390Y-29891792D02*
X144196390Y-29510840D01*
X144196390Y-29510840D02*
X144272580Y-29358459D01*
X144272580Y-29358459D02*
X144348771Y-29282268D01*
X144348771Y-29282268D02*
X144501152Y-29206078D01*
X144501152Y-29206078D02*
X144653533Y-29206078D01*
X144653533Y-29206078D02*
X144882104Y-29282268D01*
X144882104Y-29282268D02*
X145796390Y-30196554D01*
X145796390Y-30196554D02*
X145796390Y-29206078D01*
X145796390Y-70920363D02*
X144196390Y-70920363D01*
X144196390Y-70920363D02*
X145796390Y-70006077D01*
X145796390Y-70006077D02*
X144196390Y-70006077D01*
X144196390Y-68939411D02*
X144196390Y-68634649D01*
X144196390Y-68634649D02*
X144272580Y-68482268D01*
X144272580Y-68482268D02*
X144424961Y-68329887D01*
X144424961Y-68329887D02*
X144729723Y-68253697D01*
X144729723Y-68253697D02*
X145263057Y-68253697D01*
X145263057Y-68253697D02*
X145567819Y-68329887D01*
X145567819Y-68329887D02*
X145720200Y-68482268D01*
X145720200Y-68482268D02*
X145796390Y-68634649D01*
X145796390Y-68634649D02*
X145796390Y-68939411D01*
X145796390Y-68939411D02*
X145720200Y-69091792D01*
X145720200Y-69091792D02*
X145567819Y-69244173D01*
X145567819Y-69244173D02*
X145263057Y-69320364D01*
X145263057Y-69320364D02*
X144729723Y-69320364D01*
X144729723Y-69320364D02*
X144424961Y-69244173D01*
X144424961Y-69244173D02*
X144272580Y-69091792D01*
X144272580Y-69091792D02*
X144196390Y-68939411D01*
X145796390Y-67720364D02*
X144729723Y-66882269D01*
X144729723Y-67720364D02*
X145796390Y-66882269D01*
X145796390Y-62320363D02*
X144196390Y-62320363D01*
X144196390Y-62320363D02*
X144196390Y-61710839D01*
X144196390Y-61710839D02*
X144272580Y-61558458D01*
X144272580Y-61558458D02*
X144348771Y-61482268D01*
X144348771Y-61482268D02*
X144501152Y-61406077D01*
X144501152Y-61406077D02*
X144729723Y-61406077D01*
X144729723Y-61406077D02*
X144882104Y-61482268D01*
X144882104Y-61482268D02*
X144958295Y-61558458D01*
X144958295Y-61558458D02*
X145034485Y-61710839D01*
X145034485Y-61710839D02*
X145034485Y-62320363D01*
X145796390Y-60720363D02*
X144196390Y-60720363D01*
X144196390Y-60720363D02*
X145339247Y-60187030D01*
X145339247Y-60187030D02*
X144196390Y-59653696D01*
X144196390Y-59653696D02*
X145796390Y-59653696D01*
X144348771Y-58967983D02*
X144272580Y-58891792D01*
X144272580Y-58891792D02*
X144196390Y-58739411D01*
X144196390Y-58739411D02*
X144196390Y-58358459D01*
X144196390Y-58358459D02*
X144272580Y-58206078D01*
X144272580Y-58206078D02*
X144348771Y-58129887D01*
X144348771Y-58129887D02*
X144501152Y-58053697D01*
X144501152Y-58053697D02*
X144653533Y-58053697D01*
X144653533Y-58053697D02*
X144882104Y-58129887D01*
X144882104Y-58129887D02*
X145796390Y-59044173D01*
X145796390Y-59044173D02*
X145796390Y-58053697D01*
X145644009Y-57367982D02*
X145720200Y-57291792D01*
X145720200Y-57291792D02*
X145796390Y-57367982D01*
X145796390Y-57367982D02*
X145720200Y-57444173D01*
X145720200Y-57444173D02*
X145644009Y-57367982D01*
X145644009Y-57367982D02*
X145796390Y-57367982D01*
X144196390Y-55844172D02*
X144196390Y-56606077D01*
X144196390Y-56606077D02*
X144958295Y-56682268D01*
X144958295Y-56682268D02*
X144882104Y-56606077D01*
X144882104Y-56606077D02*
X144805914Y-56453696D01*
X144805914Y-56453696D02*
X144805914Y-56072744D01*
X144805914Y-56072744D02*
X144882104Y-55920363D01*
X144882104Y-55920363D02*
X144958295Y-55844172D01*
X144958295Y-55844172D02*
X145110676Y-55767982D01*
X145110676Y-55767982D02*
X145491628Y-55767982D01*
X145491628Y-55767982D02*
X145644009Y-55844172D01*
X145644009Y-55844172D02*
X145720200Y-55920363D01*
X145720200Y-55920363D02*
X145796390Y-56072744D01*
X145796390Y-56072744D02*
X145796390Y-56453696D01*
X145796390Y-56453696D02*
X145720200Y-56606077D01*
X145720200Y-56606077D02*
X145644009Y-56682268D01*
X145896390Y-50106077D02*
X145134485Y-50639411D01*
X145896390Y-51020363D02*
X144296390Y-51020363D01*
X144296390Y-51020363D02*
X144296390Y-50410839D01*
X144296390Y-50410839D02*
X144372580Y-50258458D01*
X144372580Y-50258458D02*
X144448771Y-50182268D01*
X144448771Y-50182268D02*
X144601152Y-50106077D01*
X144601152Y-50106077D02*
X144829723Y-50106077D01*
X144829723Y-50106077D02*
X144982104Y-50182268D01*
X144982104Y-50182268D02*
X145058295Y-50258458D01*
X145058295Y-50258458D02*
X145134485Y-50410839D01*
X145134485Y-50410839D02*
X145134485Y-51020363D01*
X145896390Y-49420363D02*
X144296390Y-49420363D01*
X145058295Y-49420363D02*
X145058295Y-48506077D01*
X145896390Y-48506077D02*
X144296390Y-48506077D01*
X144296390Y-42548935D02*
X145896390Y-42015601D01*
X145896390Y-42015601D02*
X144296390Y-41482268D01*
X144296390Y-40644172D02*
X144296390Y-40339410D01*
X144296390Y-40339410D02*
X144372580Y-40187029D01*
X144372580Y-40187029D02*
X144524961Y-40034648D01*
X144524961Y-40034648D02*
X144829723Y-39958458D01*
X144829723Y-39958458D02*
X145363057Y-39958458D01*
X145363057Y-39958458D02*
X145667819Y-40034648D01*
X145667819Y-40034648D02*
X145820200Y-40187029D01*
X145820200Y-40187029D02*
X145896390Y-40339410D01*
X145896390Y-40339410D02*
X145896390Y-40644172D01*
X145896390Y-40644172D02*
X145820200Y-40796553D01*
X145820200Y-40796553D02*
X145667819Y-40948934D01*
X145667819Y-40948934D02*
X145363057Y-41025125D01*
X145363057Y-41025125D02*
X144829723Y-41025125D01*
X144829723Y-41025125D02*
X144524961Y-40948934D01*
X144524961Y-40948934D02*
X144372580Y-40796553D01*
X144372580Y-40796553D02*
X144296390Y-40644172D01*
X145744009Y-38358458D02*
X145820200Y-38434649D01*
X145820200Y-38434649D02*
X145896390Y-38663220D01*
X145896390Y-38663220D02*
X145896390Y-38815601D01*
X145896390Y-38815601D02*
X145820200Y-39044173D01*
X145820200Y-39044173D02*
X145667819Y-39196554D01*
X145667819Y-39196554D02*
X145515438Y-39272744D01*
X145515438Y-39272744D02*
X145210676Y-39348935D01*
X145210676Y-39348935D02*
X144982104Y-39348935D01*
X144982104Y-39348935D02*
X144677342Y-39272744D01*
X144677342Y-39272744D02*
X144524961Y-39196554D01*
X144524961Y-39196554D02*
X144372580Y-39044173D01*
X144372580Y-39044173D02*
X144296390Y-38815601D01*
X144296390Y-38815601D02*
X144296390Y-38663220D01*
X144296390Y-38663220D02*
X144372580Y-38434649D01*
X144372580Y-38434649D02*
X144448771Y-38358458D01*
X133965350Y-71303152D02*
X133965350Y-71969819D01*
X133727255Y-70922200D02*
X133489160Y-71636485D01*
X133489160Y-71636485D02*
X134108207Y-71636485D01*
X134393922Y-70969819D02*
X135060588Y-70969819D01*
X135060588Y-70969819D02*
X134632017Y-71969819D01*
X135393922Y-71969819D02*
X135632017Y-71969819D01*
X135632017Y-71969819D02*
X135632017Y-71779342D01*
X135632017Y-71779342D02*
X135536779Y-71731723D01*
X135536779Y-71731723D02*
X135441541Y-71636485D01*
X135441541Y-71636485D02*
X135393922Y-71493628D01*
X135393922Y-71493628D02*
X135393922Y-71255533D01*
X135393922Y-71255533D02*
X135441541Y-71112676D01*
X135441541Y-71112676D02*
X135536779Y-71017438D01*
X135536779Y-71017438D02*
X135679636Y-70969819D01*
X135679636Y-70969819D02*
X135870112Y-70969819D01*
X135870112Y-70969819D02*
X136012969Y-71017438D01*
X136012969Y-71017438D02*
X136108207Y-71112676D01*
X136108207Y-71112676D02*
X136155826Y-71255533D01*
X136155826Y-71255533D02*
X136155826Y-71493628D01*
X136155826Y-71493628D02*
X136108207Y-71636485D01*
X136108207Y-71636485D02*
X136012969Y-71731723D01*
X136012969Y-71731723D02*
X135917731Y-71779342D01*
X135917731Y-71779342D02*
X135917731Y-71969819D01*
X135917731Y-71969819D02*
X136155826Y-71969819D01*
X138427255Y-74669819D02*
X138522493Y-74669819D01*
X138522493Y-74669819D02*
X138617731Y-74717438D01*
X138617731Y-74717438D02*
X138665350Y-74765057D01*
X138665350Y-74765057D02*
X138712969Y-74860295D01*
X138712969Y-74860295D02*
X138760588Y-75050771D01*
X138760588Y-75050771D02*
X138760588Y-75288866D01*
X138760588Y-75288866D02*
X138712969Y-75479342D01*
X138712969Y-75479342D02*
X138665350Y-75574580D01*
X138665350Y-75574580D02*
X138617731Y-75622200D01*
X138617731Y-75622200D02*
X138522493Y-75669819D01*
X138522493Y-75669819D02*
X138427255Y-75669819D01*
X138427255Y-75669819D02*
X138332017Y-75622200D01*
X138332017Y-75622200D02*
X138284398Y-75574580D01*
X138284398Y-75574580D02*
X138236779Y-75479342D01*
X138236779Y-75479342D02*
X138189160Y-75288866D01*
X138189160Y-75288866D02*
X138189160Y-75050771D01*
X138189160Y-75050771D02*
X138236779Y-74860295D01*
X138236779Y-74860295D02*
X138284398Y-74765057D01*
X138284398Y-74765057D02*
X138332017Y-74717438D01*
X138332017Y-74717438D02*
X138427255Y-74669819D01*
X139189160Y-75574580D02*
X139236779Y-75622200D01*
X139236779Y-75622200D02*
X139189160Y-75669819D01*
X139189160Y-75669819D02*
X139141541Y-75622200D01*
X139141541Y-75622200D02*
X139189160Y-75574580D01*
X139189160Y-75574580D02*
X139189160Y-75669819D01*
X140189159Y-75669819D02*
X139617731Y-75669819D01*
X139903445Y-75669819D02*
X139903445Y-74669819D01*
X139903445Y-74669819D02*
X139808207Y-74812676D01*
X139808207Y-74812676D02*
X139712969Y-74907914D01*
X139712969Y-74907914D02*
X139617731Y-74955533D01*
X140617731Y-75003152D02*
X140617731Y-76003152D01*
X141093921Y-75526961D02*
X141141540Y-75622200D01*
X141141540Y-75622200D02*
X141236778Y-75669819D01*
X140617731Y-75526961D02*
X140665350Y-75622200D01*
X140665350Y-75622200D02*
X140760588Y-75669819D01*
X140760588Y-75669819D02*
X140951064Y-75669819D01*
X140951064Y-75669819D02*
X141046302Y-75622200D01*
X141046302Y-75622200D02*
X141093921Y-75526961D01*
X141093921Y-75526961D02*
X141093921Y-75003152D01*
X141998683Y-75146009D02*
X141665350Y-75146009D01*
X141665350Y-75669819D02*
X141665350Y-74669819D01*
X141665350Y-74669819D02*
X142141540Y-74669819D01*
X138527255Y-64769819D02*
X138622493Y-64769819D01*
X138622493Y-64769819D02*
X138717731Y-64817438D01*
X138717731Y-64817438D02*
X138765350Y-64865057D01*
X138765350Y-64865057D02*
X138812969Y-64960295D01*
X138812969Y-64960295D02*
X138860588Y-65150771D01*
X138860588Y-65150771D02*
X138860588Y-65388866D01*
X138860588Y-65388866D02*
X138812969Y-65579342D01*
X138812969Y-65579342D02*
X138765350Y-65674580D01*
X138765350Y-65674580D02*
X138717731Y-65722200D01*
X138717731Y-65722200D02*
X138622493Y-65769819D01*
X138622493Y-65769819D02*
X138527255Y-65769819D01*
X138527255Y-65769819D02*
X138432017Y-65722200D01*
X138432017Y-65722200D02*
X138384398Y-65674580D01*
X138384398Y-65674580D02*
X138336779Y-65579342D01*
X138336779Y-65579342D02*
X138289160Y-65388866D01*
X138289160Y-65388866D02*
X138289160Y-65150771D01*
X138289160Y-65150771D02*
X138336779Y-64960295D01*
X138336779Y-64960295D02*
X138384398Y-64865057D01*
X138384398Y-64865057D02*
X138432017Y-64817438D01*
X138432017Y-64817438D02*
X138527255Y-64769819D01*
X139289160Y-65674580D02*
X139336779Y-65722200D01*
X139336779Y-65722200D02*
X139289160Y-65769819D01*
X139289160Y-65769819D02*
X139241541Y-65722200D01*
X139241541Y-65722200D02*
X139289160Y-65674580D01*
X139289160Y-65674580D02*
X139289160Y-65769819D01*
X140289159Y-65769819D02*
X139717731Y-65769819D01*
X140003445Y-65769819D02*
X140003445Y-64769819D01*
X140003445Y-64769819D02*
X139908207Y-64912676D01*
X139908207Y-64912676D02*
X139812969Y-65007914D01*
X139812969Y-65007914D02*
X139717731Y-65055533D01*
X140717731Y-65103152D02*
X140717731Y-66103152D01*
X141193921Y-65626961D02*
X141241540Y-65722200D01*
X141241540Y-65722200D02*
X141336778Y-65769819D01*
X140717731Y-65626961D02*
X140765350Y-65722200D01*
X140765350Y-65722200D02*
X140860588Y-65769819D01*
X140860588Y-65769819D02*
X141051064Y-65769819D01*
X141051064Y-65769819D02*
X141146302Y-65722200D01*
X141146302Y-65722200D02*
X141193921Y-65626961D01*
X141193921Y-65626961D02*
X141193921Y-65103152D01*
X142098683Y-65246009D02*
X141765350Y-65246009D01*
X141765350Y-65769819D02*
X141765350Y-64769819D01*
X141765350Y-64769819D02*
X142241540Y-64769819D01*
X138527255Y-55369819D02*
X138622493Y-55369819D01*
X138622493Y-55369819D02*
X138717731Y-55417438D01*
X138717731Y-55417438D02*
X138765350Y-55465057D01*
X138765350Y-55465057D02*
X138812969Y-55560295D01*
X138812969Y-55560295D02*
X138860588Y-55750771D01*
X138860588Y-55750771D02*
X138860588Y-55988866D01*
X138860588Y-55988866D02*
X138812969Y-56179342D01*
X138812969Y-56179342D02*
X138765350Y-56274580D01*
X138765350Y-56274580D02*
X138717731Y-56322200D01*
X138717731Y-56322200D02*
X138622493Y-56369819D01*
X138622493Y-56369819D02*
X138527255Y-56369819D01*
X138527255Y-56369819D02*
X138432017Y-56322200D01*
X138432017Y-56322200D02*
X138384398Y-56274580D01*
X138384398Y-56274580D02*
X138336779Y-56179342D01*
X138336779Y-56179342D02*
X138289160Y-55988866D01*
X138289160Y-55988866D02*
X138289160Y-55750771D01*
X138289160Y-55750771D02*
X138336779Y-55560295D01*
X138336779Y-55560295D02*
X138384398Y-55465057D01*
X138384398Y-55465057D02*
X138432017Y-55417438D01*
X138432017Y-55417438D02*
X138527255Y-55369819D01*
X139289160Y-56274580D02*
X139336779Y-56322200D01*
X139336779Y-56322200D02*
X139289160Y-56369819D01*
X139289160Y-56369819D02*
X139241541Y-56322200D01*
X139241541Y-56322200D02*
X139289160Y-56274580D01*
X139289160Y-56274580D02*
X139289160Y-56369819D01*
X140289159Y-56369819D02*
X139717731Y-56369819D01*
X140003445Y-56369819D02*
X140003445Y-55369819D01*
X140003445Y-55369819D02*
X139908207Y-55512676D01*
X139908207Y-55512676D02*
X139812969Y-55607914D01*
X139812969Y-55607914D02*
X139717731Y-55655533D01*
X140717731Y-55703152D02*
X140717731Y-56703152D01*
X141193921Y-56226961D02*
X141241540Y-56322200D01*
X141241540Y-56322200D02*
X141336778Y-56369819D01*
X140717731Y-56226961D02*
X140765350Y-56322200D01*
X140765350Y-56322200D02*
X140860588Y-56369819D01*
X140860588Y-56369819D02*
X141051064Y-56369819D01*
X141051064Y-56369819D02*
X141146302Y-56322200D01*
X141146302Y-56322200D02*
X141193921Y-56226961D01*
X141193921Y-56226961D02*
X141193921Y-55703152D01*
X142098683Y-55846009D02*
X141765350Y-55846009D01*
X141765350Y-56369819D02*
X141765350Y-55369819D01*
X141765350Y-55369819D02*
X142241540Y-55369819D01*
X138527255Y-45869819D02*
X138622493Y-45869819D01*
X138622493Y-45869819D02*
X138717731Y-45917438D01*
X138717731Y-45917438D02*
X138765350Y-45965057D01*
X138765350Y-45965057D02*
X138812969Y-46060295D01*
X138812969Y-46060295D02*
X138860588Y-46250771D01*
X138860588Y-46250771D02*
X138860588Y-46488866D01*
X138860588Y-46488866D02*
X138812969Y-46679342D01*
X138812969Y-46679342D02*
X138765350Y-46774580D01*
X138765350Y-46774580D02*
X138717731Y-46822200D01*
X138717731Y-46822200D02*
X138622493Y-46869819D01*
X138622493Y-46869819D02*
X138527255Y-46869819D01*
X138527255Y-46869819D02*
X138432017Y-46822200D01*
X138432017Y-46822200D02*
X138384398Y-46774580D01*
X138384398Y-46774580D02*
X138336779Y-46679342D01*
X138336779Y-46679342D02*
X138289160Y-46488866D01*
X138289160Y-46488866D02*
X138289160Y-46250771D01*
X138289160Y-46250771D02*
X138336779Y-46060295D01*
X138336779Y-46060295D02*
X138384398Y-45965057D01*
X138384398Y-45965057D02*
X138432017Y-45917438D01*
X138432017Y-45917438D02*
X138527255Y-45869819D01*
X139289160Y-46774580D02*
X139336779Y-46822200D01*
X139336779Y-46822200D02*
X139289160Y-46869819D01*
X139289160Y-46869819D02*
X139241541Y-46822200D01*
X139241541Y-46822200D02*
X139289160Y-46774580D01*
X139289160Y-46774580D02*
X139289160Y-46869819D01*
X140289159Y-46869819D02*
X139717731Y-46869819D01*
X140003445Y-46869819D02*
X140003445Y-45869819D01*
X140003445Y-45869819D02*
X139908207Y-46012676D01*
X139908207Y-46012676D02*
X139812969Y-46107914D01*
X139812969Y-46107914D02*
X139717731Y-46155533D01*
X140717731Y-46203152D02*
X140717731Y-47203152D01*
X141193921Y-46726961D02*
X141241540Y-46822200D01*
X141241540Y-46822200D02*
X141336778Y-46869819D01*
X140717731Y-46726961D02*
X140765350Y-46822200D01*
X140765350Y-46822200D02*
X140860588Y-46869819D01*
X140860588Y-46869819D02*
X141051064Y-46869819D01*
X141051064Y-46869819D02*
X141146302Y-46822200D01*
X141146302Y-46822200D02*
X141193921Y-46726961D01*
X141193921Y-46726961D02*
X141193921Y-46203152D01*
X142098683Y-46346009D02*
X141765350Y-46346009D01*
X141765350Y-46869819D02*
X141765350Y-45869819D01*
X141765350Y-45869819D02*
X142241540Y-45869819D01*
X138527255Y-36869819D02*
X138622493Y-36869819D01*
X138622493Y-36869819D02*
X138717731Y-36917438D01*
X138717731Y-36917438D02*
X138765350Y-36965057D01*
X138765350Y-36965057D02*
X138812969Y-37060295D01*
X138812969Y-37060295D02*
X138860588Y-37250771D01*
X138860588Y-37250771D02*
X138860588Y-37488866D01*
X138860588Y-37488866D02*
X138812969Y-37679342D01*
X138812969Y-37679342D02*
X138765350Y-37774580D01*
X138765350Y-37774580D02*
X138717731Y-37822200D01*
X138717731Y-37822200D02*
X138622493Y-37869819D01*
X138622493Y-37869819D02*
X138527255Y-37869819D01*
X138527255Y-37869819D02*
X138432017Y-37822200D01*
X138432017Y-37822200D02*
X138384398Y-37774580D01*
X138384398Y-37774580D02*
X138336779Y-37679342D01*
X138336779Y-37679342D02*
X138289160Y-37488866D01*
X138289160Y-37488866D02*
X138289160Y-37250771D01*
X138289160Y-37250771D02*
X138336779Y-37060295D01*
X138336779Y-37060295D02*
X138384398Y-36965057D01*
X138384398Y-36965057D02*
X138432017Y-36917438D01*
X138432017Y-36917438D02*
X138527255Y-36869819D01*
X139289160Y-37774580D02*
X139336779Y-37822200D01*
X139336779Y-37822200D02*
X139289160Y-37869819D01*
X139289160Y-37869819D02*
X139241541Y-37822200D01*
X139241541Y-37822200D02*
X139289160Y-37774580D01*
X139289160Y-37774580D02*
X139289160Y-37869819D01*
X140289159Y-37869819D02*
X139717731Y-37869819D01*
X140003445Y-37869819D02*
X140003445Y-36869819D01*
X140003445Y-36869819D02*
X139908207Y-37012676D01*
X139908207Y-37012676D02*
X139812969Y-37107914D01*
X139812969Y-37107914D02*
X139717731Y-37155533D01*
X140717731Y-37203152D02*
X140717731Y-38203152D01*
X141193921Y-37726961D02*
X141241540Y-37822200D01*
X141241540Y-37822200D02*
X141336778Y-37869819D01*
X140717731Y-37726961D02*
X140765350Y-37822200D01*
X140765350Y-37822200D02*
X140860588Y-37869819D01*
X140860588Y-37869819D02*
X141051064Y-37869819D01*
X141051064Y-37869819D02*
X141146302Y-37822200D01*
X141146302Y-37822200D02*
X141193921Y-37726961D01*
X141193921Y-37726961D02*
X141193921Y-37203152D01*
X142098683Y-37346009D02*
X141765350Y-37346009D01*
X141765350Y-37869819D02*
X141765350Y-36869819D01*
X141765350Y-36869819D02*
X142241540Y-36869819D01*
X134065350Y-61803152D02*
X134065350Y-62469819D01*
X133827255Y-61422200D02*
X133589160Y-62136485D01*
X133589160Y-62136485D02*
X134208207Y-62136485D01*
X134493922Y-61469819D02*
X135160588Y-61469819D01*
X135160588Y-61469819D02*
X134732017Y-62469819D01*
X135493922Y-62469819D02*
X135732017Y-62469819D01*
X135732017Y-62469819D02*
X135732017Y-62279342D01*
X135732017Y-62279342D02*
X135636779Y-62231723D01*
X135636779Y-62231723D02*
X135541541Y-62136485D01*
X135541541Y-62136485D02*
X135493922Y-61993628D01*
X135493922Y-61993628D02*
X135493922Y-61755533D01*
X135493922Y-61755533D02*
X135541541Y-61612676D01*
X135541541Y-61612676D02*
X135636779Y-61517438D01*
X135636779Y-61517438D02*
X135779636Y-61469819D01*
X135779636Y-61469819D02*
X135970112Y-61469819D01*
X135970112Y-61469819D02*
X136112969Y-61517438D01*
X136112969Y-61517438D02*
X136208207Y-61612676D01*
X136208207Y-61612676D02*
X136255826Y-61755533D01*
X136255826Y-61755533D02*
X136255826Y-61993628D01*
X136255826Y-61993628D02*
X136208207Y-62136485D01*
X136208207Y-62136485D02*
X136112969Y-62231723D01*
X136112969Y-62231723D02*
X136017731Y-62279342D01*
X136017731Y-62279342D02*
X136017731Y-62469819D01*
X136017731Y-62469819D02*
X136255826Y-62469819D01*
X134065350Y-52203152D02*
X134065350Y-52869819D01*
X133827255Y-51822200D02*
X133589160Y-52536485D01*
X133589160Y-52536485D02*
X134208207Y-52536485D01*
X134493922Y-51869819D02*
X135160588Y-51869819D01*
X135160588Y-51869819D02*
X134732017Y-52869819D01*
X135493922Y-52869819D02*
X135732017Y-52869819D01*
X135732017Y-52869819D02*
X135732017Y-52679342D01*
X135732017Y-52679342D02*
X135636779Y-52631723D01*
X135636779Y-52631723D02*
X135541541Y-52536485D01*
X135541541Y-52536485D02*
X135493922Y-52393628D01*
X135493922Y-52393628D02*
X135493922Y-52155533D01*
X135493922Y-52155533D02*
X135541541Y-52012676D01*
X135541541Y-52012676D02*
X135636779Y-51917438D01*
X135636779Y-51917438D02*
X135779636Y-51869819D01*
X135779636Y-51869819D02*
X135970112Y-51869819D01*
X135970112Y-51869819D02*
X136112969Y-51917438D01*
X136112969Y-51917438D02*
X136208207Y-52012676D01*
X136208207Y-52012676D02*
X136255826Y-52155533D01*
X136255826Y-52155533D02*
X136255826Y-52393628D01*
X136255826Y-52393628D02*
X136208207Y-52536485D01*
X136208207Y-52536485D02*
X136112969Y-52631723D01*
X136112969Y-52631723D02*
X136017731Y-52679342D01*
X136017731Y-52679342D02*
X136017731Y-52869819D01*
X136017731Y-52869819D02*
X136255826Y-52869819D01*
X134065350Y-42703152D02*
X134065350Y-43369819D01*
X133827255Y-42322200D02*
X133589160Y-43036485D01*
X133589160Y-43036485D02*
X134208207Y-43036485D01*
X134493922Y-42369819D02*
X135160588Y-42369819D01*
X135160588Y-42369819D02*
X134732017Y-43369819D01*
X135493922Y-43369819D02*
X135732017Y-43369819D01*
X135732017Y-43369819D02*
X135732017Y-43179342D01*
X135732017Y-43179342D02*
X135636779Y-43131723D01*
X135636779Y-43131723D02*
X135541541Y-43036485D01*
X135541541Y-43036485D02*
X135493922Y-42893628D01*
X135493922Y-42893628D02*
X135493922Y-42655533D01*
X135493922Y-42655533D02*
X135541541Y-42512676D01*
X135541541Y-42512676D02*
X135636779Y-42417438D01*
X135636779Y-42417438D02*
X135779636Y-42369819D01*
X135779636Y-42369819D02*
X135970112Y-42369819D01*
X135970112Y-42369819D02*
X136112969Y-42417438D01*
X136112969Y-42417438D02*
X136208207Y-42512676D01*
X136208207Y-42512676D02*
X136255826Y-42655533D01*
X136255826Y-42655533D02*
X136255826Y-42893628D01*
X136255826Y-42893628D02*
X136208207Y-43036485D01*
X136208207Y-43036485D02*
X136112969Y-43131723D01*
X136112969Y-43131723D02*
X136017731Y-43179342D01*
X136017731Y-43179342D02*
X136017731Y-43369819D01*
X136017731Y-43369819D02*
X136255826Y-43369819D01*
X134165350Y-33803152D02*
X134165350Y-34469819D01*
X133927255Y-33422200D02*
X133689160Y-34136485D01*
X133689160Y-34136485D02*
X134308207Y-34136485D01*
X134593922Y-33469819D02*
X135260588Y-33469819D01*
X135260588Y-33469819D02*
X134832017Y-34469819D01*
X135593922Y-34469819D02*
X135832017Y-34469819D01*
X135832017Y-34469819D02*
X135832017Y-34279342D01*
X135832017Y-34279342D02*
X135736779Y-34231723D01*
X135736779Y-34231723D02*
X135641541Y-34136485D01*
X135641541Y-34136485D02*
X135593922Y-33993628D01*
X135593922Y-33993628D02*
X135593922Y-33755533D01*
X135593922Y-33755533D02*
X135641541Y-33612676D01*
X135641541Y-33612676D02*
X135736779Y-33517438D01*
X135736779Y-33517438D02*
X135879636Y-33469819D01*
X135879636Y-33469819D02*
X136070112Y-33469819D01*
X136070112Y-33469819D02*
X136212969Y-33517438D01*
X136212969Y-33517438D02*
X136308207Y-33612676D01*
X136308207Y-33612676D02*
X136355826Y-33755533D01*
X136355826Y-33755533D02*
X136355826Y-33993628D01*
X136355826Y-33993628D02*
X136308207Y-34136485D01*
X136308207Y-34136485D02*
X136212969Y-34231723D01*
X136212969Y-34231723D02*
X136117731Y-34279342D01*
X136117731Y-34279342D02*
X136117731Y-34469819D01*
X136117731Y-34469819D02*
X136355826Y-34469819D01*
X37784398Y-30045342D02*
X37784398Y-28845342D01*
X38355827Y-29245342D02*
X38355827Y-30045342D01*
X38355827Y-29359628D02*
X38412970Y-29302485D01*
X38412970Y-29302485D02*
X38527255Y-29245342D01*
X38527255Y-29245342D02*
X38698684Y-29245342D01*
X38698684Y-29245342D02*
X38812970Y-29302485D01*
X38812970Y-29302485D02*
X38870113Y-29416771D01*
X38870113Y-29416771D02*
X38870113Y-30045342D01*
X39441541Y-29245342D02*
X39441541Y-30445342D01*
X39441541Y-29302485D02*
X39555827Y-29245342D01*
X39555827Y-29245342D02*
X39784398Y-29245342D01*
X39784398Y-29245342D02*
X39898684Y-29302485D01*
X39898684Y-29302485D02*
X39955827Y-29359628D01*
X39955827Y-29359628D02*
X40012969Y-29473914D01*
X40012969Y-29473914D02*
X40012969Y-29816771D01*
X40012969Y-29816771D02*
X39955827Y-29931057D01*
X39955827Y-29931057D02*
X39898684Y-29988200D01*
X39898684Y-29988200D02*
X39784398Y-30045342D01*
X39784398Y-30045342D02*
X39555827Y-30045342D01*
X39555827Y-30045342D02*
X39441541Y-29988200D01*
X41041541Y-29245342D02*
X41041541Y-30045342D01*
X40527255Y-29245342D02*
X40527255Y-29873914D01*
X40527255Y-29873914D02*
X40584398Y-29988200D01*
X40584398Y-29988200D02*
X40698683Y-30045342D01*
X40698683Y-30045342D02*
X40870112Y-30045342D01*
X40870112Y-30045342D02*
X40984398Y-29988200D01*
X40984398Y-29988200D02*
X41041541Y-29931057D01*
X41441540Y-29245342D02*
X41898683Y-29245342D01*
X41612969Y-28845342D02*
X41612969Y-29873914D01*
X41612969Y-29873914D02*
X41670112Y-29988200D01*
X41670112Y-29988200D02*
X41784397Y-30045342D01*
X41784397Y-30045342D02*
X41898683Y-30045342D01*
X43784397Y-28845342D02*
X43212969Y-28845342D01*
X43212969Y-28845342D02*
X43155826Y-29416771D01*
X43155826Y-29416771D02*
X43212969Y-29359628D01*
X43212969Y-29359628D02*
X43327255Y-29302485D01*
X43327255Y-29302485D02*
X43612969Y-29302485D01*
X43612969Y-29302485D02*
X43727255Y-29359628D01*
X43727255Y-29359628D02*
X43784397Y-29416771D01*
X43784397Y-29416771D02*
X43841540Y-29531057D01*
X43841540Y-29531057D02*
X43841540Y-29816771D01*
X43841540Y-29816771D02*
X43784397Y-29931057D01*
X43784397Y-29931057D02*
X43727255Y-29988200D01*
X43727255Y-29988200D02*
X43612969Y-30045342D01*
X43612969Y-30045342D02*
X43327255Y-30045342D01*
X43327255Y-30045342D02*
X43212969Y-29988200D01*
X43212969Y-29988200D02*
X43155826Y-29931057D01*
X44184397Y-28845342D02*
X44584397Y-30045342D01*
X44584397Y-30045342D02*
X44984397Y-28845342D01*
D11*
X43100000Y-57600000D02*
X48700000Y-57600000D01*
X48700000Y-60400000D01*
X43100000Y-60400000D01*
X43100000Y-57600000D01*
X43100000Y-52900000D02*
X48700000Y-52900000D01*
X48700000Y-57600000D01*
X43100000Y-57600000D01*
X43100000Y-52900000D01*
D12*
X44573558Y-31877733D02*
X46097368Y-31877733D01*
D13*
X44788720Y-59706028D02*
X44788720Y-58206028D01*
X44788720Y-58920314D02*
X45645863Y-58920314D01*
X45645863Y-59706028D02*
X45645863Y-58206028D01*
X46145864Y-58206028D02*
X46645864Y-59706028D01*
X46645864Y-59706028D02*
X47145864Y-58206028D01*
X41177457Y-56025564D02*
X41106028Y-56168422D01*
X41106028Y-56168422D02*
X41106028Y-56382707D01*
X41106028Y-56382707D02*
X41177457Y-56596993D01*
X41177457Y-56596993D02*
X41320314Y-56739850D01*
X41320314Y-56739850D02*
X41463171Y-56811279D01*
X41463171Y-56811279D02*
X41748885Y-56882707D01*
X41748885Y-56882707D02*
X41963171Y-56882707D01*
X41963171Y-56882707D02*
X42248885Y-56811279D01*
X42248885Y-56811279D02*
X42391742Y-56739850D01*
X42391742Y-56739850D02*
X42534600Y-56596993D01*
X42534600Y-56596993D02*
X42606028Y-56382707D01*
X42606028Y-56382707D02*
X42606028Y-56239850D01*
X42606028Y-56239850D02*
X42534600Y-56025564D01*
X42534600Y-56025564D02*
X42463171Y-55954136D01*
X42463171Y-55954136D02*
X41963171Y-55954136D01*
X41963171Y-55954136D02*
X41963171Y-56239850D01*
X42606028Y-55311279D02*
X41106028Y-55311279D01*
X41106028Y-55311279D02*
X42606028Y-54454136D01*
X42606028Y-54454136D02*
X41106028Y-54454136D01*
X42606028Y-53739850D02*
X41106028Y-53739850D01*
X41106028Y-53739850D02*
X41106028Y-53382707D01*
X41106028Y-53382707D02*
X41177457Y-53168421D01*
X41177457Y-53168421D02*
X41320314Y-53025564D01*
X41320314Y-53025564D02*
X41463171Y-52954135D01*
X41463171Y-52954135D02*
X41748885Y-52882707D01*
X41748885Y-52882707D02*
X41963171Y-52882707D01*
X41963171Y-52882707D02*
X42248885Y-52954135D01*
X42248885Y-52954135D02*
X42391742Y-53025564D01*
X42391742Y-53025564D02*
X42534600Y-53168421D01*
X42534600Y-53168421D02*
X42606028Y-53382707D01*
X42606028Y-53382707D02*
X42606028Y-53739850D01*
X48206028Y-56711279D02*
X46706028Y-56711279D01*
X46706028Y-55711278D02*
X46706028Y-55425564D01*
X46706028Y-55425564D02*
X46777457Y-55282707D01*
X46777457Y-55282707D02*
X46920314Y-55139850D01*
X46920314Y-55139850D02*
X47206028Y-55068421D01*
X47206028Y-55068421D02*
X47706028Y-55068421D01*
X47706028Y-55068421D02*
X47991742Y-55139850D01*
X47991742Y-55139850D02*
X48134600Y-55282707D01*
X48134600Y-55282707D02*
X48206028Y-55425564D01*
X48206028Y-55425564D02*
X48206028Y-55711278D01*
X48206028Y-55711278D02*
X48134600Y-55854136D01*
X48134600Y-55854136D02*
X47991742Y-55996993D01*
X47991742Y-55996993D02*
X47706028Y-56068421D01*
X47706028Y-56068421D02*
X47206028Y-56068421D01*
X47206028Y-56068421D02*
X46920314Y-55996993D01*
X46920314Y-55996993D02*
X46777457Y-55854136D01*
X46777457Y-55854136D02*
X46706028Y-55711278D01*
X46706028Y-54139849D02*
X46706028Y-53996992D01*
X46706028Y-53996992D02*
X46777457Y-53854135D01*
X46777457Y-53854135D02*
X46848885Y-53782707D01*
X46848885Y-53782707D02*
X46991742Y-53711278D01*
X46991742Y-53711278D02*
X47277457Y-53639849D01*
X47277457Y-53639849D02*
X47634600Y-53639849D01*
X47634600Y-53639849D02*
X47920314Y-53711278D01*
X47920314Y-53711278D02*
X48063171Y-53782707D01*
X48063171Y-53782707D02*
X48134600Y-53854135D01*
X48134600Y-53854135D02*
X48206028Y-53996992D01*
X48206028Y-53996992D02*
X48206028Y-54139849D01*
X48206028Y-54139849D02*
X48134600Y-54282707D01*
X48134600Y-54282707D02*
X48063171Y-54354135D01*
X48063171Y-54354135D02*
X47920314Y-54425564D01*
X47920314Y-54425564D02*
X47634600Y-54496992D01*
X47634600Y-54496992D02*
X47277457Y-54496992D01*
X47277457Y-54496992D02*
X46991742Y-54425564D01*
X46991742Y-54425564D02*
X46848885Y-54354135D01*
X46848885Y-54354135D02*
X46777457Y-54282707D01*
X46777457Y-54282707D02*
X46706028Y-54139849D01*
D12*
X36673558Y-31977733D02*
X38197368Y-31977733D01*
X37435463Y-32739638D02*
X37435463Y-31215828D01*
D13*
X45306028Y-56711279D02*
X43806028Y-56711279D01*
X43806028Y-55711278D02*
X43806028Y-55425564D01*
X43806028Y-55425564D02*
X43877457Y-55282707D01*
X43877457Y-55282707D02*
X44020314Y-55139850D01*
X44020314Y-55139850D02*
X44306028Y-55068421D01*
X44306028Y-55068421D02*
X44806028Y-55068421D01*
X44806028Y-55068421D02*
X45091742Y-55139850D01*
X45091742Y-55139850D02*
X45234600Y-55282707D01*
X45234600Y-55282707D02*
X45306028Y-55425564D01*
X45306028Y-55425564D02*
X45306028Y-55711278D01*
X45306028Y-55711278D02*
X45234600Y-55854136D01*
X45234600Y-55854136D02*
X45091742Y-55996993D01*
X45091742Y-55996993D02*
X44806028Y-56068421D01*
X44806028Y-56068421D02*
X44306028Y-56068421D01*
X44306028Y-56068421D02*
X44020314Y-55996993D01*
X44020314Y-55996993D02*
X43877457Y-55854136D01*
X43877457Y-55854136D02*
X43806028Y-55711278D01*
X43806028Y-54568421D02*
X43806028Y-53639849D01*
X43806028Y-53639849D02*
X44377457Y-54139849D01*
X44377457Y-54139849D02*
X44377457Y-53925564D01*
X44377457Y-53925564D02*
X44448885Y-53782707D01*
X44448885Y-53782707D02*
X44520314Y-53711278D01*
X44520314Y-53711278D02*
X44663171Y-53639849D01*
X44663171Y-53639849D02*
X45020314Y-53639849D01*
X45020314Y-53639849D02*
X45163171Y-53711278D01*
X45163171Y-53711278D02*
X45234600Y-53782707D01*
X45234600Y-53782707D02*
X45306028Y-53925564D01*
X45306028Y-53925564D02*
X45306028Y-54354135D01*
X45306028Y-54354135D02*
X45234600Y-54496992D01*
X45234600Y-54496992D02*
X45163171Y-54568421D01*
D11*
X86946741Y-106178609D02*
X87899122Y-106178609D01*
X86756265Y-106750038D02*
X87422931Y-104750038D01*
X87422931Y-104750038D02*
X88089598Y-106750038D01*
X88756265Y-105702419D02*
X89422932Y-105702419D01*
X89708646Y-106750038D02*
X88756265Y-106750038D01*
X88756265Y-106750038D02*
X88756265Y-104750038D01*
X88756265Y-104750038D02*
X89708646Y-104750038D01*
X91708646Y-106750038D02*
X91041979Y-105797657D01*
X90565789Y-106750038D02*
X90565789Y-104750038D01*
X90565789Y-104750038D02*
X91327694Y-104750038D01*
X91327694Y-104750038D02*
X91518170Y-104845276D01*
X91518170Y-104845276D02*
X91613408Y-104940514D01*
X91613408Y-104940514D02*
X91708646Y-105130990D01*
X91708646Y-105130990D02*
X91708646Y-105416704D01*
X91708646Y-105416704D02*
X91613408Y-105607180D01*
X91613408Y-105607180D02*
X91518170Y-105702419D01*
X91518170Y-105702419D02*
X91327694Y-105797657D01*
X91327694Y-105797657D02*
X90565789Y-105797657D01*
X92565789Y-106750038D02*
X92565789Y-104750038D01*
X93422932Y-106654800D02*
X93708646Y-106750038D01*
X93708646Y-106750038D02*
X94184837Y-106750038D01*
X94184837Y-106750038D02*
X94375313Y-106654800D01*
X94375313Y-106654800D02*
X94470551Y-106559561D01*
X94470551Y-106559561D02*
X94565789Y-106369085D01*
X94565789Y-106369085D02*
X94565789Y-106178609D01*
X94565789Y-106178609D02*
X94470551Y-105988133D01*
X94470551Y-105988133D02*
X94375313Y-105892895D01*
X94375313Y-105892895D02*
X94184837Y-105797657D01*
X94184837Y-105797657D02*
X93803884Y-105702419D01*
X93803884Y-105702419D02*
X93613408Y-105607180D01*
X93613408Y-105607180D02*
X93518170Y-105511942D01*
X93518170Y-105511942D02*
X93422932Y-105321466D01*
X93422932Y-105321466D02*
X93422932Y-105130990D01*
X93422932Y-105130990D02*
X93518170Y-104940514D01*
X93518170Y-104940514D02*
X93613408Y-104845276D01*
X93613408Y-104845276D02*
X93803884Y-104750038D01*
X93803884Y-104750038D02*
X94280075Y-104750038D01*
X94280075Y-104750038D02*
X94565789Y-104845276D01*
X96946742Y-105988133D02*
X98470552Y-105988133D01*
X100756266Y-105416704D02*
X101232456Y-106750038D01*
X101232456Y-106750038D02*
X101708647Y-105416704D01*
X103518171Y-106750038D02*
X102375314Y-106750038D01*
X102946742Y-106750038D02*
X102946742Y-104750038D01*
X102946742Y-104750038D02*
X102756266Y-105035752D01*
X102756266Y-105035752D02*
X102565790Y-105226228D01*
X102565790Y-105226228D02*
X102375314Y-105321466D01*
X104375314Y-106559561D02*
X104470552Y-106654800D01*
X104470552Y-106654800D02*
X104375314Y-106750038D01*
X104375314Y-106750038D02*
X104280076Y-106654800D01*
X104280076Y-106654800D02*
X104375314Y-106559561D01*
X104375314Y-106559561D02*
X104375314Y-106750038D01*
X105708647Y-104750038D02*
X105899124Y-104750038D01*
X105899124Y-104750038D02*
X106089600Y-104845276D01*
X106089600Y-104845276D02*
X106184838Y-104940514D01*
X106184838Y-104940514D02*
X106280076Y-105130990D01*
X106280076Y-105130990D02*
X106375314Y-105511942D01*
X106375314Y-105511942D02*
X106375314Y-105988133D01*
X106375314Y-105988133D02*
X106280076Y-106369085D01*
X106280076Y-106369085D02*
X106184838Y-106559561D01*
X106184838Y-106559561D02*
X106089600Y-106654800D01*
X106089600Y-106654800D02*
X105899124Y-106750038D01*
X105899124Y-106750038D02*
X105708647Y-106750038D01*
X105708647Y-106750038D02*
X105518171Y-106654800D01*
X105518171Y-106654800D02*
X105422933Y-106559561D01*
X105422933Y-106559561D02*
X105327695Y-106369085D01*
X105327695Y-106369085D02*
X105232457Y-105988133D01*
X105232457Y-105988133D02*
X105232457Y-105511942D01*
X105232457Y-105511942D02*
X105327695Y-105130990D01*
X105327695Y-105130990D02*
X105422933Y-104940514D01*
X105422933Y-104940514D02*
X105518171Y-104845276D01*
X105518171Y-104845276D02*
X105708647Y-104750038D01*
X80603884Y-36242419D02*
X80603884Y-37051942D01*
X80603884Y-37051942D02*
X80651503Y-37147180D01*
X80651503Y-37147180D02*
X80699122Y-37194800D01*
X80699122Y-37194800D02*
X80794360Y-37242419D01*
X80794360Y-37242419D02*
X80984836Y-37242419D01*
X80984836Y-37242419D02*
X81080074Y-37194800D01*
X81080074Y-37194800D02*
X81127693Y-37147180D01*
X81127693Y-37147180D02*
X81175312Y-37051942D01*
X81175312Y-37051942D02*
X81175312Y-36242419D01*
X81603884Y-37194800D02*
X81746741Y-37242419D01*
X81746741Y-37242419D02*
X81984836Y-37242419D01*
X81984836Y-37242419D02*
X82080074Y-37194800D01*
X82080074Y-37194800D02*
X82127693Y-37147180D01*
X82127693Y-37147180D02*
X82175312Y-37051942D01*
X82175312Y-37051942D02*
X82175312Y-36956704D01*
X82175312Y-36956704D02*
X82127693Y-36861466D01*
X82127693Y-36861466D02*
X82080074Y-36813847D01*
X82080074Y-36813847D02*
X81984836Y-36766228D01*
X81984836Y-36766228D02*
X81794360Y-36718609D01*
X81794360Y-36718609D02*
X81699122Y-36670990D01*
X81699122Y-36670990D02*
X81651503Y-36623371D01*
X81651503Y-36623371D02*
X81603884Y-36528133D01*
X81603884Y-36528133D02*
X81603884Y-36432895D01*
X81603884Y-36432895D02*
X81651503Y-36337657D01*
X81651503Y-36337657D02*
X81699122Y-36290038D01*
X81699122Y-36290038D02*
X81794360Y-36242419D01*
X81794360Y-36242419D02*
X82032455Y-36242419D01*
X82032455Y-36242419D02*
X82175312Y-36290038D01*
X82937217Y-36718609D02*
X83080074Y-36766228D01*
X83080074Y-36766228D02*
X83127693Y-36813847D01*
X83127693Y-36813847D02*
X83175312Y-36909085D01*
X83175312Y-36909085D02*
X83175312Y-37051942D01*
X83175312Y-37051942D02*
X83127693Y-37147180D01*
X83127693Y-37147180D02*
X83080074Y-37194800D01*
X83080074Y-37194800D02*
X82984836Y-37242419D01*
X82984836Y-37242419D02*
X82603884Y-37242419D01*
X82603884Y-37242419D02*
X82603884Y-36242419D01*
X82603884Y-36242419D02*
X82937217Y-36242419D01*
X82937217Y-36242419D02*
X83032455Y-36290038D01*
X83032455Y-36290038D02*
X83080074Y-36337657D01*
X83080074Y-36337657D02*
X83127693Y-36432895D01*
X83127693Y-36432895D02*
X83127693Y-36528133D01*
X83127693Y-36528133D02*
X83080074Y-36623371D01*
X83080074Y-36623371D02*
X83032455Y-36670990D01*
X83032455Y-36670990D02*
X82937217Y-36718609D01*
X82937217Y-36718609D02*
X82603884Y-36718609D01*
X83603884Y-36861466D02*
X84365789Y-36861466D01*
X85413407Y-37147180D02*
X85365788Y-37194800D01*
X85365788Y-37194800D02*
X85222931Y-37242419D01*
X85222931Y-37242419D02*
X85127693Y-37242419D01*
X85127693Y-37242419D02*
X84984836Y-37194800D01*
X84984836Y-37194800D02*
X84889598Y-37099561D01*
X84889598Y-37099561D02*
X84841979Y-37004323D01*
X84841979Y-37004323D02*
X84794360Y-36813847D01*
X84794360Y-36813847D02*
X84794360Y-36670990D01*
X84794360Y-36670990D02*
X84841979Y-36480514D01*
X84841979Y-36480514D02*
X84889598Y-36385276D01*
X84889598Y-36385276D02*
X84984836Y-36290038D01*
X84984836Y-36290038D02*
X85127693Y-36242419D01*
X85127693Y-36242419D02*
X85222931Y-36242419D01*
X85222931Y-36242419D02*
X85365788Y-36290038D01*
X85365788Y-36290038D02*
X85413407Y-36337657D01*
X80556265Y-57956704D02*
X81032455Y-57956704D01*
X80461027Y-58242419D02*
X80794360Y-57242419D01*
X80794360Y-57242419D02*
X81127693Y-58242419D01*
X81461027Y-58242419D02*
X81461027Y-57242419D01*
X81461027Y-57242419D02*
X82032455Y-58242419D01*
X82032455Y-58242419D02*
X82032455Y-57242419D01*
X82365789Y-57242419D02*
X82937217Y-57242419D01*
X82651503Y-58242419D02*
X82651503Y-57242419D01*
X97516265Y-71954800D02*
X97659122Y-72002419D01*
X97659122Y-72002419D02*
X97897217Y-72002419D01*
X97897217Y-72002419D02*
X97992455Y-71954800D01*
X97992455Y-71954800D02*
X98040074Y-71907180D01*
X98040074Y-71907180D02*
X98087693Y-71811942D01*
X98087693Y-71811942D02*
X98087693Y-71716704D01*
X98087693Y-71716704D02*
X98040074Y-71621466D01*
X98040074Y-71621466D02*
X97992455Y-71573847D01*
X97992455Y-71573847D02*
X97897217Y-71526228D01*
X97897217Y-71526228D02*
X97706741Y-71478609D01*
X97706741Y-71478609D02*
X97611503Y-71430990D01*
X97611503Y-71430990D02*
X97563884Y-71383371D01*
X97563884Y-71383371D02*
X97516265Y-71288133D01*
X97516265Y-71288133D02*
X97516265Y-71192895D01*
X97516265Y-71192895D02*
X97563884Y-71097657D01*
X97563884Y-71097657D02*
X97611503Y-71050038D01*
X97611503Y-71050038D02*
X97706741Y-71002419D01*
X97706741Y-71002419D02*
X97944836Y-71002419D01*
X97944836Y-71002419D02*
X98087693Y-71050038D01*
X99087693Y-71907180D02*
X99040074Y-71954800D01*
X99040074Y-71954800D02*
X98897217Y-72002419D01*
X98897217Y-72002419D02*
X98801979Y-72002419D01*
X98801979Y-72002419D02*
X98659122Y-71954800D01*
X98659122Y-71954800D02*
X98563884Y-71859561D01*
X98563884Y-71859561D02*
X98516265Y-71764323D01*
X98516265Y-71764323D02*
X98468646Y-71573847D01*
X98468646Y-71573847D02*
X98468646Y-71430990D01*
X98468646Y-71430990D02*
X98516265Y-71240514D01*
X98516265Y-71240514D02*
X98563884Y-71145276D01*
X98563884Y-71145276D02*
X98659122Y-71050038D01*
X98659122Y-71050038D02*
X98801979Y-71002419D01*
X98801979Y-71002419D02*
X98897217Y-71002419D01*
X98897217Y-71002419D02*
X99040074Y-71050038D01*
X99040074Y-71050038D02*
X99087693Y-71097657D01*
X99516265Y-72002419D02*
X99516265Y-71002419D01*
X99516265Y-71002419D02*
X99754360Y-71002419D01*
X99754360Y-71002419D02*
X99897217Y-71050038D01*
X99897217Y-71050038D02*
X99992455Y-71145276D01*
X99992455Y-71145276D02*
X100040074Y-71240514D01*
X100040074Y-71240514D02*
X100087693Y-71430990D01*
X100087693Y-71430990D02*
X100087693Y-71573847D01*
X100087693Y-71573847D02*
X100040074Y-71764323D01*
X100040074Y-71764323D02*
X99992455Y-71859561D01*
X99992455Y-71859561D02*
X99897217Y-71954800D01*
X99897217Y-71954800D02*
X99754360Y-72002419D01*
X99754360Y-72002419D02*
X99516265Y-72002419D01*
X100944836Y-71335752D02*
X100944836Y-72002419D01*
X100706741Y-70954800D02*
X100468646Y-71669085D01*
X100468646Y-71669085D02*
X101087693Y-71669085D01*
X101659122Y-71002419D02*
X101754360Y-71002419D01*
X101754360Y-71002419D02*
X101849598Y-71050038D01*
X101849598Y-71050038D02*
X101897217Y-71097657D01*
X101897217Y-71097657D02*
X101944836Y-71192895D01*
X101944836Y-71192895D02*
X101992455Y-71383371D01*
X101992455Y-71383371D02*
X101992455Y-71621466D01*
X101992455Y-71621466D02*
X101944836Y-71811942D01*
X101944836Y-71811942D02*
X101897217Y-71907180D01*
X101897217Y-71907180D02*
X101849598Y-71954800D01*
X101849598Y-71954800D02*
X101754360Y-72002419D01*
X101754360Y-72002419D02*
X101659122Y-72002419D01*
X101659122Y-72002419D02*
X101563884Y-71954800D01*
X101563884Y-71954800D02*
X101516265Y-71907180D01*
X101516265Y-71907180D02*
X101468646Y-71811942D01*
X101468646Y-71811942D02*
X101421027Y-71621466D01*
X101421027Y-71621466D02*
X101421027Y-71383371D01*
X101421027Y-71383371D02*
X101468646Y-71192895D01*
X101468646Y-71192895D02*
X101516265Y-71097657D01*
X101516265Y-71097657D02*
X101563884Y-71050038D01*
X101563884Y-71050038D02*
X101659122Y-71002419D01*
X97232419Y-82821353D02*
X97232419Y-82202306D01*
X97232419Y-82202306D02*
X97613371Y-82535639D01*
X97613371Y-82535639D02*
X97613371Y-82392782D01*
X97613371Y-82392782D02*
X97660990Y-82297544D01*
X97660990Y-82297544D02*
X97708609Y-82249925D01*
X97708609Y-82249925D02*
X97803847Y-82202306D01*
X97803847Y-82202306D02*
X98041942Y-82202306D01*
X98041942Y-82202306D02*
X98137180Y-82249925D01*
X98137180Y-82249925D02*
X98184800Y-82297544D01*
X98184800Y-82297544D02*
X98232419Y-82392782D01*
X98232419Y-82392782D02*
X98232419Y-82678496D01*
X98232419Y-82678496D02*
X98184800Y-82773734D01*
X98184800Y-82773734D02*
X98137180Y-82821353D01*
X97232419Y-81916591D02*
X98232419Y-81583258D01*
X98232419Y-81583258D02*
X97232419Y-81249925D01*
X97232419Y-81011829D02*
X97232419Y-80392782D01*
X97232419Y-80392782D02*
X97613371Y-80726115D01*
X97613371Y-80726115D02*
X97613371Y-80583258D01*
X97613371Y-80583258D02*
X97660990Y-80488020D01*
X97660990Y-80488020D02*
X97708609Y-80440401D01*
X97708609Y-80440401D02*
X97803847Y-80392782D01*
X97803847Y-80392782D02*
X98041942Y-80392782D01*
X98041942Y-80392782D02*
X98137180Y-80440401D01*
X98137180Y-80440401D02*
X98184800Y-80488020D01*
X98184800Y-80488020D02*
X98232419Y-80583258D01*
X98232419Y-80583258D02*
X98232419Y-80868972D01*
X98232419Y-80868972D02*
X98184800Y-80964210D01*
X98184800Y-80964210D02*
X98137180Y-81011829D01*
X100664800Y-82793734D02*
X100712419Y-82650877D01*
X100712419Y-82650877D02*
X100712419Y-82412782D01*
X100712419Y-82412782D02*
X100664800Y-82317544D01*
X100664800Y-82317544D02*
X100617180Y-82269925D01*
X100617180Y-82269925D02*
X100521942Y-82222306D01*
X100521942Y-82222306D02*
X100426704Y-82222306D01*
X100426704Y-82222306D02*
X100331466Y-82269925D01*
X100331466Y-82269925D02*
X100283847Y-82317544D01*
X100283847Y-82317544D02*
X100236228Y-82412782D01*
X100236228Y-82412782D02*
X100188609Y-82603258D01*
X100188609Y-82603258D02*
X100140990Y-82698496D01*
X100140990Y-82698496D02*
X100093371Y-82746115D01*
X100093371Y-82746115D02*
X99998133Y-82793734D01*
X99998133Y-82793734D02*
X99902895Y-82793734D01*
X99902895Y-82793734D02*
X99807657Y-82746115D01*
X99807657Y-82746115D02*
X99760038Y-82698496D01*
X99760038Y-82698496D02*
X99712419Y-82603258D01*
X99712419Y-82603258D02*
X99712419Y-82365163D01*
X99712419Y-82365163D02*
X99760038Y-82222306D01*
X100617180Y-81222306D02*
X100664800Y-81269925D01*
X100664800Y-81269925D02*
X100712419Y-81412782D01*
X100712419Y-81412782D02*
X100712419Y-81508020D01*
X100712419Y-81508020D02*
X100664800Y-81650877D01*
X100664800Y-81650877D02*
X100569561Y-81746115D01*
X100569561Y-81746115D02*
X100474323Y-81793734D01*
X100474323Y-81793734D02*
X100283847Y-81841353D01*
X100283847Y-81841353D02*
X100140990Y-81841353D01*
X100140990Y-81841353D02*
X99950514Y-81793734D01*
X99950514Y-81793734D02*
X99855276Y-81746115D01*
X99855276Y-81746115D02*
X99760038Y-81650877D01*
X99760038Y-81650877D02*
X99712419Y-81508020D01*
X99712419Y-81508020D02*
X99712419Y-81412782D01*
X99712419Y-81412782D02*
X99760038Y-81269925D01*
X99760038Y-81269925D02*
X99807657Y-81222306D01*
X100712419Y-80317544D02*
X100712419Y-80793734D01*
X100712419Y-80793734D02*
X99712419Y-80793734D01*
X94680038Y-82302306D02*
X94632419Y-82397544D01*
X94632419Y-82397544D02*
X94632419Y-82540401D01*
X94632419Y-82540401D02*
X94680038Y-82683258D01*
X94680038Y-82683258D02*
X94775276Y-82778496D01*
X94775276Y-82778496D02*
X94870514Y-82826115D01*
X94870514Y-82826115D02*
X95060990Y-82873734D01*
X95060990Y-82873734D02*
X95203847Y-82873734D01*
X95203847Y-82873734D02*
X95394323Y-82826115D01*
X95394323Y-82826115D02*
X95489561Y-82778496D01*
X95489561Y-82778496D02*
X95584800Y-82683258D01*
X95584800Y-82683258D02*
X95632419Y-82540401D01*
X95632419Y-82540401D02*
X95632419Y-82445163D01*
X95632419Y-82445163D02*
X95584800Y-82302306D01*
X95584800Y-82302306D02*
X95537180Y-82254687D01*
X95537180Y-82254687D02*
X95203847Y-82254687D01*
X95203847Y-82254687D02*
X95203847Y-82445163D01*
X95632419Y-81826115D02*
X94632419Y-81826115D01*
X94632419Y-81826115D02*
X95632419Y-81254687D01*
X95632419Y-81254687D02*
X94632419Y-81254687D01*
X95632419Y-80778496D02*
X94632419Y-80778496D01*
X94632419Y-80778496D02*
X94632419Y-80540401D01*
X94632419Y-80540401D02*
X94680038Y-80397544D01*
X94680038Y-80397544D02*
X94775276Y-80302306D01*
X94775276Y-80302306D02*
X94870514Y-80254687D01*
X94870514Y-80254687D02*
X95060990Y-80207068D01*
X95060990Y-80207068D02*
X95203847Y-80207068D01*
X95203847Y-80207068D02*
X95394323Y-80254687D01*
X95394323Y-80254687D02*
X95489561Y-80302306D01*
X95489561Y-80302306D02*
X95584800Y-80397544D01*
X95584800Y-80397544D02*
X95632419Y-80540401D01*
X95632419Y-80540401D02*
X95632419Y-80778496D01*
X103164800Y-82793734D02*
X103212419Y-82650877D01*
X103212419Y-82650877D02*
X103212419Y-82412782D01*
X103212419Y-82412782D02*
X103164800Y-82317544D01*
X103164800Y-82317544D02*
X103117180Y-82269925D01*
X103117180Y-82269925D02*
X103021942Y-82222306D01*
X103021942Y-82222306D02*
X102926704Y-82222306D01*
X102926704Y-82222306D02*
X102831466Y-82269925D01*
X102831466Y-82269925D02*
X102783847Y-82317544D01*
X102783847Y-82317544D02*
X102736228Y-82412782D01*
X102736228Y-82412782D02*
X102688609Y-82603258D01*
X102688609Y-82603258D02*
X102640990Y-82698496D01*
X102640990Y-82698496D02*
X102593371Y-82746115D01*
X102593371Y-82746115D02*
X102498133Y-82793734D01*
X102498133Y-82793734D02*
X102402895Y-82793734D01*
X102402895Y-82793734D02*
X102307657Y-82746115D01*
X102307657Y-82746115D02*
X102260038Y-82698496D01*
X102260038Y-82698496D02*
X102212419Y-82603258D01*
X102212419Y-82603258D02*
X102212419Y-82365163D01*
X102212419Y-82365163D02*
X102260038Y-82222306D01*
X103212419Y-81793734D02*
X102212419Y-81793734D01*
X102212419Y-81793734D02*
X102212419Y-81555639D01*
X102212419Y-81555639D02*
X102260038Y-81412782D01*
X102260038Y-81412782D02*
X102355276Y-81317544D01*
X102355276Y-81317544D02*
X102450514Y-81269925D01*
X102450514Y-81269925D02*
X102640990Y-81222306D01*
X102640990Y-81222306D02*
X102783847Y-81222306D01*
X102783847Y-81222306D02*
X102974323Y-81269925D01*
X102974323Y-81269925D02*
X103069561Y-81317544D01*
X103069561Y-81317544D02*
X103164800Y-81412782D01*
X103164800Y-81412782D02*
X103212419Y-81555639D01*
X103212419Y-81555639D02*
X103212419Y-81793734D01*
X102926704Y-80841353D02*
X102926704Y-80365163D01*
X103212419Y-80936591D02*
X102212419Y-80603258D01*
X102212419Y-80603258D02*
X103212419Y-80269925D01*
D10*
X41666666Y-35931009D02*
X41333333Y-35931009D01*
X41333333Y-36454819D02*
X41333333Y-35454819D01*
X41333333Y-35454819D02*
X41809523Y-35454819D01*
X42714285Y-36454819D02*
X42142857Y-36454819D01*
X42428571Y-36454819D02*
X42428571Y-35454819D01*
X42428571Y-35454819D02*
X42333333Y-35597676D01*
X42333333Y-35597676D02*
X42238095Y-35692914D01*
X42238095Y-35692914D02*
X42142857Y-35740533D01*
X60031009Y-57109523D02*
X60078628Y-56966666D01*
X60078628Y-56966666D02*
X60126247Y-56919047D01*
X60126247Y-56919047D02*
X60221485Y-56871428D01*
X60221485Y-56871428D02*
X60364342Y-56871428D01*
X60364342Y-56871428D02*
X60459580Y-56919047D01*
X60459580Y-56919047D02*
X60507200Y-56966666D01*
X60507200Y-56966666D02*
X60554819Y-57061904D01*
X60554819Y-57061904D02*
X60554819Y-57442856D01*
X60554819Y-57442856D02*
X59554819Y-57442856D01*
X59554819Y-57442856D02*
X59554819Y-57109523D01*
X59554819Y-57109523D02*
X59602438Y-57014285D01*
X59602438Y-57014285D02*
X59650057Y-56966666D01*
X59650057Y-56966666D02*
X59745295Y-56919047D01*
X59745295Y-56919047D02*
X59840533Y-56919047D01*
X59840533Y-56919047D02*
X59935771Y-56966666D01*
X59935771Y-56966666D02*
X59983390Y-57014285D01*
X59983390Y-57014285D02*
X60031009Y-57109523D01*
X60031009Y-57109523D02*
X60031009Y-57442856D01*
X60507200Y-56490475D02*
X60554819Y-56347618D01*
X60554819Y-56347618D02*
X60554819Y-56109523D01*
X60554819Y-56109523D02*
X60507200Y-56014285D01*
X60507200Y-56014285D02*
X60459580Y-55966666D01*
X60459580Y-55966666D02*
X60364342Y-55919047D01*
X60364342Y-55919047D02*
X60269104Y-55919047D01*
X60269104Y-55919047D02*
X60173866Y-55966666D01*
X60173866Y-55966666D02*
X60126247Y-56014285D01*
X60126247Y-56014285D02*
X60078628Y-56109523D01*
X60078628Y-56109523D02*
X60031009Y-56299999D01*
X60031009Y-56299999D02*
X59983390Y-56395237D01*
X59983390Y-56395237D02*
X59935771Y-56442856D01*
X59935771Y-56442856D02*
X59840533Y-56490475D01*
X59840533Y-56490475D02*
X59745295Y-56490475D01*
X59745295Y-56490475D02*
X59650057Y-56442856D01*
X59650057Y-56442856D02*
X59602438Y-56395237D01*
X59602438Y-56395237D02*
X59554819Y-56299999D01*
X59554819Y-56299999D02*
X59554819Y-56061904D01*
X59554819Y-56061904D02*
X59602438Y-55919047D01*
X60507200Y-55538094D02*
X60554819Y-55395237D01*
X60554819Y-55395237D02*
X60554819Y-55157142D01*
X60554819Y-55157142D02*
X60507200Y-55061904D01*
X60507200Y-55061904D02*
X60459580Y-55014285D01*
X60459580Y-55014285D02*
X60364342Y-54966666D01*
X60364342Y-54966666D02*
X60269104Y-54966666D01*
X60269104Y-54966666D02*
X60173866Y-55014285D01*
X60173866Y-55014285D02*
X60126247Y-55061904D01*
X60126247Y-55061904D02*
X60078628Y-55157142D01*
X60078628Y-55157142D02*
X60031009Y-55347618D01*
X60031009Y-55347618D02*
X59983390Y-55442856D01*
X59983390Y-55442856D02*
X59935771Y-55490475D01*
X59935771Y-55490475D02*
X59840533Y-55538094D01*
X59840533Y-55538094D02*
X59745295Y-55538094D01*
X59745295Y-55538094D02*
X59650057Y-55490475D01*
X59650057Y-55490475D02*
X59602438Y-55442856D01*
X59602438Y-55442856D02*
X59554819Y-55347618D01*
X59554819Y-55347618D02*
X59554819Y-55109523D01*
X59554819Y-55109523D02*
X59602438Y-54966666D01*
X60554819Y-54014285D02*
X60554819Y-54585713D01*
X60554819Y-54299999D02*
X59554819Y-54299999D01*
X59554819Y-54299999D02*
X59697676Y-54395237D01*
X59697676Y-54395237D02*
X59792914Y-54490475D01*
X59792914Y-54490475D02*
X59840533Y-54585713D01*
X59554819Y-53680951D02*
X59554819Y-53061904D01*
X59554819Y-53061904D02*
X59935771Y-53395237D01*
X59935771Y-53395237D02*
X59935771Y-53252380D01*
X59935771Y-53252380D02*
X59983390Y-53157142D01*
X59983390Y-53157142D02*
X60031009Y-53109523D01*
X60031009Y-53109523D02*
X60126247Y-53061904D01*
X60126247Y-53061904D02*
X60364342Y-53061904D01*
X60364342Y-53061904D02*
X60459580Y-53109523D01*
X60459580Y-53109523D02*
X60507200Y-53157142D01*
X60507200Y-53157142D02*
X60554819Y-53252380D01*
X60554819Y-53252380D02*
X60554819Y-53538094D01*
X60554819Y-53538094D02*
X60507200Y-53633332D01*
X60507200Y-53633332D02*
X60459580Y-53680951D01*
X59983390Y-52490475D02*
X59935771Y-52585713D01*
X59935771Y-52585713D02*
X59888152Y-52633332D01*
X59888152Y-52633332D02*
X59792914Y-52680951D01*
X59792914Y-52680951D02*
X59745295Y-52680951D01*
X59745295Y-52680951D02*
X59650057Y-52633332D01*
X59650057Y-52633332D02*
X59602438Y-52585713D01*
X59602438Y-52585713D02*
X59554819Y-52490475D01*
X59554819Y-52490475D02*
X59554819Y-52299999D01*
X59554819Y-52299999D02*
X59602438Y-52204761D01*
X59602438Y-52204761D02*
X59650057Y-52157142D01*
X59650057Y-52157142D02*
X59745295Y-52109523D01*
X59745295Y-52109523D02*
X59792914Y-52109523D01*
X59792914Y-52109523D02*
X59888152Y-52157142D01*
X59888152Y-52157142D02*
X59935771Y-52204761D01*
X59935771Y-52204761D02*
X59983390Y-52299999D01*
X59983390Y-52299999D02*
X59983390Y-52490475D01*
X59983390Y-52490475D02*
X60031009Y-52585713D01*
X60031009Y-52585713D02*
X60078628Y-52633332D01*
X60078628Y-52633332D02*
X60173866Y-52680951D01*
X60173866Y-52680951D02*
X60364342Y-52680951D01*
X60364342Y-52680951D02*
X60459580Y-52633332D01*
X60459580Y-52633332D02*
X60507200Y-52585713D01*
X60507200Y-52585713D02*
X60554819Y-52490475D01*
X60554819Y-52490475D02*
X60554819Y-52299999D01*
X60554819Y-52299999D02*
X60507200Y-52204761D01*
X60507200Y-52204761D02*
X60459580Y-52157142D01*
X60459580Y-52157142D02*
X60364342Y-52109523D01*
X60364342Y-52109523D02*
X60173866Y-52109523D01*
X60173866Y-52109523D02*
X60078628Y-52157142D01*
X60078628Y-52157142D02*
X60031009Y-52204761D01*
X60031009Y-52204761D02*
X59983390Y-52299999D01*
X55604819Y-36619047D02*
X55604819Y-37190475D01*
X55604819Y-36904761D02*
X54604819Y-36904761D01*
X54604819Y-36904761D02*
X54747676Y-36999999D01*
X54747676Y-36999999D02*
X54842914Y-37095237D01*
X54842914Y-37095237D02*
X54890533Y-37190475D01*
X54604819Y-35999999D02*
X54604819Y-35904761D01*
X54604819Y-35904761D02*
X54652438Y-35809523D01*
X54652438Y-35809523D02*
X54700057Y-35761904D01*
X54700057Y-35761904D02*
X54795295Y-35714285D01*
X54795295Y-35714285D02*
X54985771Y-35666666D01*
X54985771Y-35666666D02*
X55223866Y-35666666D01*
X55223866Y-35666666D02*
X55414342Y-35714285D01*
X55414342Y-35714285D02*
X55509580Y-35761904D01*
X55509580Y-35761904D02*
X55557200Y-35809523D01*
X55557200Y-35809523D02*
X55604819Y-35904761D01*
X55604819Y-35904761D02*
X55604819Y-35999999D01*
X55604819Y-35999999D02*
X55557200Y-36095237D01*
X55557200Y-36095237D02*
X55509580Y-36142856D01*
X55509580Y-36142856D02*
X55414342Y-36190475D01*
X55414342Y-36190475D02*
X55223866Y-36238094D01*
X55223866Y-36238094D02*
X54985771Y-36238094D01*
X54985771Y-36238094D02*
X54795295Y-36190475D01*
X54795295Y-36190475D02*
X54700057Y-36142856D01*
X54700057Y-36142856D02*
X54652438Y-36095237D01*
X54652438Y-36095237D02*
X54604819Y-35999999D01*
X54604819Y-35047618D02*
X54604819Y-34952380D01*
X54604819Y-34952380D02*
X54652438Y-34857142D01*
X54652438Y-34857142D02*
X54700057Y-34809523D01*
X54700057Y-34809523D02*
X54795295Y-34761904D01*
X54795295Y-34761904D02*
X54985771Y-34714285D01*
X54985771Y-34714285D02*
X55223866Y-34714285D01*
X55223866Y-34714285D02*
X55414342Y-34761904D01*
X55414342Y-34761904D02*
X55509580Y-34809523D01*
X55509580Y-34809523D02*
X55557200Y-34857142D01*
X55557200Y-34857142D02*
X55604819Y-34952380D01*
X55604819Y-34952380D02*
X55604819Y-35047618D01*
X55604819Y-35047618D02*
X55557200Y-35142856D01*
X55557200Y-35142856D02*
X55509580Y-35190475D01*
X55509580Y-35190475D02*
X55414342Y-35238094D01*
X55414342Y-35238094D02*
X55223866Y-35285713D01*
X55223866Y-35285713D02*
X54985771Y-35285713D01*
X54985771Y-35285713D02*
X54795295Y-35238094D01*
X54795295Y-35238094D02*
X54700057Y-35190475D01*
X54700057Y-35190475D02*
X54652438Y-35142856D01*
X54652438Y-35142856D02*
X54604819Y-35047618D01*
X54938152Y-34285713D02*
X55938152Y-34285713D01*
X55461961Y-33809523D02*
X55557200Y-33761904D01*
X55557200Y-33761904D02*
X55604819Y-33666666D01*
X55461961Y-34285713D02*
X55557200Y-34238094D01*
X55557200Y-34238094D02*
X55604819Y-34142856D01*
X55604819Y-34142856D02*
X55604819Y-33952380D01*
X55604819Y-33952380D02*
X55557200Y-33857142D01*
X55557200Y-33857142D02*
X55461961Y-33809523D01*
X55461961Y-33809523D02*
X54938152Y-33809523D01*
X55081009Y-32904761D02*
X55081009Y-33238094D01*
X55604819Y-33238094D02*
X54604819Y-33238094D01*
X54604819Y-33238094D02*
X54604819Y-32761904D01*
D11*
X132396265Y-104464800D02*
X132539122Y-104512419D01*
X132539122Y-104512419D02*
X132777217Y-104512419D01*
X132777217Y-104512419D02*
X132872455Y-104464800D01*
X132872455Y-104464800D02*
X132920074Y-104417180D01*
X132920074Y-104417180D02*
X132967693Y-104321942D01*
X132967693Y-104321942D02*
X132967693Y-104226704D01*
X132967693Y-104226704D02*
X132920074Y-104131466D01*
X132920074Y-104131466D02*
X132872455Y-104083847D01*
X132872455Y-104083847D02*
X132777217Y-104036228D01*
X132777217Y-104036228D02*
X132586741Y-103988609D01*
X132586741Y-103988609D02*
X132491503Y-103940990D01*
X132491503Y-103940990D02*
X132443884Y-103893371D01*
X132443884Y-103893371D02*
X132396265Y-103798133D01*
X132396265Y-103798133D02*
X132396265Y-103702895D01*
X132396265Y-103702895D02*
X132443884Y-103607657D01*
X132443884Y-103607657D02*
X132491503Y-103560038D01*
X132491503Y-103560038D02*
X132586741Y-103512419D01*
X132586741Y-103512419D02*
X132824836Y-103512419D01*
X132824836Y-103512419D02*
X132967693Y-103560038D01*
X133396265Y-104512419D02*
X133396265Y-103512419D01*
X133396265Y-103512419D02*
X133634360Y-103512419D01*
X133634360Y-103512419D02*
X133777217Y-103560038D01*
X133777217Y-103560038D02*
X133872455Y-103655276D01*
X133872455Y-103655276D02*
X133920074Y-103750514D01*
X133920074Y-103750514D02*
X133967693Y-103940990D01*
X133967693Y-103940990D02*
X133967693Y-104083847D01*
X133967693Y-104083847D02*
X133920074Y-104274323D01*
X133920074Y-104274323D02*
X133872455Y-104369561D01*
X133872455Y-104369561D02*
X133777217Y-104464800D01*
X133777217Y-104464800D02*
X133634360Y-104512419D01*
X133634360Y-104512419D02*
X133396265Y-104512419D01*
X134348646Y-104226704D02*
X134824836Y-104226704D01*
X134253408Y-104512419D02*
X134586741Y-103512419D01*
X134586741Y-103512419D02*
X134920074Y-104512419D01*
X132927693Y-98520038D02*
X132832455Y-98472419D01*
X132832455Y-98472419D02*
X132689598Y-98472419D01*
X132689598Y-98472419D02*
X132546741Y-98520038D01*
X132546741Y-98520038D02*
X132451503Y-98615276D01*
X132451503Y-98615276D02*
X132403884Y-98710514D01*
X132403884Y-98710514D02*
X132356265Y-98900990D01*
X132356265Y-98900990D02*
X132356265Y-99043847D01*
X132356265Y-99043847D02*
X132403884Y-99234323D01*
X132403884Y-99234323D02*
X132451503Y-99329561D01*
X132451503Y-99329561D02*
X132546741Y-99424800D01*
X132546741Y-99424800D02*
X132689598Y-99472419D01*
X132689598Y-99472419D02*
X132784836Y-99472419D01*
X132784836Y-99472419D02*
X132927693Y-99424800D01*
X132927693Y-99424800D02*
X132975312Y-99377180D01*
X132975312Y-99377180D02*
X132975312Y-99043847D01*
X132975312Y-99043847D02*
X132784836Y-99043847D01*
X133403884Y-99472419D02*
X133403884Y-98472419D01*
X133403884Y-98472419D02*
X133975312Y-99472419D01*
X133975312Y-99472419D02*
X133975312Y-98472419D01*
X134451503Y-99472419D02*
X134451503Y-98472419D01*
X134451503Y-98472419D02*
X134689598Y-98472419D01*
X134689598Y-98472419D02*
X134832455Y-98520038D01*
X134832455Y-98520038D02*
X134927693Y-98615276D01*
X134927693Y-98615276D02*
X134975312Y-98710514D01*
X134975312Y-98710514D02*
X135022931Y-98900990D01*
X135022931Y-98900990D02*
X135022931Y-99043847D01*
X135022931Y-99043847D02*
X134975312Y-99234323D01*
X134975312Y-99234323D02*
X134927693Y-99329561D01*
X134927693Y-99329561D02*
X134832455Y-99424800D01*
X134832455Y-99424800D02*
X134689598Y-99472419D01*
X134689598Y-99472419D02*
X134451503Y-99472419D01*
X136741265Y-100414800D02*
X136884122Y-100462419D01*
X136884122Y-100462419D02*
X137122217Y-100462419D01*
X137122217Y-100462419D02*
X137217455Y-100414800D01*
X137217455Y-100414800D02*
X137265074Y-100367180D01*
X137265074Y-100367180D02*
X137312693Y-100271942D01*
X137312693Y-100271942D02*
X137312693Y-100176704D01*
X137312693Y-100176704D02*
X137265074Y-100081466D01*
X137265074Y-100081466D02*
X137217455Y-100033847D01*
X137217455Y-100033847D02*
X137122217Y-99986228D01*
X137122217Y-99986228D02*
X136931741Y-99938609D01*
X136931741Y-99938609D02*
X136836503Y-99890990D01*
X136836503Y-99890990D02*
X136788884Y-99843371D01*
X136788884Y-99843371D02*
X136741265Y-99748133D01*
X136741265Y-99748133D02*
X136741265Y-99652895D01*
X136741265Y-99652895D02*
X136788884Y-99557657D01*
X136788884Y-99557657D02*
X136836503Y-99510038D01*
X136836503Y-99510038D02*
X136931741Y-99462419D01*
X136931741Y-99462419D02*
X137169836Y-99462419D01*
X137169836Y-99462419D02*
X137312693Y-99510038D01*
X137741265Y-100462419D02*
X137741265Y-99462419D01*
X137741265Y-99938609D02*
X138312693Y-99938609D01*
X138312693Y-100462419D02*
X138312693Y-99462419D01*
X138646027Y-99462419D02*
X139217455Y-99462419D01*
X138931741Y-100462419D02*
X138931741Y-99462419D01*
X139979360Y-99795752D02*
X139979360Y-100462419D01*
X139741265Y-99414800D02*
X139503170Y-100129085D01*
X139503170Y-100129085D02*
X140122217Y-100129085D01*
X140979360Y-99462419D02*
X140503170Y-99462419D01*
X140503170Y-99462419D02*
X140455551Y-99938609D01*
X140455551Y-99938609D02*
X140503170Y-99890990D01*
X140503170Y-99890990D02*
X140598408Y-99843371D01*
X140598408Y-99843371D02*
X140836503Y-99843371D01*
X140836503Y-99843371D02*
X140931741Y-99890990D01*
X140931741Y-99890990D02*
X140979360Y-99938609D01*
X140979360Y-99938609D02*
X141026979Y-100033847D01*
X141026979Y-100033847D02*
X141026979Y-100271942D01*
X141026979Y-100271942D02*
X140979360Y-100367180D01*
X140979360Y-100367180D02*
X140931741Y-100414800D01*
X140931741Y-100414800D02*
X140836503Y-100462419D01*
X140836503Y-100462419D02*
X140598408Y-100462419D01*
X140598408Y-100462419D02*
X140503170Y-100414800D01*
X140503170Y-100414800D02*
X140455551Y-100367180D01*
X132348646Y-96112419D02*
X132967693Y-96112419D01*
X132967693Y-96112419D02*
X132634360Y-96493371D01*
X132634360Y-96493371D02*
X132777217Y-96493371D01*
X132777217Y-96493371D02*
X132872455Y-96540990D01*
X132872455Y-96540990D02*
X132920074Y-96588609D01*
X132920074Y-96588609D02*
X132967693Y-96683847D01*
X132967693Y-96683847D02*
X132967693Y-96921942D01*
X132967693Y-96921942D02*
X132920074Y-97017180D01*
X132920074Y-97017180D02*
X132872455Y-97064800D01*
X132872455Y-97064800D02*
X132777217Y-97112419D01*
X132777217Y-97112419D02*
X132491503Y-97112419D01*
X132491503Y-97112419D02*
X132396265Y-97064800D01*
X132396265Y-97064800D02*
X132348646Y-97017180D01*
X133253408Y-96112419D02*
X133586741Y-97112419D01*
X133586741Y-97112419D02*
X133920074Y-96112419D01*
X134158170Y-96112419D02*
X134777217Y-96112419D01*
X134777217Y-96112419D02*
X134443884Y-96493371D01*
X134443884Y-96493371D02*
X134586741Y-96493371D01*
X134586741Y-96493371D02*
X134681979Y-96540990D01*
X134681979Y-96540990D02*
X134729598Y-96588609D01*
X134729598Y-96588609D02*
X134777217Y-96683847D01*
X134777217Y-96683847D02*
X134777217Y-96921942D01*
X134777217Y-96921942D02*
X134729598Y-97017180D01*
X134729598Y-97017180D02*
X134681979Y-97064800D01*
X134681979Y-97064800D02*
X134586741Y-97112419D01*
X134586741Y-97112419D02*
X134301027Y-97112419D01*
X134301027Y-97112419D02*
X134205789Y-97064800D01*
X134205789Y-97064800D02*
X134158170Y-97017180D01*
X132396265Y-101964800D02*
X132539122Y-102012419D01*
X132539122Y-102012419D02*
X132777217Y-102012419D01*
X132777217Y-102012419D02*
X132872455Y-101964800D01*
X132872455Y-101964800D02*
X132920074Y-101917180D01*
X132920074Y-101917180D02*
X132967693Y-101821942D01*
X132967693Y-101821942D02*
X132967693Y-101726704D01*
X132967693Y-101726704D02*
X132920074Y-101631466D01*
X132920074Y-101631466D02*
X132872455Y-101583847D01*
X132872455Y-101583847D02*
X132777217Y-101536228D01*
X132777217Y-101536228D02*
X132586741Y-101488609D01*
X132586741Y-101488609D02*
X132491503Y-101440990D01*
X132491503Y-101440990D02*
X132443884Y-101393371D01*
X132443884Y-101393371D02*
X132396265Y-101298133D01*
X132396265Y-101298133D02*
X132396265Y-101202895D01*
X132396265Y-101202895D02*
X132443884Y-101107657D01*
X132443884Y-101107657D02*
X132491503Y-101060038D01*
X132491503Y-101060038D02*
X132586741Y-101012419D01*
X132586741Y-101012419D02*
X132824836Y-101012419D01*
X132824836Y-101012419D02*
X132967693Y-101060038D01*
X133967693Y-101917180D02*
X133920074Y-101964800D01*
X133920074Y-101964800D02*
X133777217Y-102012419D01*
X133777217Y-102012419D02*
X133681979Y-102012419D01*
X133681979Y-102012419D02*
X133539122Y-101964800D01*
X133539122Y-101964800D02*
X133443884Y-101869561D01*
X133443884Y-101869561D02*
X133396265Y-101774323D01*
X133396265Y-101774323D02*
X133348646Y-101583847D01*
X133348646Y-101583847D02*
X133348646Y-101440990D01*
X133348646Y-101440990D02*
X133396265Y-101250514D01*
X133396265Y-101250514D02*
X133443884Y-101155276D01*
X133443884Y-101155276D02*
X133539122Y-101060038D01*
X133539122Y-101060038D02*
X133681979Y-101012419D01*
X133681979Y-101012419D02*
X133777217Y-101012419D01*
X133777217Y-101012419D02*
X133920074Y-101060038D01*
X133920074Y-101060038D02*
X133967693Y-101107657D01*
X134872455Y-102012419D02*
X134396265Y-102012419D01*
X134396265Y-102012419D02*
X134396265Y-101012419D01*
D10*
X65985714Y-30050057D02*
X66033333Y-30002438D01*
X66033333Y-30002438D02*
X66128571Y-29954819D01*
X66128571Y-29954819D02*
X66366666Y-29954819D01*
X66366666Y-29954819D02*
X66461904Y-30002438D01*
X66461904Y-30002438D02*
X66509523Y-30050057D01*
X66509523Y-30050057D02*
X66557142Y-30145295D01*
X66557142Y-30145295D02*
X66557142Y-30240533D01*
X66557142Y-30240533D02*
X66509523Y-30383390D01*
X66509523Y-30383390D02*
X65938095Y-30954819D01*
X65938095Y-30954819D02*
X66557142Y-30954819D01*
X66938095Y-30050057D02*
X66985714Y-30002438D01*
X66985714Y-30002438D02*
X67080952Y-29954819D01*
X67080952Y-29954819D02*
X67319047Y-29954819D01*
X67319047Y-29954819D02*
X67414285Y-30002438D01*
X67414285Y-30002438D02*
X67461904Y-30050057D01*
X67461904Y-30050057D02*
X67509523Y-30145295D01*
X67509523Y-30145295D02*
X67509523Y-30240533D01*
X67509523Y-30240533D02*
X67461904Y-30383390D01*
X67461904Y-30383390D02*
X66890476Y-30954819D01*
X66890476Y-30954819D02*
X67509523Y-30954819D01*
X67938095Y-30288152D02*
X67938095Y-31288152D01*
X68414285Y-30811961D02*
X68461904Y-30907200D01*
X68461904Y-30907200D02*
X68557142Y-30954819D01*
X67938095Y-30811961D02*
X67985714Y-30907200D01*
X67985714Y-30907200D02*
X68080952Y-30954819D01*
X68080952Y-30954819D02*
X68271428Y-30954819D01*
X68271428Y-30954819D02*
X68366666Y-30907200D01*
X68366666Y-30907200D02*
X68414285Y-30811961D01*
X68414285Y-30811961D02*
X68414285Y-30288152D01*
X69319047Y-30431009D02*
X68985714Y-30431009D01*
X68985714Y-30954819D02*
X68985714Y-29954819D01*
X68985714Y-29954819D02*
X69461904Y-29954819D01*
D11*
X117500038Y-79672306D02*
X117452419Y-79767544D01*
X117452419Y-79767544D02*
X117452419Y-79910401D01*
X117452419Y-79910401D02*
X117500038Y-80053258D01*
X117500038Y-80053258D02*
X117595276Y-80148496D01*
X117595276Y-80148496D02*
X117690514Y-80196115D01*
X117690514Y-80196115D02*
X117880990Y-80243734D01*
X117880990Y-80243734D02*
X118023847Y-80243734D01*
X118023847Y-80243734D02*
X118214323Y-80196115D01*
X118214323Y-80196115D02*
X118309561Y-80148496D01*
X118309561Y-80148496D02*
X118404800Y-80053258D01*
X118404800Y-80053258D02*
X118452419Y-79910401D01*
X118452419Y-79910401D02*
X118452419Y-79815163D01*
X118452419Y-79815163D02*
X118404800Y-79672306D01*
X118404800Y-79672306D02*
X118357180Y-79624687D01*
X118357180Y-79624687D02*
X118023847Y-79624687D01*
X118023847Y-79624687D02*
X118023847Y-79815163D01*
X118452419Y-79196115D02*
X117452419Y-79196115D01*
X117452419Y-79196115D02*
X118452419Y-78624687D01*
X118452419Y-78624687D02*
X117452419Y-78624687D01*
X118452419Y-78148496D02*
X117452419Y-78148496D01*
X117452419Y-78148496D02*
X117452419Y-77910401D01*
X117452419Y-77910401D02*
X117500038Y-77767544D01*
X117500038Y-77767544D02*
X117595276Y-77672306D01*
X117595276Y-77672306D02*
X117690514Y-77624687D01*
X117690514Y-77624687D02*
X117880990Y-77577068D01*
X117880990Y-77577068D02*
X118023847Y-77577068D01*
X118023847Y-77577068D02*
X118214323Y-77624687D01*
X118214323Y-77624687D02*
X118309561Y-77672306D01*
X118309561Y-77672306D02*
X118404800Y-77767544D01*
X118404800Y-77767544D02*
X118452419Y-77910401D01*
X118452419Y-77910401D02*
X118452419Y-78148496D01*
X123404800Y-80143734D02*
X123452419Y-80000877D01*
X123452419Y-80000877D02*
X123452419Y-79762782D01*
X123452419Y-79762782D02*
X123404800Y-79667544D01*
X123404800Y-79667544D02*
X123357180Y-79619925D01*
X123357180Y-79619925D02*
X123261942Y-79572306D01*
X123261942Y-79572306D02*
X123166704Y-79572306D01*
X123166704Y-79572306D02*
X123071466Y-79619925D01*
X123071466Y-79619925D02*
X123023847Y-79667544D01*
X123023847Y-79667544D02*
X122976228Y-79762782D01*
X122976228Y-79762782D02*
X122928609Y-79953258D01*
X122928609Y-79953258D02*
X122880990Y-80048496D01*
X122880990Y-80048496D02*
X122833371Y-80096115D01*
X122833371Y-80096115D02*
X122738133Y-80143734D01*
X122738133Y-80143734D02*
X122642895Y-80143734D01*
X122642895Y-80143734D02*
X122547657Y-80096115D01*
X122547657Y-80096115D02*
X122500038Y-80048496D01*
X122500038Y-80048496D02*
X122452419Y-79953258D01*
X122452419Y-79953258D02*
X122452419Y-79715163D01*
X122452419Y-79715163D02*
X122500038Y-79572306D01*
X123452419Y-79143734D02*
X122452419Y-79143734D01*
X122452419Y-79143734D02*
X122452419Y-78905639D01*
X122452419Y-78905639D02*
X122500038Y-78762782D01*
X122500038Y-78762782D02*
X122595276Y-78667544D01*
X122595276Y-78667544D02*
X122690514Y-78619925D01*
X122690514Y-78619925D02*
X122880990Y-78572306D01*
X122880990Y-78572306D02*
X123023847Y-78572306D01*
X123023847Y-78572306D02*
X123214323Y-78619925D01*
X123214323Y-78619925D02*
X123309561Y-78667544D01*
X123309561Y-78667544D02*
X123404800Y-78762782D01*
X123404800Y-78762782D02*
X123452419Y-78905639D01*
X123452419Y-78905639D02*
X123452419Y-79143734D01*
X123166704Y-78191353D02*
X123166704Y-77715163D01*
X123452419Y-78286591D02*
X122452419Y-77953258D01*
X122452419Y-77953258D02*
X123452419Y-77619925D01*
X115052419Y-80191353D02*
X115052419Y-79572306D01*
X115052419Y-79572306D02*
X115433371Y-79905639D01*
X115433371Y-79905639D02*
X115433371Y-79762782D01*
X115433371Y-79762782D02*
X115480990Y-79667544D01*
X115480990Y-79667544D02*
X115528609Y-79619925D01*
X115528609Y-79619925D02*
X115623847Y-79572306D01*
X115623847Y-79572306D02*
X115861942Y-79572306D01*
X115861942Y-79572306D02*
X115957180Y-79619925D01*
X115957180Y-79619925D02*
X116004800Y-79667544D01*
X116004800Y-79667544D02*
X116052419Y-79762782D01*
X116052419Y-79762782D02*
X116052419Y-80048496D01*
X116052419Y-80048496D02*
X116004800Y-80143734D01*
X116004800Y-80143734D02*
X115957180Y-80191353D01*
X115052419Y-79286591D02*
X116052419Y-78953258D01*
X116052419Y-78953258D02*
X115052419Y-78619925D01*
X115052419Y-78381829D02*
X115052419Y-77762782D01*
X115052419Y-77762782D02*
X115433371Y-78096115D01*
X115433371Y-78096115D02*
X115433371Y-77953258D01*
X115433371Y-77953258D02*
X115480990Y-77858020D01*
X115480990Y-77858020D02*
X115528609Y-77810401D01*
X115528609Y-77810401D02*
X115623847Y-77762782D01*
X115623847Y-77762782D02*
X115861942Y-77762782D01*
X115861942Y-77762782D02*
X115957180Y-77810401D01*
X115957180Y-77810401D02*
X116004800Y-77858020D01*
X116004800Y-77858020D02*
X116052419Y-77953258D01*
X116052419Y-77953258D02*
X116052419Y-78238972D01*
X116052419Y-78238972D02*
X116004800Y-78334210D01*
X116004800Y-78334210D02*
X115957180Y-78381829D01*
X117036265Y-73054800D02*
X117179122Y-73102419D01*
X117179122Y-73102419D02*
X117417217Y-73102419D01*
X117417217Y-73102419D02*
X117512455Y-73054800D01*
X117512455Y-73054800D02*
X117560074Y-73007180D01*
X117560074Y-73007180D02*
X117607693Y-72911942D01*
X117607693Y-72911942D02*
X117607693Y-72816704D01*
X117607693Y-72816704D02*
X117560074Y-72721466D01*
X117560074Y-72721466D02*
X117512455Y-72673847D01*
X117512455Y-72673847D02*
X117417217Y-72626228D01*
X117417217Y-72626228D02*
X117226741Y-72578609D01*
X117226741Y-72578609D02*
X117131503Y-72530990D01*
X117131503Y-72530990D02*
X117083884Y-72483371D01*
X117083884Y-72483371D02*
X117036265Y-72388133D01*
X117036265Y-72388133D02*
X117036265Y-72292895D01*
X117036265Y-72292895D02*
X117083884Y-72197657D01*
X117083884Y-72197657D02*
X117131503Y-72150038D01*
X117131503Y-72150038D02*
X117226741Y-72102419D01*
X117226741Y-72102419D02*
X117464836Y-72102419D01*
X117464836Y-72102419D02*
X117607693Y-72150038D01*
X118560074Y-72150038D02*
X118464836Y-72102419D01*
X118464836Y-72102419D02*
X118321979Y-72102419D01*
X118321979Y-72102419D02*
X118179122Y-72150038D01*
X118179122Y-72150038D02*
X118083884Y-72245276D01*
X118083884Y-72245276D02*
X118036265Y-72340514D01*
X118036265Y-72340514D02*
X117988646Y-72530990D01*
X117988646Y-72530990D02*
X117988646Y-72673847D01*
X117988646Y-72673847D02*
X118036265Y-72864323D01*
X118036265Y-72864323D02*
X118083884Y-72959561D01*
X118083884Y-72959561D02*
X118179122Y-73054800D01*
X118179122Y-73054800D02*
X118321979Y-73102419D01*
X118321979Y-73102419D02*
X118417217Y-73102419D01*
X118417217Y-73102419D02*
X118560074Y-73054800D01*
X118560074Y-73054800D02*
X118607693Y-73007180D01*
X118607693Y-73007180D02*
X118607693Y-72673847D01*
X118607693Y-72673847D02*
X118417217Y-72673847D01*
X119036265Y-73102419D02*
X119036265Y-72102419D01*
X119036265Y-72102419D02*
X119417217Y-72102419D01*
X119417217Y-72102419D02*
X119512455Y-72150038D01*
X119512455Y-72150038D02*
X119560074Y-72197657D01*
X119560074Y-72197657D02*
X119607693Y-72292895D01*
X119607693Y-72292895D02*
X119607693Y-72435752D01*
X119607693Y-72435752D02*
X119560074Y-72530990D01*
X119560074Y-72530990D02*
X119512455Y-72578609D01*
X119512455Y-72578609D02*
X119417217Y-72626228D01*
X119417217Y-72626228D02*
X119036265Y-72626228D01*
X120464836Y-72435752D02*
X120464836Y-73102419D01*
X120226741Y-72054800D02*
X119988646Y-72769085D01*
X119988646Y-72769085D02*
X120607693Y-72769085D01*
X121512455Y-73102419D02*
X120941027Y-73102419D01*
X121226741Y-73102419D02*
X121226741Y-72102419D01*
X121226741Y-72102419D02*
X121131503Y-72245276D01*
X121131503Y-72245276D02*
X121036265Y-72340514D01*
X121036265Y-72340514D02*
X120941027Y-72388133D01*
X120904800Y-80143734D02*
X120952419Y-80000877D01*
X120952419Y-80000877D02*
X120952419Y-79762782D01*
X120952419Y-79762782D02*
X120904800Y-79667544D01*
X120904800Y-79667544D02*
X120857180Y-79619925D01*
X120857180Y-79619925D02*
X120761942Y-79572306D01*
X120761942Y-79572306D02*
X120666704Y-79572306D01*
X120666704Y-79572306D02*
X120571466Y-79619925D01*
X120571466Y-79619925D02*
X120523847Y-79667544D01*
X120523847Y-79667544D02*
X120476228Y-79762782D01*
X120476228Y-79762782D02*
X120428609Y-79953258D01*
X120428609Y-79953258D02*
X120380990Y-80048496D01*
X120380990Y-80048496D02*
X120333371Y-80096115D01*
X120333371Y-80096115D02*
X120238133Y-80143734D01*
X120238133Y-80143734D02*
X120142895Y-80143734D01*
X120142895Y-80143734D02*
X120047657Y-80096115D01*
X120047657Y-80096115D02*
X120000038Y-80048496D01*
X120000038Y-80048496D02*
X119952419Y-79953258D01*
X119952419Y-79953258D02*
X119952419Y-79715163D01*
X119952419Y-79715163D02*
X120000038Y-79572306D01*
X120857180Y-78572306D02*
X120904800Y-78619925D01*
X120904800Y-78619925D02*
X120952419Y-78762782D01*
X120952419Y-78762782D02*
X120952419Y-78858020D01*
X120952419Y-78858020D02*
X120904800Y-79000877D01*
X120904800Y-79000877D02*
X120809561Y-79096115D01*
X120809561Y-79096115D02*
X120714323Y-79143734D01*
X120714323Y-79143734D02*
X120523847Y-79191353D01*
X120523847Y-79191353D02*
X120380990Y-79191353D01*
X120380990Y-79191353D02*
X120190514Y-79143734D01*
X120190514Y-79143734D02*
X120095276Y-79096115D01*
X120095276Y-79096115D02*
X120000038Y-79000877D01*
X120000038Y-79000877D02*
X119952419Y-78858020D01*
X119952419Y-78858020D02*
X119952419Y-78762782D01*
X119952419Y-78762782D02*
X120000038Y-78619925D01*
X120000038Y-78619925D02*
X120047657Y-78572306D01*
X120952419Y-77667544D02*
X120952419Y-78143734D01*
X120952419Y-78143734D02*
X119952419Y-78143734D01*
D10*
X49166666Y-29931009D02*
X48833333Y-29931009D01*
X48833333Y-30454819D02*
X48833333Y-29454819D01*
X48833333Y-29454819D02*
X49309523Y-29454819D01*
X50023809Y-29931009D02*
X50166666Y-29978628D01*
X50166666Y-29978628D02*
X50214285Y-30026247D01*
X50214285Y-30026247D02*
X50261904Y-30121485D01*
X50261904Y-30121485D02*
X50261904Y-30264342D01*
X50261904Y-30264342D02*
X50214285Y-30359580D01*
X50214285Y-30359580D02*
X50166666Y-30407200D01*
X50166666Y-30407200D02*
X50071428Y-30454819D01*
X50071428Y-30454819D02*
X49690476Y-30454819D01*
X49690476Y-30454819D02*
X49690476Y-29454819D01*
X49690476Y-29454819D02*
X50023809Y-29454819D01*
X50023809Y-29454819D02*
X50119047Y-29502438D01*
X50119047Y-29502438D02*
X50166666Y-29550057D01*
X50166666Y-29550057D02*
X50214285Y-29645295D01*
X50214285Y-29645295D02*
X50214285Y-29740533D01*
X50214285Y-29740533D02*
X50166666Y-29835771D01*
X50166666Y-29835771D02*
X50119047Y-29883390D01*
X50119047Y-29883390D02*
X50023809Y-29931009D01*
X50023809Y-29931009D02*
X49690476Y-29931009D01*
X51214285Y-30454819D02*
X50642857Y-30454819D01*
X50928571Y-30454819D02*
X50928571Y-29454819D01*
X50928571Y-29454819D02*
X50833333Y-29597676D01*
X50833333Y-29597676D02*
X50738095Y-29692914D01*
X50738095Y-29692914D02*
X50642857Y-29740533D01*
X126954819Y-45714285D02*
X126954819Y-45619047D01*
X126954819Y-45619047D02*
X127002438Y-45523809D01*
X127002438Y-45523809D02*
X127050057Y-45476190D01*
X127050057Y-45476190D02*
X127145295Y-45428571D01*
X127145295Y-45428571D02*
X127335771Y-45380952D01*
X127335771Y-45380952D02*
X127573866Y-45380952D01*
X127573866Y-45380952D02*
X127764342Y-45428571D01*
X127764342Y-45428571D02*
X127859580Y-45476190D01*
X127859580Y-45476190D02*
X127907200Y-45523809D01*
X127907200Y-45523809D02*
X127954819Y-45619047D01*
X127954819Y-45619047D02*
X127954819Y-45714285D01*
X127954819Y-45714285D02*
X127907200Y-45809523D01*
X127907200Y-45809523D02*
X127859580Y-45857142D01*
X127859580Y-45857142D02*
X127764342Y-45904761D01*
X127764342Y-45904761D02*
X127573866Y-45952380D01*
X127573866Y-45952380D02*
X127335771Y-45952380D01*
X127335771Y-45952380D02*
X127145295Y-45904761D01*
X127145295Y-45904761D02*
X127050057Y-45857142D01*
X127050057Y-45857142D02*
X127002438Y-45809523D01*
X127002438Y-45809523D02*
X126954819Y-45714285D01*
X127859580Y-44952380D02*
X127907200Y-44904761D01*
X127907200Y-44904761D02*
X127954819Y-44952380D01*
X127954819Y-44952380D02*
X127907200Y-44999999D01*
X127907200Y-44999999D02*
X127859580Y-44952380D01*
X127859580Y-44952380D02*
X127954819Y-44952380D01*
X127954819Y-43952381D02*
X127954819Y-44523809D01*
X127954819Y-44238095D02*
X126954819Y-44238095D01*
X126954819Y-44238095D02*
X127097676Y-44333333D01*
X127097676Y-44333333D02*
X127192914Y-44428571D01*
X127192914Y-44428571D02*
X127240533Y-44523809D01*
X127288152Y-43523809D02*
X128288152Y-43523809D01*
X127811961Y-43047619D02*
X127907200Y-43000000D01*
X127907200Y-43000000D02*
X127954819Y-42904762D01*
X127811961Y-43523809D02*
X127907200Y-43476190D01*
X127907200Y-43476190D02*
X127954819Y-43380952D01*
X127954819Y-43380952D02*
X127954819Y-43190476D01*
X127954819Y-43190476D02*
X127907200Y-43095238D01*
X127907200Y-43095238D02*
X127811961Y-43047619D01*
X127811961Y-43047619D02*
X127288152Y-43047619D01*
X127431009Y-42142857D02*
X127431009Y-42476190D01*
X127954819Y-42476190D02*
X126954819Y-42476190D01*
X126954819Y-42476190D02*
X126954819Y-42000000D01*
X102933333Y-36354819D02*
X102361905Y-36354819D01*
X102647619Y-36354819D02*
X102647619Y-35354819D01*
X102647619Y-35354819D02*
X102552381Y-35497676D01*
X102552381Y-35497676D02*
X102457143Y-35592914D01*
X102457143Y-35592914D02*
X102361905Y-35640533D01*
X103361905Y-35688152D02*
X103361905Y-36688152D01*
X103838095Y-36211961D02*
X103885714Y-36307200D01*
X103885714Y-36307200D02*
X103980952Y-36354819D01*
X103361905Y-36211961D02*
X103409524Y-36307200D01*
X103409524Y-36307200D02*
X103504762Y-36354819D01*
X103504762Y-36354819D02*
X103695238Y-36354819D01*
X103695238Y-36354819D02*
X103790476Y-36307200D01*
X103790476Y-36307200D02*
X103838095Y-36211961D01*
X103838095Y-36211961D02*
X103838095Y-35688152D01*
X104742857Y-35831009D02*
X104409524Y-35831009D01*
X104409524Y-36354819D02*
X104409524Y-35354819D01*
X104409524Y-35354819D02*
X104885714Y-35354819D01*
X101485714Y-31154819D02*
X101580952Y-31154819D01*
X101580952Y-31154819D02*
X101676190Y-31202438D01*
X101676190Y-31202438D02*
X101723809Y-31250057D01*
X101723809Y-31250057D02*
X101771428Y-31345295D01*
X101771428Y-31345295D02*
X101819047Y-31535771D01*
X101819047Y-31535771D02*
X101819047Y-31773866D01*
X101819047Y-31773866D02*
X101771428Y-31964342D01*
X101771428Y-31964342D02*
X101723809Y-32059580D01*
X101723809Y-32059580D02*
X101676190Y-32107200D01*
X101676190Y-32107200D02*
X101580952Y-32154819D01*
X101580952Y-32154819D02*
X101485714Y-32154819D01*
X101485714Y-32154819D02*
X101390476Y-32107200D01*
X101390476Y-32107200D02*
X101342857Y-32059580D01*
X101342857Y-32059580D02*
X101295238Y-31964342D01*
X101295238Y-31964342D02*
X101247619Y-31773866D01*
X101247619Y-31773866D02*
X101247619Y-31535771D01*
X101247619Y-31535771D02*
X101295238Y-31345295D01*
X101295238Y-31345295D02*
X101342857Y-31250057D01*
X101342857Y-31250057D02*
X101390476Y-31202438D01*
X101390476Y-31202438D02*
X101485714Y-31154819D01*
X102247619Y-32059580D02*
X102295238Y-32107200D01*
X102295238Y-32107200D02*
X102247619Y-32154819D01*
X102247619Y-32154819D02*
X102200000Y-32107200D01*
X102200000Y-32107200D02*
X102247619Y-32059580D01*
X102247619Y-32059580D02*
X102247619Y-32154819D01*
X103247618Y-32154819D02*
X102676190Y-32154819D01*
X102961904Y-32154819D02*
X102961904Y-31154819D01*
X102961904Y-31154819D02*
X102866666Y-31297676D01*
X102866666Y-31297676D02*
X102771428Y-31392914D01*
X102771428Y-31392914D02*
X102676190Y-31440533D01*
X103676190Y-31488152D02*
X103676190Y-32488152D01*
X104152380Y-32011961D02*
X104199999Y-32107200D01*
X104199999Y-32107200D02*
X104295237Y-32154819D01*
X103676190Y-32011961D02*
X103723809Y-32107200D01*
X103723809Y-32107200D02*
X103819047Y-32154819D01*
X103819047Y-32154819D02*
X104009523Y-32154819D01*
X104009523Y-32154819D02*
X104104761Y-32107200D01*
X104104761Y-32107200D02*
X104152380Y-32011961D01*
X104152380Y-32011961D02*
X104152380Y-31488152D01*
X105057142Y-31631009D02*
X104723809Y-31631009D01*
X104723809Y-32154819D02*
X104723809Y-31154819D01*
X104723809Y-31154819D02*
X105199999Y-31154819D01*
X45754819Y-40938094D02*
X44754819Y-40938094D01*
X44754819Y-40938094D02*
X44754819Y-40699999D01*
X44754819Y-40699999D02*
X44802438Y-40557142D01*
X44802438Y-40557142D02*
X44897676Y-40461904D01*
X44897676Y-40461904D02*
X44992914Y-40414285D01*
X44992914Y-40414285D02*
X45183390Y-40366666D01*
X45183390Y-40366666D02*
X45326247Y-40366666D01*
X45326247Y-40366666D02*
X45516723Y-40414285D01*
X45516723Y-40414285D02*
X45611961Y-40461904D01*
X45611961Y-40461904D02*
X45707200Y-40557142D01*
X45707200Y-40557142D02*
X45754819Y-40699999D01*
X45754819Y-40699999D02*
X45754819Y-40938094D01*
X44754819Y-39747618D02*
X44754819Y-39652380D01*
X44754819Y-39652380D02*
X44802438Y-39557142D01*
X44802438Y-39557142D02*
X44850057Y-39509523D01*
X44850057Y-39509523D02*
X44945295Y-39461904D01*
X44945295Y-39461904D02*
X45135771Y-39414285D01*
X45135771Y-39414285D02*
X45373866Y-39414285D01*
X45373866Y-39414285D02*
X45564342Y-39461904D01*
X45564342Y-39461904D02*
X45659580Y-39509523D01*
X45659580Y-39509523D02*
X45707200Y-39557142D01*
X45707200Y-39557142D02*
X45754819Y-39652380D01*
X45754819Y-39652380D02*
X45754819Y-39747618D01*
X45754819Y-39747618D02*
X45707200Y-39842856D01*
X45707200Y-39842856D02*
X45659580Y-39890475D01*
X45659580Y-39890475D02*
X45564342Y-39938094D01*
X45564342Y-39938094D02*
X45373866Y-39985713D01*
X45373866Y-39985713D02*
X45135771Y-39985713D01*
X45135771Y-39985713D02*
X44945295Y-39938094D01*
X44945295Y-39938094D02*
X44850057Y-39890475D01*
X44850057Y-39890475D02*
X44802438Y-39842856D01*
X44802438Y-39842856D02*
X44754819Y-39747618D01*
X111328571Y-57554819D02*
X111995237Y-57554819D01*
X111995237Y-57554819D02*
X111566666Y-58554819D01*
X112804761Y-57888152D02*
X112804761Y-58554819D01*
X112566666Y-57507200D02*
X112328571Y-58221485D01*
X112328571Y-58221485D02*
X112947618Y-58221485D01*
X113280952Y-58269104D02*
X113757142Y-58269104D01*
X113185714Y-58554819D02*
X113519047Y-57554819D01*
X113519047Y-57554819D02*
X113852380Y-58554819D01*
X114185714Y-58554819D02*
X114185714Y-57554819D01*
X114185714Y-58031009D02*
X114757142Y-58031009D01*
X114757142Y-58554819D02*
X114757142Y-57554819D01*
X115804761Y-58459580D02*
X115757142Y-58507200D01*
X115757142Y-58507200D02*
X115614285Y-58554819D01*
X115614285Y-58554819D02*
X115519047Y-58554819D01*
X115519047Y-58554819D02*
X115376190Y-58507200D01*
X115376190Y-58507200D02*
X115280952Y-58411961D01*
X115280952Y-58411961D02*
X115233333Y-58316723D01*
X115233333Y-58316723D02*
X115185714Y-58126247D01*
X115185714Y-58126247D02*
X115185714Y-57983390D01*
X115185714Y-57983390D02*
X115233333Y-57792914D01*
X115233333Y-57792914D02*
X115280952Y-57697676D01*
X115280952Y-57697676D02*
X115376190Y-57602438D01*
X115376190Y-57602438D02*
X115519047Y-57554819D01*
X115519047Y-57554819D02*
X115614285Y-57554819D01*
X115614285Y-57554819D02*
X115757142Y-57602438D01*
X115757142Y-57602438D02*
X115804761Y-57650057D01*
X116090476Y-57554819D02*
X116661904Y-57554819D01*
X116376190Y-58554819D02*
X116376190Y-57554819D01*
X116947619Y-57650057D02*
X116995238Y-57602438D01*
X116995238Y-57602438D02*
X117090476Y-57554819D01*
X117090476Y-57554819D02*
X117328571Y-57554819D01*
X117328571Y-57554819D02*
X117423809Y-57602438D01*
X117423809Y-57602438D02*
X117471428Y-57650057D01*
X117471428Y-57650057D02*
X117519047Y-57745295D01*
X117519047Y-57745295D02*
X117519047Y-57840533D01*
X117519047Y-57840533D02*
X117471428Y-57983390D01*
X117471428Y-57983390D02*
X116900000Y-58554819D01*
X116900000Y-58554819D02*
X117519047Y-58554819D01*
X118376190Y-57888152D02*
X118376190Y-58554819D01*
X118138095Y-57507200D02*
X117900000Y-58221485D01*
X117900000Y-58221485D02*
X118519047Y-58221485D01*
X119328571Y-57888152D02*
X119328571Y-58554819D01*
X119090476Y-57507200D02*
X118852381Y-58221485D01*
X118852381Y-58221485D02*
X119471428Y-58221485D01*
X54531009Y-46809523D02*
X54578628Y-46666666D01*
X54578628Y-46666666D02*
X54626247Y-46619047D01*
X54626247Y-46619047D02*
X54721485Y-46571428D01*
X54721485Y-46571428D02*
X54864342Y-46571428D01*
X54864342Y-46571428D02*
X54959580Y-46619047D01*
X54959580Y-46619047D02*
X55007200Y-46666666D01*
X55007200Y-46666666D02*
X55054819Y-46761904D01*
X55054819Y-46761904D02*
X55054819Y-47142856D01*
X55054819Y-47142856D02*
X54054819Y-47142856D01*
X54054819Y-47142856D02*
X54054819Y-46809523D01*
X54054819Y-46809523D02*
X54102438Y-46714285D01*
X54102438Y-46714285D02*
X54150057Y-46666666D01*
X54150057Y-46666666D02*
X54245295Y-46619047D01*
X54245295Y-46619047D02*
X54340533Y-46619047D01*
X54340533Y-46619047D02*
X54435771Y-46666666D01*
X54435771Y-46666666D02*
X54483390Y-46714285D01*
X54483390Y-46714285D02*
X54531009Y-46809523D01*
X54531009Y-46809523D02*
X54531009Y-47142856D01*
X55007200Y-46190475D02*
X55054819Y-46047618D01*
X55054819Y-46047618D02*
X55054819Y-45809523D01*
X55054819Y-45809523D02*
X55007200Y-45714285D01*
X55007200Y-45714285D02*
X54959580Y-45666666D01*
X54959580Y-45666666D02*
X54864342Y-45619047D01*
X54864342Y-45619047D02*
X54769104Y-45619047D01*
X54769104Y-45619047D02*
X54673866Y-45666666D01*
X54673866Y-45666666D02*
X54626247Y-45714285D01*
X54626247Y-45714285D02*
X54578628Y-45809523D01*
X54578628Y-45809523D02*
X54531009Y-45999999D01*
X54531009Y-45999999D02*
X54483390Y-46095237D01*
X54483390Y-46095237D02*
X54435771Y-46142856D01*
X54435771Y-46142856D02*
X54340533Y-46190475D01*
X54340533Y-46190475D02*
X54245295Y-46190475D01*
X54245295Y-46190475D02*
X54150057Y-46142856D01*
X54150057Y-46142856D02*
X54102438Y-46095237D01*
X54102438Y-46095237D02*
X54054819Y-45999999D01*
X54054819Y-45999999D02*
X54054819Y-45761904D01*
X54054819Y-45761904D02*
X54102438Y-45619047D01*
X55007200Y-45238094D02*
X55054819Y-45095237D01*
X55054819Y-45095237D02*
X55054819Y-44857142D01*
X55054819Y-44857142D02*
X55007200Y-44761904D01*
X55007200Y-44761904D02*
X54959580Y-44714285D01*
X54959580Y-44714285D02*
X54864342Y-44666666D01*
X54864342Y-44666666D02*
X54769104Y-44666666D01*
X54769104Y-44666666D02*
X54673866Y-44714285D01*
X54673866Y-44714285D02*
X54626247Y-44761904D01*
X54626247Y-44761904D02*
X54578628Y-44857142D01*
X54578628Y-44857142D02*
X54531009Y-45047618D01*
X54531009Y-45047618D02*
X54483390Y-45142856D01*
X54483390Y-45142856D02*
X54435771Y-45190475D01*
X54435771Y-45190475D02*
X54340533Y-45238094D01*
X54340533Y-45238094D02*
X54245295Y-45238094D01*
X54245295Y-45238094D02*
X54150057Y-45190475D01*
X54150057Y-45190475D02*
X54102438Y-45142856D01*
X54102438Y-45142856D02*
X54054819Y-45047618D01*
X54054819Y-45047618D02*
X54054819Y-44809523D01*
X54054819Y-44809523D02*
X54102438Y-44666666D01*
X55054819Y-43714285D02*
X55054819Y-44285713D01*
X55054819Y-43999999D02*
X54054819Y-43999999D01*
X54054819Y-43999999D02*
X54197676Y-44095237D01*
X54197676Y-44095237D02*
X54292914Y-44190475D01*
X54292914Y-44190475D02*
X54340533Y-44285713D01*
X54054819Y-43380951D02*
X54054819Y-42761904D01*
X54054819Y-42761904D02*
X54435771Y-43095237D01*
X54435771Y-43095237D02*
X54435771Y-42952380D01*
X54435771Y-42952380D02*
X54483390Y-42857142D01*
X54483390Y-42857142D02*
X54531009Y-42809523D01*
X54531009Y-42809523D02*
X54626247Y-42761904D01*
X54626247Y-42761904D02*
X54864342Y-42761904D01*
X54864342Y-42761904D02*
X54959580Y-42809523D01*
X54959580Y-42809523D02*
X55007200Y-42857142D01*
X55007200Y-42857142D02*
X55054819Y-42952380D01*
X55054819Y-42952380D02*
X55054819Y-43238094D01*
X55054819Y-43238094D02*
X55007200Y-43333332D01*
X55007200Y-43333332D02*
X54959580Y-43380951D01*
X54483390Y-42190475D02*
X54435771Y-42285713D01*
X54435771Y-42285713D02*
X54388152Y-42333332D01*
X54388152Y-42333332D02*
X54292914Y-42380951D01*
X54292914Y-42380951D02*
X54245295Y-42380951D01*
X54245295Y-42380951D02*
X54150057Y-42333332D01*
X54150057Y-42333332D02*
X54102438Y-42285713D01*
X54102438Y-42285713D02*
X54054819Y-42190475D01*
X54054819Y-42190475D02*
X54054819Y-41999999D01*
X54054819Y-41999999D02*
X54102438Y-41904761D01*
X54102438Y-41904761D02*
X54150057Y-41857142D01*
X54150057Y-41857142D02*
X54245295Y-41809523D01*
X54245295Y-41809523D02*
X54292914Y-41809523D01*
X54292914Y-41809523D02*
X54388152Y-41857142D01*
X54388152Y-41857142D02*
X54435771Y-41904761D01*
X54435771Y-41904761D02*
X54483390Y-41999999D01*
X54483390Y-41999999D02*
X54483390Y-42190475D01*
X54483390Y-42190475D02*
X54531009Y-42285713D01*
X54531009Y-42285713D02*
X54578628Y-42333332D01*
X54578628Y-42333332D02*
X54673866Y-42380951D01*
X54673866Y-42380951D02*
X54864342Y-42380951D01*
X54864342Y-42380951D02*
X54959580Y-42333332D01*
X54959580Y-42333332D02*
X55007200Y-42285713D01*
X55007200Y-42285713D02*
X55054819Y-42190475D01*
X55054819Y-42190475D02*
X55054819Y-41999999D01*
X55054819Y-41999999D02*
X55007200Y-41904761D01*
X55007200Y-41904761D02*
X54959580Y-41857142D01*
X54959580Y-41857142D02*
X54864342Y-41809523D01*
X54864342Y-41809523D02*
X54673866Y-41809523D01*
X54673866Y-41809523D02*
X54578628Y-41857142D01*
X54578628Y-41857142D02*
X54531009Y-41904761D01*
X54531009Y-41904761D02*
X54483390Y-41999999D01*
D11*
X87272419Y-88391353D02*
X87272419Y-87772306D01*
X87272419Y-87772306D02*
X87653371Y-88105639D01*
X87653371Y-88105639D02*
X87653371Y-87962782D01*
X87653371Y-87962782D02*
X87700990Y-87867544D01*
X87700990Y-87867544D02*
X87748609Y-87819925D01*
X87748609Y-87819925D02*
X87843847Y-87772306D01*
X87843847Y-87772306D02*
X88081942Y-87772306D01*
X88081942Y-87772306D02*
X88177180Y-87819925D01*
X88177180Y-87819925D02*
X88224800Y-87867544D01*
X88224800Y-87867544D02*
X88272419Y-87962782D01*
X88272419Y-87962782D02*
X88272419Y-88248496D01*
X88272419Y-88248496D02*
X88224800Y-88343734D01*
X88224800Y-88343734D02*
X88177180Y-88391353D01*
X87272419Y-87486591D02*
X88272419Y-87153258D01*
X88272419Y-87153258D02*
X87272419Y-86819925D01*
X87272419Y-86581829D02*
X87272419Y-85962782D01*
X87272419Y-85962782D02*
X87653371Y-86296115D01*
X87653371Y-86296115D02*
X87653371Y-86153258D01*
X87653371Y-86153258D02*
X87700990Y-86058020D01*
X87700990Y-86058020D02*
X87748609Y-86010401D01*
X87748609Y-86010401D02*
X87843847Y-85962782D01*
X87843847Y-85962782D02*
X88081942Y-85962782D01*
X88081942Y-85962782D02*
X88177180Y-86010401D01*
X88177180Y-86010401D02*
X88224800Y-86058020D01*
X88224800Y-86058020D02*
X88272419Y-86153258D01*
X88272419Y-86153258D02*
X88272419Y-86438972D01*
X88272419Y-86438972D02*
X88224800Y-86534210D01*
X88224800Y-86534210D02*
X88177180Y-86581829D01*
X85524800Y-88443734D02*
X85572419Y-88300877D01*
X85572419Y-88300877D02*
X85572419Y-88062782D01*
X85572419Y-88062782D02*
X85524800Y-87967544D01*
X85524800Y-87967544D02*
X85477180Y-87919925D01*
X85477180Y-87919925D02*
X85381942Y-87872306D01*
X85381942Y-87872306D02*
X85286704Y-87872306D01*
X85286704Y-87872306D02*
X85191466Y-87919925D01*
X85191466Y-87919925D02*
X85143847Y-87967544D01*
X85143847Y-87967544D02*
X85096228Y-88062782D01*
X85096228Y-88062782D02*
X85048609Y-88253258D01*
X85048609Y-88253258D02*
X85000990Y-88348496D01*
X85000990Y-88348496D02*
X84953371Y-88396115D01*
X84953371Y-88396115D02*
X84858133Y-88443734D01*
X84858133Y-88443734D02*
X84762895Y-88443734D01*
X84762895Y-88443734D02*
X84667657Y-88396115D01*
X84667657Y-88396115D02*
X84620038Y-88348496D01*
X84620038Y-88348496D02*
X84572419Y-88253258D01*
X84572419Y-88253258D02*
X84572419Y-88015163D01*
X84572419Y-88015163D02*
X84620038Y-87872306D01*
X85572419Y-87443734D02*
X84572419Y-87443734D01*
X84572419Y-87443734D02*
X84572419Y-87205639D01*
X84572419Y-87205639D02*
X84620038Y-87062782D01*
X84620038Y-87062782D02*
X84715276Y-86967544D01*
X84715276Y-86967544D02*
X84810514Y-86919925D01*
X84810514Y-86919925D02*
X85000990Y-86872306D01*
X85000990Y-86872306D02*
X85143847Y-86872306D01*
X85143847Y-86872306D02*
X85334323Y-86919925D01*
X85334323Y-86919925D02*
X85429561Y-86967544D01*
X85429561Y-86967544D02*
X85524800Y-87062782D01*
X85524800Y-87062782D02*
X85572419Y-87205639D01*
X85572419Y-87205639D02*
X85572419Y-87443734D01*
X85286704Y-86491353D02*
X85286704Y-86015163D01*
X85572419Y-86586591D02*
X84572419Y-86253258D01*
X84572419Y-86253258D02*
X85572419Y-85919925D01*
X83024800Y-88543734D02*
X83072419Y-88400877D01*
X83072419Y-88400877D02*
X83072419Y-88162782D01*
X83072419Y-88162782D02*
X83024800Y-88067544D01*
X83024800Y-88067544D02*
X82977180Y-88019925D01*
X82977180Y-88019925D02*
X82881942Y-87972306D01*
X82881942Y-87972306D02*
X82786704Y-87972306D01*
X82786704Y-87972306D02*
X82691466Y-88019925D01*
X82691466Y-88019925D02*
X82643847Y-88067544D01*
X82643847Y-88067544D02*
X82596228Y-88162782D01*
X82596228Y-88162782D02*
X82548609Y-88353258D01*
X82548609Y-88353258D02*
X82500990Y-88448496D01*
X82500990Y-88448496D02*
X82453371Y-88496115D01*
X82453371Y-88496115D02*
X82358133Y-88543734D01*
X82358133Y-88543734D02*
X82262895Y-88543734D01*
X82262895Y-88543734D02*
X82167657Y-88496115D01*
X82167657Y-88496115D02*
X82120038Y-88448496D01*
X82120038Y-88448496D02*
X82072419Y-88353258D01*
X82072419Y-88353258D02*
X82072419Y-88115163D01*
X82072419Y-88115163D02*
X82120038Y-87972306D01*
X82977180Y-86972306D02*
X83024800Y-87019925D01*
X83024800Y-87019925D02*
X83072419Y-87162782D01*
X83072419Y-87162782D02*
X83072419Y-87258020D01*
X83072419Y-87258020D02*
X83024800Y-87400877D01*
X83024800Y-87400877D02*
X82929561Y-87496115D01*
X82929561Y-87496115D02*
X82834323Y-87543734D01*
X82834323Y-87543734D02*
X82643847Y-87591353D01*
X82643847Y-87591353D02*
X82500990Y-87591353D01*
X82500990Y-87591353D02*
X82310514Y-87543734D01*
X82310514Y-87543734D02*
X82215276Y-87496115D01*
X82215276Y-87496115D02*
X82120038Y-87400877D01*
X82120038Y-87400877D02*
X82072419Y-87258020D01*
X82072419Y-87258020D02*
X82072419Y-87162782D01*
X82072419Y-87162782D02*
X82120038Y-87019925D01*
X82120038Y-87019925D02*
X82167657Y-86972306D01*
X83072419Y-86067544D02*
X83072419Y-86543734D01*
X83072419Y-86543734D02*
X82072419Y-86543734D01*
X81680074Y-93672419D02*
X81203884Y-93672419D01*
X81203884Y-93672419D02*
X81203884Y-92672419D01*
X82013408Y-93672419D02*
X82013408Y-92672419D01*
X82013408Y-92672419D02*
X82394360Y-92672419D01*
X82394360Y-92672419D02*
X82489598Y-92720038D01*
X82489598Y-92720038D02*
X82537217Y-92767657D01*
X82537217Y-92767657D02*
X82584836Y-92862895D01*
X82584836Y-92862895D02*
X82584836Y-93005752D01*
X82584836Y-93005752D02*
X82537217Y-93100990D01*
X82537217Y-93100990D02*
X82489598Y-93148609D01*
X82489598Y-93148609D02*
X82394360Y-93196228D01*
X82394360Y-93196228D02*
X82013408Y-93196228D01*
X82965789Y-93624800D02*
X83108646Y-93672419D01*
X83108646Y-93672419D02*
X83346741Y-93672419D01*
X83346741Y-93672419D02*
X83441979Y-93624800D01*
X83441979Y-93624800D02*
X83489598Y-93577180D01*
X83489598Y-93577180D02*
X83537217Y-93481942D01*
X83537217Y-93481942D02*
X83537217Y-93386704D01*
X83537217Y-93386704D02*
X83489598Y-93291466D01*
X83489598Y-93291466D02*
X83441979Y-93243847D01*
X83441979Y-93243847D02*
X83346741Y-93196228D01*
X83346741Y-93196228D02*
X83156265Y-93148609D01*
X83156265Y-93148609D02*
X83061027Y-93100990D01*
X83061027Y-93100990D02*
X83013408Y-93053371D01*
X83013408Y-93053371D02*
X82965789Y-92958133D01*
X82965789Y-92958133D02*
X82965789Y-92862895D01*
X82965789Y-92862895D02*
X83013408Y-92767657D01*
X83013408Y-92767657D02*
X83061027Y-92720038D01*
X83061027Y-92720038D02*
X83156265Y-92672419D01*
X83156265Y-92672419D02*
X83394360Y-92672419D01*
X83394360Y-92672419D02*
X83537217Y-92720038D01*
X83918170Y-92767657D02*
X83965789Y-92720038D01*
X83965789Y-92720038D02*
X84061027Y-92672419D01*
X84061027Y-92672419D02*
X84299122Y-92672419D01*
X84299122Y-92672419D02*
X84394360Y-92720038D01*
X84394360Y-92720038D02*
X84441979Y-92767657D01*
X84441979Y-92767657D02*
X84489598Y-92862895D01*
X84489598Y-92862895D02*
X84489598Y-92958133D01*
X84489598Y-92958133D02*
X84441979Y-93100990D01*
X84441979Y-93100990D02*
X83870551Y-93672419D01*
X83870551Y-93672419D02*
X84489598Y-93672419D01*
X84870551Y-92767657D02*
X84918170Y-92720038D01*
X84918170Y-92720038D02*
X85013408Y-92672419D01*
X85013408Y-92672419D02*
X85251503Y-92672419D01*
X85251503Y-92672419D02*
X85346741Y-92720038D01*
X85346741Y-92720038D02*
X85394360Y-92767657D01*
X85394360Y-92767657D02*
X85441979Y-92862895D01*
X85441979Y-92862895D02*
X85441979Y-92958133D01*
X85441979Y-92958133D02*
X85394360Y-93100990D01*
X85394360Y-93100990D02*
X84822932Y-93672419D01*
X84822932Y-93672419D02*
X85441979Y-93672419D01*
X85870551Y-93672419D02*
X85870551Y-92672419D01*
X85870551Y-93148609D02*
X86441979Y-93148609D01*
X86441979Y-93672419D02*
X86441979Y-92672419D01*
X87251503Y-93148609D02*
X87394360Y-93196228D01*
X87394360Y-93196228D02*
X87441979Y-93243847D01*
X87441979Y-93243847D02*
X87489598Y-93339085D01*
X87489598Y-93339085D02*
X87489598Y-93481942D01*
X87489598Y-93481942D02*
X87441979Y-93577180D01*
X87441979Y-93577180D02*
X87394360Y-93624800D01*
X87394360Y-93624800D02*
X87299122Y-93672419D01*
X87299122Y-93672419D02*
X86918170Y-93672419D01*
X86918170Y-93672419D02*
X86918170Y-92672419D01*
X86918170Y-92672419D02*
X87251503Y-92672419D01*
X87251503Y-92672419D02*
X87346741Y-92720038D01*
X87346741Y-92720038D02*
X87394360Y-92767657D01*
X87394360Y-92767657D02*
X87441979Y-92862895D01*
X87441979Y-92862895D02*
X87441979Y-92958133D01*
X87441979Y-92958133D02*
X87394360Y-93053371D01*
X87394360Y-93053371D02*
X87346741Y-93100990D01*
X87346741Y-93100990D02*
X87251503Y-93148609D01*
X87251503Y-93148609D02*
X86918170Y-93148609D01*
X79820038Y-88172306D02*
X79772419Y-88267544D01*
X79772419Y-88267544D02*
X79772419Y-88410401D01*
X79772419Y-88410401D02*
X79820038Y-88553258D01*
X79820038Y-88553258D02*
X79915276Y-88648496D01*
X79915276Y-88648496D02*
X80010514Y-88696115D01*
X80010514Y-88696115D02*
X80200990Y-88743734D01*
X80200990Y-88743734D02*
X80343847Y-88743734D01*
X80343847Y-88743734D02*
X80534323Y-88696115D01*
X80534323Y-88696115D02*
X80629561Y-88648496D01*
X80629561Y-88648496D02*
X80724800Y-88553258D01*
X80724800Y-88553258D02*
X80772419Y-88410401D01*
X80772419Y-88410401D02*
X80772419Y-88315163D01*
X80772419Y-88315163D02*
X80724800Y-88172306D01*
X80724800Y-88172306D02*
X80677180Y-88124687D01*
X80677180Y-88124687D02*
X80343847Y-88124687D01*
X80343847Y-88124687D02*
X80343847Y-88315163D01*
X80772419Y-87696115D02*
X79772419Y-87696115D01*
X79772419Y-87696115D02*
X80772419Y-87124687D01*
X80772419Y-87124687D02*
X79772419Y-87124687D01*
X80772419Y-86648496D02*
X79772419Y-86648496D01*
X79772419Y-86648496D02*
X79772419Y-86410401D01*
X79772419Y-86410401D02*
X79820038Y-86267544D01*
X79820038Y-86267544D02*
X79915276Y-86172306D01*
X79915276Y-86172306D02*
X80010514Y-86124687D01*
X80010514Y-86124687D02*
X80200990Y-86077068D01*
X80200990Y-86077068D02*
X80343847Y-86077068D01*
X80343847Y-86077068D02*
X80534323Y-86124687D01*
X80534323Y-86124687D02*
X80629561Y-86172306D01*
X80629561Y-86172306D02*
X80724800Y-86267544D01*
X80724800Y-86267544D02*
X80772419Y-86410401D01*
X80772419Y-86410401D02*
X80772419Y-86648496D01*
X39287419Y-98048496D02*
X39287419Y-97858020D01*
X39287419Y-97858020D02*
X39239800Y-97762782D01*
X39239800Y-97762782D02*
X39192180Y-97715163D01*
X39192180Y-97715163D02*
X39049323Y-97619925D01*
X39049323Y-97619925D02*
X38858847Y-97572306D01*
X38858847Y-97572306D02*
X38477895Y-97572306D01*
X38477895Y-97572306D02*
X38382657Y-97619925D01*
X38382657Y-97619925D02*
X38335038Y-97667544D01*
X38335038Y-97667544D02*
X38287419Y-97762782D01*
X38287419Y-97762782D02*
X38287419Y-97953258D01*
X38287419Y-97953258D02*
X38335038Y-98048496D01*
X38335038Y-98048496D02*
X38382657Y-98096115D01*
X38382657Y-98096115D02*
X38477895Y-98143734D01*
X38477895Y-98143734D02*
X38715990Y-98143734D01*
X38715990Y-98143734D02*
X38811228Y-98096115D01*
X38811228Y-98096115D02*
X38858847Y-98048496D01*
X38858847Y-98048496D02*
X38906466Y-97953258D01*
X38906466Y-97953258D02*
X38906466Y-97762782D01*
X38906466Y-97762782D02*
X38858847Y-97667544D01*
X38858847Y-97667544D02*
X38811228Y-97619925D01*
X38811228Y-97619925D02*
X38715990Y-97572306D01*
X43887419Y-98172306D02*
X43887419Y-98743734D01*
X43887419Y-98458020D02*
X42887419Y-98458020D01*
X42887419Y-98458020D02*
X43030276Y-98553258D01*
X43030276Y-98553258D02*
X43125514Y-98648496D01*
X43125514Y-98648496D02*
X43173133Y-98743734D01*
X42887419Y-97553258D02*
X42887419Y-97458020D01*
X42887419Y-97458020D02*
X42935038Y-97362782D01*
X42935038Y-97362782D02*
X42982657Y-97315163D01*
X42982657Y-97315163D02*
X43077895Y-97267544D01*
X43077895Y-97267544D02*
X43268371Y-97219925D01*
X43268371Y-97219925D02*
X43506466Y-97219925D01*
X43506466Y-97219925D02*
X43696942Y-97267544D01*
X43696942Y-97267544D02*
X43792180Y-97315163D01*
X43792180Y-97315163D02*
X43839800Y-97362782D01*
X43839800Y-97362782D02*
X43887419Y-97458020D01*
X43887419Y-97458020D02*
X43887419Y-97553258D01*
X43887419Y-97553258D02*
X43839800Y-97648496D01*
X43839800Y-97648496D02*
X43792180Y-97696115D01*
X43792180Y-97696115D02*
X43696942Y-97743734D01*
X43696942Y-97743734D02*
X43506466Y-97791353D01*
X43506466Y-97791353D02*
X43268371Y-97791353D01*
X43268371Y-97791353D02*
X43077895Y-97743734D01*
X43077895Y-97743734D02*
X42982657Y-97696115D01*
X42982657Y-97696115D02*
X42935038Y-97648496D01*
X42935038Y-97648496D02*
X42887419Y-97553258D01*
X66751228Y-94377068D02*
X65251228Y-94377068D01*
X65251228Y-94377068D02*
X65251228Y-93805639D01*
X65251228Y-93805639D02*
X65322657Y-93662782D01*
X65322657Y-93662782D02*
X65394085Y-93591353D01*
X65394085Y-93591353D02*
X65536942Y-93519925D01*
X65536942Y-93519925D02*
X65751228Y-93519925D01*
X65751228Y-93519925D02*
X65894085Y-93591353D01*
X65894085Y-93591353D02*
X65965514Y-93662782D01*
X65965514Y-93662782D02*
X66036942Y-93805639D01*
X66036942Y-93805639D02*
X66036942Y-94377068D01*
X66751228Y-92877068D02*
X65251228Y-92877068D01*
X65251228Y-92877068D02*
X66322657Y-92377068D01*
X66322657Y-92377068D02*
X65251228Y-91877068D01*
X65251228Y-91877068D02*
X66751228Y-91877068D01*
X66679800Y-91234210D02*
X66751228Y-91019925D01*
X66751228Y-91019925D02*
X66751228Y-90662782D01*
X66751228Y-90662782D02*
X66679800Y-90519925D01*
X66679800Y-90519925D02*
X66608371Y-90448496D01*
X66608371Y-90448496D02*
X66465514Y-90377067D01*
X66465514Y-90377067D02*
X66322657Y-90377067D01*
X66322657Y-90377067D02*
X66179800Y-90448496D01*
X66179800Y-90448496D02*
X66108371Y-90519925D01*
X66108371Y-90519925D02*
X66036942Y-90662782D01*
X66036942Y-90662782D02*
X65965514Y-90948496D01*
X65965514Y-90948496D02*
X65894085Y-91091353D01*
X65894085Y-91091353D02*
X65822657Y-91162782D01*
X65822657Y-91162782D02*
X65679800Y-91234210D01*
X65679800Y-91234210D02*
X65536942Y-91234210D01*
X65536942Y-91234210D02*
X65394085Y-91162782D01*
X65394085Y-91162782D02*
X65322657Y-91091353D01*
X65322657Y-91091353D02*
X65251228Y-90948496D01*
X65251228Y-90948496D02*
X65251228Y-90591353D01*
X65251228Y-90591353D02*
X65322657Y-90377067D01*
X66322657Y-89805639D02*
X66322657Y-89091354D01*
X66751228Y-89948496D02*
X65251228Y-89448496D01*
X65251228Y-89448496D02*
X66751228Y-88948496D01*
X65251228Y-88162782D02*
X65251228Y-88019925D01*
X65251228Y-88019925D02*
X65322657Y-87877068D01*
X65322657Y-87877068D02*
X65394085Y-87805640D01*
X65394085Y-87805640D02*
X65536942Y-87734211D01*
X65536942Y-87734211D02*
X65822657Y-87662782D01*
X65822657Y-87662782D02*
X66179800Y-87662782D01*
X66179800Y-87662782D02*
X66465514Y-87734211D01*
X66465514Y-87734211D02*
X66608371Y-87805640D01*
X66608371Y-87805640D02*
X66679800Y-87877068D01*
X66679800Y-87877068D02*
X66751228Y-88019925D01*
X66751228Y-88019925D02*
X66751228Y-88162782D01*
X66751228Y-88162782D02*
X66679800Y-88305640D01*
X66679800Y-88305640D02*
X66608371Y-88377068D01*
X66608371Y-88377068D02*
X66465514Y-88448497D01*
X66465514Y-88448497D02*
X66179800Y-88519925D01*
X66179800Y-88519925D02*
X65822657Y-88519925D01*
X65822657Y-88519925D02*
X65536942Y-88448497D01*
X65536942Y-88448497D02*
X65394085Y-88377068D01*
X65394085Y-88377068D02*
X65322657Y-88305640D01*
X65322657Y-88305640D02*
X65251228Y-88162782D01*
X65251228Y-86734211D02*
X65251228Y-86591354D01*
X65251228Y-86591354D02*
X65322657Y-86448497D01*
X65322657Y-86448497D02*
X65394085Y-86377069D01*
X65394085Y-86377069D02*
X65536942Y-86305640D01*
X65536942Y-86305640D02*
X65822657Y-86234211D01*
X65822657Y-86234211D02*
X66179800Y-86234211D01*
X66179800Y-86234211D02*
X66465514Y-86305640D01*
X66465514Y-86305640D02*
X66608371Y-86377069D01*
X66608371Y-86377069D02*
X66679800Y-86448497D01*
X66679800Y-86448497D02*
X66751228Y-86591354D01*
X66751228Y-86591354D02*
X66751228Y-86734211D01*
X66751228Y-86734211D02*
X66679800Y-86877069D01*
X66679800Y-86877069D02*
X66608371Y-86948497D01*
X66608371Y-86948497D02*
X66465514Y-87019926D01*
X66465514Y-87019926D02*
X66179800Y-87091354D01*
X66179800Y-87091354D02*
X65822657Y-87091354D01*
X65822657Y-87091354D02*
X65536942Y-87019926D01*
X65536942Y-87019926D02*
X65394085Y-86948497D01*
X65394085Y-86948497D02*
X65322657Y-86877069D01*
X65322657Y-86877069D02*
X65251228Y-86734211D01*
X65251228Y-85734212D02*
X65251228Y-84805640D01*
X65251228Y-84805640D02*
X65822657Y-85305640D01*
X65822657Y-85305640D02*
X65822657Y-85091355D01*
X65822657Y-85091355D02*
X65894085Y-84948498D01*
X65894085Y-84948498D02*
X65965514Y-84877069D01*
X65965514Y-84877069D02*
X66108371Y-84805640D01*
X66108371Y-84805640D02*
X66465514Y-84805640D01*
X66465514Y-84805640D02*
X66608371Y-84877069D01*
X66608371Y-84877069D02*
X66679800Y-84948498D01*
X66679800Y-84948498D02*
X66751228Y-85091355D01*
X66751228Y-85091355D02*
X66751228Y-85519926D01*
X66751228Y-85519926D02*
X66679800Y-85662783D01*
X66679800Y-85662783D02*
X66608371Y-85734212D01*
X66179800Y-84162784D02*
X66179800Y-83019927D01*
X66322657Y-82377069D02*
X66322657Y-81662784D01*
X66751228Y-82519926D02*
X65251228Y-82019926D01*
X65251228Y-82019926D02*
X66751228Y-81519926D01*
X42982657Y-103243734D02*
X42935038Y-103196115D01*
X42935038Y-103196115D02*
X42887419Y-103100877D01*
X42887419Y-103100877D02*
X42887419Y-102862782D01*
X42887419Y-102862782D02*
X42935038Y-102767544D01*
X42935038Y-102767544D02*
X42982657Y-102719925D01*
X42982657Y-102719925D02*
X43077895Y-102672306D01*
X43077895Y-102672306D02*
X43173133Y-102672306D01*
X43173133Y-102672306D02*
X43315990Y-102719925D01*
X43315990Y-102719925D02*
X43887419Y-103291353D01*
X43887419Y-103291353D02*
X43887419Y-102672306D01*
X63790038Y-96058020D02*
X61790038Y-96058020D01*
X61790038Y-96058020D02*
X61790038Y-95296115D01*
X61790038Y-95296115D02*
X61885276Y-95105639D01*
X61885276Y-95105639D02*
X61980514Y-95010401D01*
X61980514Y-95010401D02*
X62170990Y-94915163D01*
X62170990Y-94915163D02*
X62456704Y-94915163D01*
X62456704Y-94915163D02*
X62647180Y-95010401D01*
X62647180Y-95010401D02*
X62742419Y-95105639D01*
X62742419Y-95105639D02*
X62837657Y-95296115D01*
X62837657Y-95296115D02*
X62837657Y-96058020D01*
X63790038Y-93105639D02*
X63790038Y-94058020D01*
X63790038Y-94058020D02*
X61790038Y-94058020D01*
X63218609Y-92534210D02*
X63218609Y-91581829D01*
X63790038Y-92724686D02*
X61790038Y-92058020D01*
X61790038Y-92058020D02*
X63790038Y-91391353D01*
X63790038Y-90724686D02*
X61790038Y-90724686D01*
X61790038Y-90724686D02*
X63790038Y-89581829D01*
X63790038Y-89581829D02*
X61790038Y-89581829D01*
X61790038Y-88915162D02*
X61790038Y-87772305D01*
X63790038Y-88343734D02*
X61790038Y-88343734D01*
X61790038Y-86724686D02*
X61790038Y-86343733D01*
X61790038Y-86343733D02*
X61885276Y-86153257D01*
X61885276Y-86153257D02*
X62075752Y-85962781D01*
X62075752Y-85962781D02*
X62456704Y-85867543D01*
X62456704Y-85867543D02*
X63123371Y-85867543D01*
X63123371Y-85867543D02*
X63504323Y-85962781D01*
X63504323Y-85962781D02*
X63694800Y-86153257D01*
X63694800Y-86153257D02*
X63790038Y-86343733D01*
X63790038Y-86343733D02*
X63790038Y-86724686D01*
X63790038Y-86724686D02*
X63694800Y-86915162D01*
X63694800Y-86915162D02*
X63504323Y-87105638D01*
X63504323Y-87105638D02*
X63123371Y-87200876D01*
X63123371Y-87200876D02*
X62456704Y-87200876D01*
X62456704Y-87200876D02*
X62075752Y-87105638D01*
X62075752Y-87105638D02*
X61885276Y-86915162D01*
X61885276Y-86915162D02*
X61790038Y-86724686D01*
X61790038Y-85200876D02*
X63790038Y-84724686D01*
X63790038Y-84724686D02*
X62361466Y-84343733D01*
X62361466Y-84343733D02*
X63790038Y-83962781D01*
X63790038Y-83962781D02*
X61790038Y-83486591D01*
X62742419Y-82724686D02*
X62742419Y-82058019D01*
X63790038Y-81772305D02*
X63790038Y-82724686D01*
X63790038Y-82724686D02*
X61790038Y-82724686D01*
X61790038Y-82724686D02*
X61790038Y-81772305D01*
X63790038Y-79772305D02*
X62837657Y-80438972D01*
X63790038Y-80915162D02*
X61790038Y-80915162D01*
X61790038Y-80915162D02*
X61790038Y-80153257D01*
X61790038Y-80153257D02*
X61885276Y-79962781D01*
X61885276Y-79962781D02*
X61980514Y-79867543D01*
X61980514Y-79867543D02*
X62170990Y-79772305D01*
X62170990Y-79772305D02*
X62456704Y-79772305D01*
X62456704Y-79772305D02*
X62647180Y-79867543D01*
X62647180Y-79867543D02*
X62742419Y-79962781D01*
X62742419Y-79962781D02*
X62837657Y-80153257D01*
X62837657Y-80153257D02*
X62837657Y-80915162D01*
X39312419Y-102572306D02*
X39312419Y-103143734D01*
X39312419Y-102858020D02*
X38312419Y-102858020D01*
X38312419Y-102858020D02*
X38455276Y-102953258D01*
X38455276Y-102953258D02*
X38550514Y-103048496D01*
X38550514Y-103048496D02*
X38598133Y-103143734D01*
%TO.C,U1*%
X73800000Y-33930000D02*
X91800000Y-33930000D01*
X91800000Y-60370000D01*
X73800000Y-60370000D01*
X73800000Y-33930000D01*
X77300000Y-56370000D02*
X86500000Y-56370000D01*
X86500000Y-59370000D01*
X77300000Y-59370000D01*
X77300000Y-56370000D01*
X79300000Y-32970000D02*
X86300000Y-32970000D01*
X86300000Y-38870000D01*
X79300000Y-38870000D01*
X79300000Y-32970000D01*
D14*
%TO.C,D3*%
X137950000Y-48475000D02*
X137950000Y-51875000D01*
X137950000Y-48475000D02*
X138550000Y-47875000D01*
X143550000Y-47875000D02*
X138550000Y-47875000D01*
X143550000Y-51875000D02*
X137950000Y-51875000D01*
X143550000Y-51875000D02*
X143550000Y-47875000D01*
%TO.C,D2*%
X137950000Y-38975000D02*
X137950000Y-42375000D01*
X137950000Y-38975000D02*
X138550000Y-38375000D01*
X143550000Y-38375000D02*
X138550000Y-38375000D01*
X143550000Y-42375000D02*
X137950000Y-42375000D01*
X143550000Y-42375000D02*
X143550000Y-38375000D01*
%TO.C,D5*%
X137950000Y-67475000D02*
X137950000Y-70875000D01*
X137950000Y-67475000D02*
X138550000Y-66875000D01*
X143550000Y-66875000D02*
X138550000Y-66875000D01*
X143550000Y-70875000D02*
X137950000Y-70875000D01*
X143550000Y-70875000D02*
X143550000Y-66875000D01*
%TO.C,R6*%
X57272936Y-58765000D02*
X57727064Y-58765000D01*
X57272936Y-60235000D02*
X57727064Y-60235000D01*
D11*
%TO.C,J4*%
X93960000Y-85930000D02*
X92360000Y-84230000D01*
X92360000Y-63930000D02*
X105760000Y-63930000D01*
X105760000Y-85930000D01*
X92360000Y-85930000D01*
X92360000Y-63930000D01*
D14*
%TO.C,J7*%
X40530000Y-49420000D02*
X40530000Y-52180000D01*
X45720000Y-49420000D02*
X40530000Y-49420000D01*
X45720000Y-49420000D02*
X45720000Y-52180000D01*
X45720000Y-52180000D02*
X40530000Y-52180000D01*
X46990000Y-49420000D02*
X48370000Y-49420000D01*
X48370000Y-49420000D02*
X48370000Y-50800000D01*
%TO.C,R4*%
X84505436Y-62765000D02*
X84959564Y-62765000D01*
X84505436Y-64235000D02*
X84959564Y-64235000D01*
%TO.C,F1*%
X40797936Y-37090000D02*
X42002064Y-37090000D01*
X40797936Y-38910000D02*
X42002064Y-38910000D01*
%TO.C,J6*%
X38620000Y-33380000D02*
X38620000Y-32000000D01*
X40000000Y-33380000D02*
X38620000Y-33380000D01*
X41270000Y-30620000D02*
X43920000Y-30620000D01*
X41270000Y-33380000D02*
X41270000Y-30620000D01*
X41270000Y-33380000D02*
X43920000Y-33380000D01*
X43920000Y-33380000D02*
X43920000Y-30620000D01*
%TO.C,Q2*%
X55940000Y-53740000D02*
X56940000Y-53740000D01*
X55940000Y-55260000D02*
X55940000Y-53740000D01*
X55990000Y-55260000D02*
X55940000Y-55260000D01*
X57890000Y-55260000D02*
X57110000Y-55260000D01*
X58060000Y-53740000D02*
X59060000Y-53740000D01*
X59060000Y-53740000D02*
X59060000Y-55260000D01*
X59060000Y-55260000D02*
X59010000Y-55260000D01*
X57450000Y-56040000D02*
X57120000Y-55800000D01*
X57450000Y-55560000D01*
X57450000Y-56040000D01*
G36*
X57450000Y-56040000D02*
G01*
X57120000Y-55800000D01*
X57450000Y-55560000D01*
X57450000Y-56040000D01*
G37*
%TO.C,C6*%
X139138748Y-63165000D02*
X139661252Y-63165000D01*
X139138748Y-64635000D02*
X139661252Y-64635000D01*
%TO.C,D4*%
X137950000Y-57975000D02*
X137950000Y-61375000D01*
X137950000Y-57975000D02*
X138550000Y-57375000D01*
X143550000Y-57375000D02*
X138550000Y-57375000D01*
X143550000Y-61375000D02*
X137950000Y-61375000D01*
X143550000Y-61375000D02*
X143550000Y-57375000D01*
%TO.C,R11*%
X134015000Y-50102064D02*
X134015000Y-49647936D01*
X135485000Y-50102064D02*
X135485000Y-49647936D01*
%TO.C,C3*%
X56090000Y-32654437D02*
X56090000Y-38410000D01*
X56090000Y-38410000D02*
X58440000Y-38410000D01*
X57154437Y-31590000D02*
X56090000Y-32654437D01*
X57154437Y-31590000D02*
X58440000Y-31590000D01*
X61347500Y-30562500D02*
X61347500Y-31350000D01*
X61741250Y-30956250D02*
X60953750Y-30956250D01*
X61845563Y-31590000D02*
X60560000Y-31590000D01*
X61845563Y-31590000D02*
X62910000Y-32654437D01*
X62910000Y-32654437D02*
X62910000Y-38410000D01*
X62910000Y-38410000D02*
X60560000Y-38410000D01*
%TO.C,R9*%
X134015000Y-31602064D02*
X134015000Y-31147936D01*
X135485000Y-31602064D02*
X135485000Y-31147936D01*
D11*
%TO.C,J2*%
X130485000Y-94940000D02*
X129380000Y-96045000D01*
X143540000Y-94940000D02*
X129430000Y-94940000D01*
X129430000Y-106240000D01*
X143540000Y-106240000D01*
X143540000Y-94940000D01*
D14*
%TO.C,C4*%
X66665000Y-33411252D02*
X66665000Y-32888748D01*
X68135000Y-33411252D02*
X68135000Y-32888748D01*
%TO.C,J5*%
D11*
X107980000Y-63930000D02*
X130780000Y-63930000D01*
X130780000Y-85630000D01*
X107980000Y-85630000D01*
X107980000Y-63930000D01*
D14*
%TO.C,FB1*%
X50760242Y-31290000D02*
X49089758Y-31290000D01*
X50760242Y-33110000D02*
X49089758Y-33110000D01*
%TO.C,C10*%
X124765000Y-44288748D02*
X124765000Y-44811252D01*
X126235000Y-44288748D02*
X126235000Y-44811252D01*
%TO.C,C1*%
X98788748Y-35090000D02*
X100211252Y-35090000D01*
X98788748Y-36910000D02*
X100211252Y-36910000D01*
%TO.C,C2*%
X98738748Y-31165000D02*
X99261252Y-31165000D01*
X98738748Y-32635000D02*
X99261252Y-32635000D01*
%TO.C,R3*%
X70227064Y-64265000D02*
X69772936Y-64265000D01*
X70227064Y-65735000D02*
X69772936Y-65735000D01*
%TO.C,R10*%
X134015000Y-40602064D02*
X134015000Y-40147936D01*
X135485000Y-40602064D02*
X135485000Y-40147936D01*
%TO.C,D0*%
X46150000Y-43860000D02*
X46150000Y-38050000D01*
X46150000Y-43860000D02*
X50450000Y-43860000D01*
X50450000Y-43860000D02*
X50450000Y-38050000D01*
%TO.C,R8*%
X51460436Y-52865000D02*
X51914564Y-52865000D01*
X51460436Y-54335000D02*
X51914564Y-54335000D01*
%TO.C,U2*%
X111640000Y-43490000D02*
X119360000Y-43490000D01*
X111640000Y-43725000D02*
X111640000Y-43490000D01*
X111640000Y-56510000D02*
X111640000Y-56275000D01*
X119360000Y-43490000D02*
X119360000Y-43725000D01*
X119360000Y-56275000D02*
X119360000Y-56510000D01*
X119360000Y-56510000D02*
X111640000Y-56510000D01*
X110850000Y-43720000D02*
X110510000Y-43250000D01*
X111190000Y-43250000D01*
X110850000Y-43720000D01*
G36*
X110850000Y-43720000D02*
G01*
X110510000Y-43250000D01*
X111190000Y-43250000D01*
X110850000Y-43720000D01*
G37*
%TO.C,Q1*%
X55940000Y-43740000D02*
X56940000Y-43740000D01*
X55940000Y-45260000D02*
X55940000Y-43740000D01*
X55990000Y-45260000D02*
X55940000Y-45260000D01*
X57890000Y-45260000D02*
X57110000Y-45260000D01*
X58060000Y-43740000D02*
X59060000Y-43740000D01*
X59060000Y-43740000D02*
X59060000Y-45260000D01*
X59060000Y-45260000D02*
X59010000Y-45260000D01*
X57450000Y-46040000D02*
X57120000Y-45800000D01*
X57450000Y-45560000D01*
X57450000Y-46040000D01*
G36*
X57450000Y-46040000D02*
G01*
X57120000Y-45800000D01*
X57450000Y-45560000D01*
X57450000Y-46040000D01*
G37*
%TO.C,R1*%
X66165000Y-55839564D02*
X66165000Y-55385436D01*
X67635000Y-55839564D02*
X67635000Y-55385436D01*
%TO.C,R13*%
X134015000Y-69102064D02*
X134015000Y-68647936D01*
X135485000Y-69102064D02*
X135485000Y-68647936D01*
%TO.C,C7*%
X139138748Y-72965000D02*
X139661252Y-72965000D01*
X139138748Y-74435000D02*
X139661252Y-74435000D01*
%TO.C,R12*%
X134015000Y-59602064D02*
X134015000Y-59147936D01*
X135485000Y-59602064D02*
X135485000Y-59147936D01*
%TO.C,D1*%
X137950000Y-29975000D02*
X137950000Y-33375000D01*
X137950000Y-29975000D02*
X138550000Y-29375000D01*
X143550000Y-29375000D02*
X138550000Y-29375000D01*
X143550000Y-33375000D02*
X137950000Y-33375000D01*
X143550000Y-33375000D02*
X143550000Y-29375000D01*
%TO.C,R5*%
X57272936Y-48765000D02*
X57727064Y-48765000D01*
X57272936Y-50235000D02*
X57727064Y-50235000D01*
%TO.C,C5*%
X139238748Y-53665000D02*
X139761252Y-53665000D01*
X139238748Y-55135000D02*
X139761252Y-55135000D01*
D11*
%TO.C,J3*%
X89474224Y-83641133D02*
X88941613Y-83108522D01*
X89478091Y-96700000D02*
X78678091Y-96700000D01*
X78678091Y-83100000D01*
X89478091Y-83100000D01*
X89478091Y-96700000D01*
D14*
%TO.C,R7*%
X63227064Y-41265000D02*
X62772936Y-41265000D01*
X63227064Y-42735000D02*
X62772936Y-42735000D01*
%TO.C,C9*%
X139238748Y-44165000D02*
X139761252Y-44165000D01*
X139238748Y-45635000D02*
X139761252Y-45635000D01*
%TO.C,R2*%
X66265000Y-61185436D02*
X66265000Y-61639564D01*
X67735000Y-61185436D02*
X67735000Y-61639564D01*
%TO.C,C8*%
X139238748Y-35165000D02*
X139761252Y-35165000D01*
X139238748Y-36635000D02*
X139761252Y-36635000D01*
%TO.C,J1*%
D11*
X35690000Y-89600000D02*
X55490000Y-89600000D01*
X55490000Y-69800000D01*
X35690000Y-69800000D01*
X35690000Y-89600000D01*
X35690000Y-108000000D02*
X70990000Y-108000000D01*
X70990000Y-69800000D01*
X35690000Y-69800000D01*
X35690000Y-108000000D01*
X39565000Y-103800000D02*
X42615000Y-103800000D01*
X42615000Y-97000000D01*
X39565000Y-97000000D01*
X39565000Y-103800000D01*
%TD*%
M02*
