%TF.GenerationSoftware,KiCad,Pcbnew,9.0.5*%
%TF.CreationDate,2025-11-19T18:58:22+01:00*%
%TF.ProjectId,aeris,61657269-732e-46b6-9963-61645f706362,rev?*%
%TF.SameCoordinates,Original*%
%TF.FileFunction,Soldermask,Bot*%
%TF.FilePolarity,Negative*%
%FSLAX46Y46*%
G04 Gerber Fmt 4.6, Leading zero omitted, Abs format (unit mm)*
G04 Created by KiCad (PCBNEW 9.0.5) date 2025-11-19 18:58:22*
%MOMM*%
%LPD*%
G01*
G04 APERTURE LIST*
%ADD10R,3.700000X1.700000*%
%ADD11C,1.700000*%
%ADD12R,1.700000X1.700000*%
%ADD13C,2.200000*%
%ADD14C,0.900000*%
G04 APERTURE END LIST*
D10*
%TO.C,U1*%
X91400000Y-58620000D03*
X91400000Y-56080000D03*
X91400000Y-53540000D03*
X91400000Y-51000000D03*
X91400000Y-48460000D03*
X91400000Y-45920000D03*
X91400000Y-43380000D03*
X91400000Y-40840000D03*
X91400000Y-38300000D03*
X91400000Y-35760000D03*
X73950000Y-58620000D03*
X73950000Y-56080000D03*
X73950000Y-53540000D03*
X73950000Y-51000000D03*
X73950000Y-48460000D03*
X73950000Y-45920000D03*
X73950000Y-43380000D03*
X73950000Y-40840000D03*
X73950000Y-38300000D03*
X73950000Y-35760000D03*
%TD*%
D11*
%TO.C,J4*%
X95220000Y-84380000D03*
D12*
X97760000Y-84380000D03*
D11*
X100300000Y-84380000D03*
X102840000Y-84380000D03*
%TD*%
D13*
%TO.C,H3*%
X39500000Y-43000000D03*
%TD*%
D12*
%TO.C,J7*%
X46990000Y-50800000D03*
D11*
X44450000Y-50800000D03*
X41910000Y-50800000D03*
%TD*%
D13*
%TO.C,H1*%
X119000000Y-105000000D03*
%TD*%
D12*
%TO.C,J6*%
X40000000Y-32000000D03*
D11*
X42540000Y-32000000D03*
%TD*%
D13*
%TO.C,H5*%
X76500000Y-105000000D03*
%TD*%
D11*
%TO.C,J2*%
X130810000Y-96520000D03*
D12*
X130810000Y-99060000D03*
D11*
X130810000Y-101600000D03*
X130810000Y-104140000D03*
%TD*%
%TO.C,J5*%
X115460000Y-81730000D03*
D12*
X118000000Y-81730000D03*
D11*
X120540000Y-81730000D03*
X123080000Y-81730000D03*
%TD*%
D13*
%TO.C,H2*%
X142000000Y-85630000D03*
%TD*%
%TO.C,H4*%
X115500000Y-32000000D03*
%TD*%
D11*
%TO.C,J3*%
X87860000Y-84420000D03*
X85320000Y-84420000D03*
X82780000Y-84420000D03*
D12*
X80240000Y-84420000D03*
%TD*%
D14*
%TO.C,J1*%
X40515000Y-102950000D03*
X41765000Y-102950000D03*
X40515000Y-101700000D03*
X41765000Y-101700000D03*
X40515000Y-100450000D03*
X41765000Y-100450000D03*
X40515000Y-99200000D03*
X41765000Y-99200000D03*
X40515000Y-97950000D03*
X41765000Y-97950000D03*
%TD*%
M02*
